<mxfile host="app.diagrams.net" modified="2024-04-18T16:05:13.689Z" agent="Mozilla/5.0 (Windows NT 10.0; Win64; x64) AppleWebKit/537.36 (KHTML, like Gecko) Chrome/123.0.0.0 Safari/537.36" etag="TqqAbV2tmNS9G8Qv6fBO" version="24.2.5" type="github">
  <diagram name="PÃ¡gina-1" id="I7DMBnhCwPrO3cxzHMWE">
    <mxGraphModel dx="2427" dy="1778" grid="1" gridSize="10" guides="1" tooltips="1" connect="1" arrows="1" fold="1" page="1" pageScale="1" pageWidth="827" pageHeight="1169" math="0" shadow="0">
      <root>
        <mxCell id="0" />
        <mxCell id="1" parent="0" />
        <mxCell id="CcBtixM1-_sj4fkXDXMc-1" value="" style="shape=image;verticalLabelPosition=bottom;labelBackgroundColor=default;verticalAlign=top;aspect=fixed;imageAspect=0;image=data:image/png,iVBORw0KGgoAAAANSUhEUgAAA88AAADrCAYAAABXXqR+AAAAAXNSR0IArs4c6QAAAARnQU1BAACxjwv8YQUAAAAJcEhZcwAADsMAAA7DAcdvqGQAALUWSURBVHhe7f0NcGTZdd8JHsoet0YaUQrJTga2nLmYHlHbCBE28bHTLaUJ0d20Z5FTBRdEi1XcEYeULRjgFAyVPkqwBjYH5jRCBkHNYDCoEbCltdjD0RJFalRlFJywZLFDQnSKU3JlobWgAg43x0Ygja0gOihZ3FGEuKsd7vnfr3df5n35AeQXEufXTFbi5c2X7957zrnnnHvfu+9440uFbz7/wkvUq4y++jY9+ft/wfwlCILQPE5OTujKlSvmL6HZSPs2h8vQjiIrrUFkR+gE0iftQ9q6MRBXfot5LwiCIAiCIAiCIAhCAhI8C4IgCIIgCIIgCEINJHgWBEEQBEEQBEEQhBokB89/ekqF+5+kn/mR99PQlSt05coQvf9HfobWdt+ir5si3c+p+v8rq0X1r+Lrb9GDxc/Ql82freGUHkxzm/m/e2aaea56Mb85/cC0oNBdnLF/2iL7giAIgiAIgtCbhIPn0gP6mR8aog/9I3azX/4J+oUvfJ4+/9lP0If/w2P65R9/P/3QTzygY1P0onH6+qdo9t7X6Rvmb0G4LIjsC4IgCIIgCMLZqQye/7hIy397lj733fO0/dufp09/fJJe/sEsZV+epOlPfZ5++7PTlPrVWXbCZf5KEDpDiiY3T+hkc5LfCYIgCIIgCILQDiqC5+OdVVr7/ffQJ/7RHI280xz0eOfLt+kn/vN307e+9VZs9vnr/zJPaz81QT+glnj/AE381Brlv+LPcUXLj7/+u5v0M9d+QD0afeiVj9AnH74Vnw3747fowatTNJHFua7QD1ybUmWi5eJJS5mrL3EurvLv3crzu2WawHW6ct+gt3bXvCXq0W/WM0vn1+cHPvJJer30J+aTMk4LtFm1jeqndntrvv67n6GFj9i2nqXN3/26aod6l/yect1mXxni7w/R+z/2SXrwL8sX7dfTdg30PfONr9Sq21n7K34dul66zx7g/H96TPlXP0LvH+IyQ++n2V/kcuabmtq/e3z/I3x8ih48Mwccx/S5D3OdPdmsX2dep+IvfkSV+4Fry1T4Y3Pc78MaOtMq2RcEQRAEQRCEy0JZ8HxMhYevE419jMa/3xyq4J2U+/nfos9/apIy5sg3nq7Rj74yRb/8B1n62c9+nj7/S9P0faVfpqkf+hFae1rmgn/xH9KP/uQTyvztJfr8Z9fpx773K7R560O0+ju2HAcGP8WBy+PvpP/0zmfp81/4LP1s9k/owa33063751ss/u6rn6d7t7P87sO0hKXoV9+tjh//yo/T+3/8c/RHWbNE/Zc+TePf80Rd1yf/efU7vL/+zxfohyY/SYX/w8foHn/3H/zVr9PGT32Kvlj2tW/83iZ96D/5EH3mjz+g2+izP0sf+OPPhduoBvW2tyo3uUCvf9uHaZ3LLf1n30pfnP5R+odfNAVq8bufpI9Mf5FSf+cX1LL9cXrAAeeP0trvRb/RUNvV7Ht9zT/yQ1y30vfR9C95dfuRn6a8CUjP018Kcx3f93e5Xr+0RNl/x4H0f/FJWvjpG/SZP83RJ+5+ltZvpKnw6kRM5ur53czYD1OO8pR/XJaaOCrQg7330MxfG1F/NqQzr/0068P/mf4BdOGjH6DBbzfHHbV1phWyLwiCIAiCIAiXibLg+W063uN/hr/PBca1+TJ95u8tU/HqOv2Tz8zT5MtZyo5/jD79OQ7WXi7S8n/7a/H7o5++i35s6x7NXX9ZLQWf21yn+dQprf2uWQb+rED5HaK5f/BpmkaZH3yZJv/eL9Ev/K0UlR4Xz3Wv9Tu/N0uj7/5OfpehQSxF/15MrX+ZXt8p0ciddVq/bZaoj3+YPsHXNcfX9Znff0t9N8yX6XMrnyH6m+t0f3Oacvzd3N/6NH32TpreQjs6junXPv1JeuuDn6Vf35zTbaTq/lv0+Y+XKtuoKvW2ty5XUtemf1Nd2//9A9wHqkBtTt9DP/vg8/SJG7qv5j/zT+jT+I3/IW9mPBtsu1p9j3b6b7luL3+a/skXPk0fGzd1+8w6TX/blzn4xPnO018G/zr4/Et3pol+/zP05C+u02cXP8znhMwt0c+OEb3+O19urK59r9DkDaL8biGaFWaOCw+o8P0/TFmVlGpQZ05ztHR3juWLr+tvjlDFgpA6dKb5si8IgiAIgiAIl4t48PzsmL6Cf/899Vd9/H6Bfu33iab/s1w84P6z76Yf/r9+mKMPDhqOzDEwnqORtHmvSFP6P+Z/Do91sPHdKfreFNHW/7BGr3/FPtzoOXr5v96n3/pvotnu5vEe+tjnfou2b4/wr3g89276PlzX//YnyctXjw7oi1z3yQ/G6/7cf/xh+hgHXo5SkV5/nWj0e4gOfqdABfd6Qn/Ev4MPixXLfBOot71NuYprG75OPzZu/qjFjQ/Tf9pv3isylP0bOaKdL9IT1VkNtl2tvj/9MhW4nXIffCVet2/P0icKv0X3bmC29Bz9ZSm7juf+g+9S/778Q/45M/R9w/zPn9iz1fu776S/8te4H3byVHB9+mXafa1A75nM8lmYRnXm6ii9p2K22ePMOtOEthQEQRAEQRCES0I8eO7L0CD+/f+qv+rjG9/g0CBL787E3G/FO98Ft71Ab/+B/lvxZ4i+1bwN8lyWPvypaXr37y3TR35ogJ4fej996KfW6MHvHLd4i6xv0NdP36Li77xOD/7xMi187EP0yR0+XDqlP9IFKvmDt7l2obp/F73LDzrfLhHuNsX9tB/6kQ/FXlOrBf7kCX6mPupt7z/+d1wuR4P/YXm5DGVUBFcHmXdVzHJmnoeEvEWlt/XfmjrbrlbfP/sKXz3RYKaex2Cdob8sCdfx7/9Z88YSTCLV/t13vvgyfdhfuq2C5ffQD4+Zhm9UZ2pxbp05R1sKgiAIgiAIwiWhbNl2mtJX+Z+n/6rqMuLjX5miieller3egK9BMn/tE/T5f3FIv/WFdfrE/+Xd9CePl2n2R36gZVtkHf/zT9KHhp6nAQ46Ju6s0uf++dv03NiHadKfPW6I5+i5wEzh/KMTOjkJvfZp7i+bQk3iG27GtBV8J73T1K+pbff/w927tWl+f9VH3b/73X+Fcv85UX7viQpev/w7v0Zfdku2W8NZdaZTbSkIgiAIgiAIF42y4DlFIy+/TLT3Gdr9fXOogmMq/LM8Ff/Nd1EKE4TPPUfvoQK9dVwZrH39q3Dbc5T+C/rvhviz76R3/+AkTf/8Pdou/Gv60n+To9Nf3Yhf11f/qGxm7ZRKv2ve1ssf5GntY5v0Rx/8LO3/aw5kC9v0+c99mj7xt8ZJP1KpCt/9FygbrPtX6di/TlWO6I3DJoT+dbb3c9/zLi6Xp4N/U17ulI4PzdtaVLQv9/6/PuD/fze967v5n/O0XYi/+L00yf8cHJeH0KeU/4kfoImVAn2j2b9ZLw397jspOz5NdP91euMPvkyFL3yZsh8d10u2QSd1xqdTbSkIgiAIgiAIF5Cy4Jkoc3WGplNfpk/+vTUqVqz5/Aa99Sufok+9nqLJuUkdDHx/ln74+4k2fyUfn+H607fo1/4fnyMaztJ7Yve51uDpJn3olQnajDn8z9G7/oK/lPdb6TsRvBXj22V943f/Kf3TRmfDj75CfJX08l9/mVL+KtqvvE752EO/AvSPUm64su7fePqQPud/tz9Lky8TFV77HBX/2BxTfIOKK/8JDb2C7YfMoVrU296m3IP/uazc0Rfp17Aktx7+x8/RF0vmPfjjIj18LU90I0ujWM99nrYLkXoPZbmd8v/zF+PXXCrQg189pne9+930XLN/s14a/N3nXnyF5lKfo8L/+Dp98fdfpsmsd+dxR3QmQKfaUhAEQRAEQRAuIBXBMx7ONP8/fYJe/rfLNPFDH6Kf+cUH9DoebrX7Ofrk9Pvp/T/7gNJ3fol+4ap1zN9DH/tH8zSyM0t/42PL9OB1lP0M/cyHP0QLr4/Q/D/8cGOzWBxY/JVvK9In/84UffJ+Xj1YK3//k/TjP/0ZSv3Nn6BJtfT1nTT68sco9fufpP/ypz5DeZT5xz9DH/nJEr0by86r8K3fjuv+p/Rrv/I6Fb7ydQ5s+fr50NpPTtHmLh7i9To9WJ2l9//IJn0l9rCsEO+mD/9DXfcb02uq7q/ztX7kby9TfKfpDP3wT3K531+jib9ufuf1B7T5sx+hH189pezf/TBlqz0QKka97c3lFufoW381fm0fmvwUfblGTOUY/ir98s0pWnvIbYXf+NiP0/K/naT1n8zpe6HP1XYhTDu9/jNe3TZp6uYs5Yfn6SfG+cea/pt10ujvPjdKf+VGivKv/TIVXs5RNlam3j6sk7p0ptmyLwiCIAiCIAiXi8rgmXnu+6fps7/9W3Tvoxk6zn+KPoKHW/34Gj2hl2npC/sVT+d9bniO/qcv3qMf++4CfeojKLtJ/yo9Q5/9X75Ac8N+yTp47j009yu/Tp8eI3qyNqUfqrX2hN71dz5Pv/4LOYL7D96JezzvTtN3/t5/R1M/Mkuf2nsnffi1X6AfGzAFEnjnD36Ylq5/g/IcuH7ov3+DTr/7ZfrEF9Zp+t1v0caP87Xf+iR97niQPvHg1+nex95D9Lv/it6qXF3r0HVfp/Fv/Bp9kuv+0/+3t+g9/9VnaaksiEe5L/z2PZp/8av0GfzOR/h3/k2GZr7w67R+Pfl5yCHqbe/nfnCefv3BJyj7//oczaprO6VXNj9Ln8CTlOvhlf+K1hfT9C/++5/m3/jv6Enqx+iz2+s0aWdFz9l2IWw7ubr9l5+jPxlfp9/amqP3oGot+M26aPh3n6PRsZtEp6f08tVsxROvO6IzTZZ9QRAEQRAEQbhMvOONLxW++fwLL5k/e4/RV9+mJ3//LDeQ9irH9ODHf4Bm/0/bdHJnxBwTWsLTNRq6dkCfeHKPJvvMMaGnwAP/rly5Yv4Smo20b3O4DO0ostIaRHaETiB90j6krRsDcWUseO7Fxuv7+Jv07Bffa/4SBKFRYFiFMDLotBZp3+ZwGdpRZKU1iOwInUD6pH1IWzdGRfDci1zemeev0+s/90P0kX/2bvrw3/0YTb7wnfSN0yJ9bmWZ8t89T9tbczRS933WQv0c0+u/uEv/4t98kbZ+5Y/oxx5tN74MW7gwyKDTWqR9m8NlaEeRldYgsiN0AumT9iFt3RgueP7Qr/5H5lDv8k9+7P9j3l0i/vRr9GTrF+kf/9MCPflfv0aUHqSJ3I/Sj37or1L/d5gyQpM5ol/9+MfpU0ffQRP/xafoZ6/1058znwiCIAiCIAiCcDH5G7/853p/5hlI5lS4rIhctBZp39Yi7dscZAwUzorIjtAJpE/ah7R1Y2DmOfi0bUEQBEEQBEEQBEEQIiR4FgRBEARBEARBEIQaSPAsCIIgCIIgCIIgCDWQ4FkQBEEQBEEQBEEQaiDBsyAIgiAIgiAIgiDUQIJnQRAEQRAEQRAEQaiBBM+CIAiCIAiCIAiCUAMJngVBEARBEARBEAShBhI8C4IgCIIgCIIgCEINJHgWBEEQBEEQBEEQhBpI8CwIgiAIgiAIgiAINXjHG18qfPO570ibPwVBEARBEARBEARB8Pkbv/zndPD8/AsvmUO9ycnJCV25csX81ZtchjoKjSNy0VqkfVuLtG9zkDFQOCsiO0InkD5pH9LWjTH66tuybFsQBEEQBEEQBEEQaiHBsyAIgiAIgiAIgiDUQIJnQRAEQRAEQRAEQaiBBM+CIAiCIAiCIAiCUAMJngVBEARBEARBEAShBhI8C4IgCIIgCIIgCEINJHgWBEEQBEEQBEEQhBpI8CwIgiAIgiAIgiAINZDgWRAEQRAEQRAEQRBqIMGzIAiCIAiCIAiCINRAgmdBEARBEARBEARBqME73vhS4Zvve+WD5k9BEARBEARBEARBEHz6Pv6mDp6ff+Elc6g3uXLlCp2cnJi/epPLUEehcUQuWou0b2uR9m0OMgYKZ0VkR+gE0iftQ9q6MUZffVuWbQuCIAiCIAiCIAhCLc4RPJ/Sg+krKmNxZfoB/9UI5rurRfN3m3i6xtc7RQ+emb89iqtRPdR71Cv2WqM2X+3lQfXLFVp7av4WWoYv562hSGvQl7p027Mh5tURGXj2gKZ6Rv5M+7tXHXbLr39PtUVnOH04xe0eHmd6CiMrvv7WVe9ekTEzbp3bj6nil/QuVcaJc7cHxpUL5q8l1Ll5tsSMtS0Y+/U1dm97x67vsupaS32+FmHsa7eOE2cPnp8VKL9DNP/ohE42JyllDnc1w3N0cnKPJvvM39W4uk77J1w395qjEfORIAhJjNAc9OV2LW3BYD5Es+Tp2aN5Wr4mgdvZgUM6Qct3tp3d2r6zTBO1HJu+SbrHZeeGzd+C0ADKB3DylqfZxQvoqJ2B4t6yfrNSOF/g0Ihfchk4Z3ucPlygWfZNBaGCS6hrxVX2Ccz7C4Xqq+71S84YPLOTNjpLeX4HZ3fqIQ+VsSy056zFjpdlfA43os+8zEhs5reZGZNY1smf9VqjgipQC/Od1bVodmf1Qew8ut42q+qX05/YTOKU+o6+Fn0sXi5+ff7xFrZPVQJ193/bZIn0q6yNa7aXYS86hw2g6m+vOMEypv/XVu1nfL6H0W8qObbXPM3XbK/T1tPUcWpaf19dY4Lcx37fr2ewnboDX650WwBfDrlN/JnrYF3KZxTM3+blzvt0Szk489Ne4o2N5fYdtimbOH+yDoHk/i3rn6T29o5P3S+Zg5pw31m5YFnE8bbpXf2cPtzgQXKetr3ExchtBDVI/Nnrj/edL8OXKmlh68zy5eTAyXySDGiZnOLvWJ2fevggks8ymSjdt+ewcheWobDeXUzS/TminRJpjfJtB78SbPWFhOVnY4Uod2eecqx1hTLdiY3RXr2Dx5UuRrapqv1JGn87Qrh/9fWbscLU4YFXp7idKVTa97L2COqHKRON5ZG9H7qlPFOaMOcIjhXtwLextq1Un4XtQDUqbQkT8z38do2PuZV23fZb3K6Vn1+1u+8HufJ+n0zR1pE52DKS6hOWP5B4fTHZ8r9f5tuU/WbQLpv+9f2NsKwlXaf5jYCPo89jr9OWM99rwOfEsQm2U7QzS0PmWMwGBWRPn6cO/Q1eh6lr0E7V01/8suVj+lNWP++7PsEyFf1k2tPqnyqXcG2BPracMXgeobkn6zxo6KzzveslFUwPmgy0mu1QDcAXiSDbzIRUZKV3BmkGGetH86pzt3BhfLETK+wA4jh+wx5vMjo7maP1J7jmLBEEzEcJW6AxAZfN8vXt3+UWWJml0rS5VjbYG76SmXLqs5UJr+HzNIjvIAP2DMZ+UNf3ZJvmuZxSVBtcoE3RPisbWpHa1D6J2Dr5fQYlurZMubv7UT+PRkpdb3stU1Z9H+WWr3nfr6e9fLiNksvk6aB/SR/n97O7aTXziaAtf2sr+s2dA0ovmu9zPRf83xjH95ER0/IdkvstDOBK7vE7tp5cnttJz9Ts0/pV/v37nlx1EGVkD80sMPcN3RpS8pqsJ/XUBQZpgpbtKg6Wmbw97/EBfz5P2bKsYtz5ZkI6VLV/Gb9/gteoj+v+OaGl/gOVCFSoc+e979g+NVib1YWrbUpHXIuraUqbv4XaWJsT0/8aMpA/TNOS+06e0tAN3x4qrJ0x9jA07rEMUYLeXUxOqbAbyWBxdYhthzdWhWz1BeX0cZ57OEe5Gzcpd5XlaC+yfdphNTbTs1tJx2PUsj+h8bdDqLHBrhzyfRQF29cxU09+P3s0Y+rDn6jkqCFk3z2SxiWN1THvvMNz2s9AErFef6FT1D2WhGwJj62Ls0TO57LtGh9zK30pooLSS8ihTapO0IE5z/5divtu1g8y/aj8GJZRBGRaRpcofehGzxaQXJ9E+1Ln9SX7Nsl+SxDrb1CCrCX58pYaOhCHfZcGfM7U9XtKNvRKWu5v1Tb1xA+19DfpOgy2Tr6dOk9Mo+ziefx+xvmF5m+uGcZxrJKsOVZVfLdZ+zw/LaCp1Sw0Ak2d6WAH+NkxKRd5TM+EqFkQ31Dcyeql0H1proZBTdVnqYCAFYG3OdxstKOZo6xavjFCWQiYj1Uc+/KXodrrVuQojXP0ZWhQH4hw9dOfRQOs+Q6jl36x4KkgXS+vyB9x6GDaRLWpCkyX9FKTNrVPIoE+047EPM1c1z07ckMrnMvG19leVk5SGdVaXja/jvbyqF6GHZ4XvaFqIKPkUQVtPk422BFkg5HfLTjDMJgx30+Se/MdYgVUv8+ytKTaRi9pzu6hPJSVD3UFxullo6USRkauDo5Pq+hJHXWxt3bY2eXhm9r4eo5mTQI6VEsGXP8kXWOZXUq9yDKh3hnZ4f66qYxkiianYfzzVLCDnQSnPYWVAV//a8lAbjwbjWEslRllz7wxTBHZGZ0QCslQst5dJKz90zrGDoga44tUYHuYu3vT6O8kzSDZ4NnRi4vptzszPCanKDvO/es5xDGb6d0SkXTcp6b9CYy/nQKO+cki0QL6HsnIGPHEaK4fEp+izID+25HoI4Fa+mF1LHBeQ62xoqPUPZaEbAnLxuYJLdGC0j3leyjY/+Bxztoo1Uf+LYfclrMoq2SX/zVjNIJDnEfP2h/QsbNVVl4jfy2e+Dby3zKS6pNsXw7rvL5E36ZBv8X6G4myluTLW6rqQBkN+5xl1B0/1NDfxOswhOxUUjvUcU316HGtMpFfaDC+P3+z5lhV8V2mOcGzQWd67MtT2AbQ0+4TRDiXynpcBkzGw74QqJvBVWWNGBg3ZEIuZ/uUE2ivCuop0xwq5V4PbCq7BjD4IytnlrlMELKDOovXVbDB9RNG90LG13LOulQmSDR6QKvHqaijf7u9vZtMxay9cDFoRO+6EG3/jH5dhuSSca61o2oDjjzlH1/8tEAjqKWWo3nK2ZUXreLc+tE+X6B9FNXS06HdnGob6yfWQ44DxvLZT7tqUL8u1z3BzaV+X/481O1z6r8czY4fGor5zh3TdJff35zgeTjLl8yusMqYYMkDG1Uscy7LpOhGii8hKUc5z3w2lfV4VqqSGTkf8dkAnXloOvZBImUzXT4jY6rldBBhnH21bOOpvjfj+AaEAMswNO1qn0bQM3fREuzifWSP4pmrenBykrCkFyS2l0c9ZWriZCOe+YyRJPdmYJs6vqkU2A1spr+0HOjzdgcmO2vrbGQPg2uintRTl76sXtJol+nZZTv4js3m+kvK1PId/ty/DzqgQ3X3b9I1ltsltXJCo87NA49eNsR9urnMzpvNTnc3qeszLI/LNOHdYqLvJUIbm6yxCa61jgkhmiMDUTAVn+HwSda7iwc7b4vs+MBpU/KnZ3LcUnjWU3WPcMiOXjDs+BY5aTpxYGcqym2mGgt4bEw67nNx7M8pHR/yP+bazmxPqvpI59ePpvgCZ8XMtOmZ8vOM9wFbQrq9tD6ZvlDoGUg3a1beZpiR3FxieTW3MJkx2pZX40Ug6PKJJ77N6oCWkVSfZPsyUOf1Jfo21fyWKiTKmrnmcl/eEdAB3cZ5KuHazHFFoz5nGU2LHxKvowoJ7VDPNdWjx2fX9bONVU2aeR6hObWGHZlYs3RLRfzm3miXoSVzn0UydsmvmnrfPPCMT3NJXTcGZBTOZYGoXNjgBOAa3OsMTg2f0y1FuLNdsURLMWwekoSlDH45ddxeX7QMo13t0xDIKHH/26U/+r6uxlcezFNBfV/f85Xw/aT28qmnTC2uDlJpMd72lVSR+/L2WOSA0AWMOO8GHfB7OjzWBrqdlMs2G72YPnhLahL1pK66IBvKRtL+njrvvukLfAan0y6z0Z8jkxnrq5AO1du/idfo99sVWjgaVHqk4HPr+6rwHX8Z6kWA62Xu9bF9q+8l0rpkBxe09xbXWUigKTKQo8Eju6TS6L/5xCdJ7y4kPA4s4X5Tlj84LSO3Pf02enrRZtUrMU62XZaoiAd5+j5Db+w29U46HuPC2B+232pJubbtQ7uQeOPsN0LIvnucRT9scDcBn62vCb7AWbGBKfyAaR47Mf6ciYAtYV1TS0uVjzHELQ/5Q2K0csydf1Q+k2z6Tukpv7dJL//8pmQQf/y9skClATd6toDk+iTalzqvLzkGqPzNyG+pgv+7vqyp457el/uT/J1KH8cEpzjX/ZJbMm99y7p9Tv5EJwlQlzWipsUPSddRhYR2qCumSWpbn3rKJHCWseodb3yp8M3nX3jJ/NmbQJiQjWkfyALpwbFdS4TaX8deBVk0NgZ4EMqFCZqSOa9cYLWITnrpAQuZafUAl8S20bKPB5Ccz1Fuvw6dBdG71iLt2xwuQzuKrLQGkR2hE7S6Txr3bZpN9/g4XSn/mKm+duD6p5sYffXt5t7zLAhCb6GXAttsYa3MtBkMKHrAiSAIgiAIQjfRmG8jtBUVOHf3LXNq5vl9r3zQ/CkIgiAIgiAIgiAIgk/fx9+UZdu9wmWoo9A4IhetRdq3tUj7NgcZA4WzIrIjdALpk/Yhbd0YsmxbEARBEARBEARBEOqgavCMG+ijR32bx5Ff0S//EeDFVf9J1Cjn/437IO33ysthC5WE85pHjavj7hHoydegwDr5Go/ZbxZq2y13XX4do+vVW3PZ4+VP68Z3yo8JzQZ9UCEnDiuDwtkIy73ekiB+TG+Z5L90u4d0JKlszCY4PY/bBH287LrwcroqXFpYLs+7v6ZQP8721mj304cPesgGn2VMuXjjUKWNPqsvw7a6GT5b23U7qc/4+EN7tMjvz3pNfJ5V0y487q2dq27hNq7uGwnJoO8j2a8es/i6Iv5+NeI2xWsrtGvMf9Pt32nZTQie9cVhz1XL6cMFyo/bjdS3idz+rKd0TPambjiteGy5+kBRXDWbX+N7T3KUX7RKXKLSQJbSwfPy7y+azff5+DbprS+Sr4FBA+MG83bAhhrbKTmwD9tVbyN/8+Q87F8WbSLuPzEO7YsHKwnCBSYo92wDNtPu2DZtKCM4ctvqAb8ezbNe6O2TQjoSLgubUKIZc3x/PG/2QsX+mdiOyZRXT8rElk3mb35t36ljGwWh9xmeO+cT4IUzUbXdsQ8rdh6/zGBrnMa3duwsOVo3/pl6PRrU+wZ3im7R7WcFyh+Z90/5vXnbOCnK9pf0HsR97CcfmX2OhY4TjkPCMQtihQn+S5WNxT+CDwJn1062rUZDyQbETgtEi2VbmnaAcPDMSo+Lw55ZFuxRGBknvXG5go1FqV9vJn368JiyJ9gvS38E4Ai7SvZlov3K8BvYDDx4XuxXFz1lDfuTYt+vxGuwgvsI+4W1Gg4OrhFtY48zCzb2tnvCuYyJ3rhe7zXHLy9zopVvO9ZOQi2gNOVZKSRr7LErUeaZDZYtt2UHsqSywtkJyT3r9cE40ZZp5wmaiW8zgCTXXtbYhGQdUfhl4ZQMpOnYyMDQbo5uquMcwNs9AvlVno1Edr0wdtEcU6EluNkptgXeTIxbOeXPHDhZQtmpwIqHECi7xq+yssHzatm0x6w9iq3E6PBqidhMgKkLrm+K28Met3UJlXW4dvdtuK4zxsLZHdZf9Z0es9FuHOKXaxOvDVYhKziOY3oiIKl9Lw6evkB+a7YB+4HuWDQZgnbQdfdlJvKtKo4lyFh0DrSrPe5NupyTgpN7G0DNUn5lgq/lN9lPXFb77q49xe9zX8fKMjG74Nkg006pDFH+sXpHGQ7DVSBdVr8kvYodc23MuP5ozDeq11apfmO51se5nq6Otu8uPo3ELKfHBzTPcY6iL8slUE6IU6QCtgjzJzj6JuleRUIOMo3AuTu2rgoHz8OTVS4OFRii0rR2SE8flyhttqVJXZ+s4qRCQTcobR4FX9wjysYyB/HzlpM/8kUuXra4ivftaFD8LtfhSfwaoSDYRD2eXYrPiPmZqKGjGVa+tP6yUBfKyRowmSmrVNyeWdO+J0/WiXaRnWU5Q3JDHV+i9KHJ/QbLCuchLPesq7dKrq2d3BuK9/OUu2G1J0FHDPGyzAr35aIui5nnBQziCOCxT6I6R9lqFH63ZYNsQajB6bMMLRlZxIqH5T0jSTtkZhT2ad05sQnsHPAYp8+xPTCrVkcEz8tO5cKtQSP72zR4a0s5mtGxSn1oL3yNY+aay+qdH5iJ16VK2RgqARbNLsABTV1fovWrbAOwYqSnbDTGIexRqutj7VVs1mqMgqvPKtu3G4m2+FEvjLnW+d0Z1CuEbtOZ28ASGveDvoAh9llsPMjT4LS+ju07y1Roil7xlRu51+dM0eTiOuV4PLp3/QM0x/2H8VEniqOy+3cPaAPt8JivqXxlIoIGu8/wcJYGjd87MjZIJehUQIdCx8JtfEbfqEFbtUxZdQz1nFgkZfv273IPqERAL9FIzGI5oOMeSSI0DUyADGS0zPv0pb3J0GPV1v6q5k7T4APDEAD7U+ZYckWUqRW0quxTgRXUBrjINKQpCh/Lz1tJrt+WLi/L51phhcXs1eisnglrVcYeRmrHDBpYIq4yjGUz4phd30F2CUtHI6VK9+dUJqq4p793RS1vx7l8Z1+ohsvgDc/pJcLD/LLZXPQ9PlNLia1spSg7btQvVFY4F2G5Z129e7NC7jXQe3/fvrCOaMrLMneiWexUZlAPTlYWFMgCe4OTmgXXq2IEoRap4TQV7GyNfwuQ22syRZkBdSQZb19Kt2Iq6bx3skb2PT1wx8r1od2M8H92BinutEQzKda5SS4bgwODGXaydbnADFev2WhPFqy9Kh2xfbR74HNw5K1fc1S2bzdStmzbs+Pkxl8m2AYcNGaqt4FPxbjPhI5Z3Gex8WDeTdZAr5pDI+eMyqZe5LLcDthnmOyqq+DM7AiHoQXtH3I7ERIpIR0KHAu28Xl8owZsVdT+LCVm/EXf9xaNxCw+g7XjpcsGfMfD48pEKSZGzNto4mSGSl2y9L3+4LkiAAZsCAciBQqCZSIq++QZV1Zisk5t8LxQ8Ch7jYBTGYJgWe/+xifrlMM9mGXGtGkgK2h/6xGbI5VhTKkla26GgB32ZRgVXKu3TAlJBgya0f2cWN6OAchrF6EqzpE0bXv4EEtyTXui7/GZF8QBDCIAy4kqygrnIij3yJYjM60OQu69Qbw8mE3QEUV5WSx5OtT3TwPYBAxO6FfnhCO5xT1rnbXi3kF0PkHwcTZC3zoAiqvaGXL2/SzsVI5bied1DgNmMNh5/iq/XTHOMhNzgNsNdHNPzyDpscocD9FA2Wj8MzNY5jjoORvtyYJapcP2Kt3vzcDBZup3vUuwDbykkLrtxhIlPu24DcrH/a8Fjpm/FNFsPev4TrcEK9FsN2acSQVWnu+acM/4yBiZ70WBdEiHyo/9YaiNz+MbdbOtajeQuTpjFiQNnDwq/8QmL4QIlu2BsklPtDFWrdiVh27ihHVmutS6CdIGqDt4Lt5HRiq6t1Ddz8DGH/ctJ8OKtsnDg7svkl8Ieryl3sHzsss8uYgbxvUx3EiO7E64bOcZuY3lQeaa7PIlDrSXxvOm3kOUH1/yFE1oFCzvy+0O6TYe5RBpcZIGYJhsuy+WaBCDJZTrETkZ2TjUQ4EyYhVlhfMQlPtY+w+pJXQ2MwvnKTbAVtGRirLlNuFwnZau62Wf5XKhv4WgSLK8QggerO/YcWSBxxQNAhu3FHWPaD6UDa/FVbYsi0ZGzbgVPG9I9t/Lx7DUUR2Lvt8R4GirFVK4lgUqDbCDbBzDCuotq5xOXbcrVybowK1QQV+sUamnbDTsIAdEpt/xjIYKewVZMKV7kzraYNFqH2ZCIz1x43Zo3E+0+br8+qGVRTystgOTE9AF49zjnuephwj3uaf3dN1sOyBo1dfJLxsolCcD7IwzowLp3wjoUECvPhBs48Z8I5cc73Zb1WYaiVmwMgJL2lW5MlkVIpD8ce1k2+qJn5zwsG3a4QD6HW98qfDN5194yfzZm6AzkFXrZS5DHYXGEbloLdK+raWp7YuHCh3fjG41aDpFWps+ppv2nsUuQsbA7gAB0wItaRnEqjzM2LdqpVyTENk5L5it3aLMhXuieme5DHLXLUhbN8boq283es+zIAiCIFwwEKhcM7f/CEKHwH2ug7fMjKC/LFEQBEG4MEjwLAiCIPQ2eLDQSfLDXZrDCM114ayz0E2wjLAcQhbdE5aFHuci7uMtCEI11LLt973yQfOnIAiCIAiCIAiCIAg+fR9/U+557hXkngUhhMhFa5H2bS3Svs1BxkDhrIjsCJ1A+qR9SFs3htzzLAiCIAhdBp50i6eJnj5cC+z/KgiCIAhCp6gaPMf2cVVPDDSPEedXdBzl/A3ezT5w7m9sJm6/V14Oj3hPOK//+H33SPLka1DgoTBle/61CrXNgLsuv47R9ca2IqjYBB/fKT8mNBv0QYWcOKwMCs3El3u3B3OCHYjpSFDPPR2BftuyTs8TygqCAk/APuOY8PRBnfLUiB2pp2yRCrRN+/0bNHSLLuB2a34di/TA2YB6Oct3mkV07dXHjk5dI1/fw/okrZWo5I61xeeyvefQTx88Sb+t/ZGkx37/nEdG+Dyrpl3YF147V93CbVxdvoXaQAZqxSyWsrICE9YP6xM2W5+bLe8JwbPu6IkV8ydz+nCB8uP7amofG7HTNWs4TumYcpRVAzwc5CGa3VEfKIqr2GvPbsCeo/yiVeISlQaylA6el39/Eft86e9hTy9UOvkaGAjutWXzR4thQz10y+6dx2AT+qvrtK+ui19m6wlsHD9v6x57OAjad4LadLWC0EaKtLWbM7qwTYO3tpSOBu0A6+yCKxvpOT3divQc+4TeV2egNewlbcruj+dpAcY1WFYQzk9xz7PxbWWE5ngMSV2/x3J9ER805D0g6WnB7aNdN2f5TgtA+yc+YK5T1/iMf/fIvO8oOVo3/llX2N7huRZuQdcAfv+cS0ZSlO0vUQEJiT72k48Kxm8WuoXiqh/rhGMWS7ysoEjQjxLrD2xLV+hzFcLBM1eKFlkA7pi/GQwkUWXSlL5q3rKxKPVn1RNGTx8eU/Zkn9btZww2v3YDUF+GBs1b9Rtj2kGoPC82abcBOZ9jbJ4Ojk+Tr8EK7qN1/larMU78o3nzN/OsRPmdWbOJvM3AntLxIUWbz3uZKJ0E2I61k1ALndCJZ7mRrLHHvEyVm6Gcoi3naCSUFZpM+InDQTvQN0n3vLLpfqO9QUcIT6mNAolUxliSbnGahA4AmzBFU7ALambF13F/JqxEW9Z2uBkYv6xNwvIxnA/HfnaeJlbyNDuqPwuvkIhTcLNxUWI5slmBWQd/psJ97l0DXsHrjcYY//znsWmx+tnrx2weXwuO6aRWZFfXVk0WPzbjh2vH9eK6cA7++9oy5W8NqbL+b0TfKbfr8e9Ev8mvwOxZK3EzFf41qLZJrldi2xliq/nQ/6697Pf9vjWy7c7LxxZnKb8yodsvKD/+uToxzkEGjPxCT4L9513jKvuB7phpO/xl2z5Wn5Dcm2NODuP1j85R3pbNIa7z/Duuf37TkxH8/hrrTNnvx/rP1MPJBMY4ovxj9Y4yHGaoQLqsfqE6Vxxzbcy4/mjMNwrpbkzujU1U/bZqf4Pr6epo+65H4Hac4BA5ipHCMYuiomzvgv63dg8va+sqZaXMzhtQTo+7kJe4XEe6HLAT0H/vd50MB+W9OYSD5+HJKlso4OKHqDStHdnTxyVKv6id19T1SefcVgIF3aD0onaWi3tE2VhWN37ecvJHJfMOxMsiq1Oabse2D/hdrsOT+DWeHh9Q7q6Z/XKz66xMO/NupiyaVVujoaMZdvjT+stCXSDhMDuwHc9yc3tmTfuePFkn2kV2FkppZyiXKH1oclvBskKr0MZygg7u3izT57gdsKA89CKa6YGusdEL7YUKg7iZpiUXNFcpK/Q8uUXW6c1JKq1C3srtMLNzwPKmdX97YJa22BbEV0KkacM69juDNINjn1pmZweza2zr2QFcuDVYactjLBON6c/37x7QBg/eMZtVvlKKOX2WoSVzzpNH87S8Zz7d4TqpGYx9WjdOM663om6Y5XLnP0+mnkerzJI7z/adZSqY+uUHZtSxueEEu1qVEZrjemFsnOuLrzKZObKBZ7ldp+g76jdZp81sjltt0maKe9E16JUAXr2G62k7/TeAU237uXh/lganJ4liK+pmqGQSNnwG/tw/b4omF9cpd2db9XVQfpomE7WAg6sdVfWCbJgVd06HblOw/2IrCMeU5iQSGveDvoAhWefK21IdPCeRzlf2zwc8GYmXdfbhMV9T+cpEP6E8nKVB4/eOjA1SSQXXgf4NHAu38Rl9o5j9M6vJqtjEZcqqY6jnxCIpGd2/yz2gEgE9ABIC7H/sW3lPQMUsdZbtJazdi2xSSFZ8G2q+yGCCVI+79yj7uPr4WU6ezPhSKxZoEg0+MAyO74KaldYVPqXCbh33ZEGArhRYQW2AW6TCYZqi8LH8vJXk+m3p8rJ8rhVWWMzwjs7qGeCEmYFzAyO1YwaNa2yOTAY4NiOOWbUdZKHiM2WYVUMmqrinv3dFLW+PZjaE2syPmdbEnq0wRsP8stlc9D0+U0vorWylKDtuZzMDZYWWAZ2A0VuihSjQqLADGszGLHBJe7uDBks/tdGjxUhHVFC+x4NzbHY7XFa4DAx640+OciaRG9lh5mr5jMBhfFWQGjdsWX9c8riTrbDlceZdMjj1Itsc4/Q6m6VWSh3QsTf7khpOU8Fm1jGeWNz1pigzoI4wgbqxoz3Djoj6Pr9CM0b1kaKRvoKbBfNv13LjbpJdrZfY6iz9G7YNK+y6j9d3WG0ST6K3h5EbOcq7QLHcvtTRdj7DN2n9sMDngN+iZQa3d2EGRp8ft3NZOYlkyq3K8QjKT9NkohZly7b92wt8HQr0H+o7mDGyzAGit4YvSEg+qslMWOeqt+XZaOSclfYhdX2GAwLTf8GZ2REOQyErDLcTIRAJ9W/gWLCNz+MbOfvn+bUJNjFqf5aScb0q1a0U6wGQ9LC2DPq+fC08qw79r7dsL+H6vy/NVsJQc/wME9blMFbW1PiIf887ZtWg/uA56PiyIRyIGiUIZolU9skzrlwpshUNnhcVtstU2LnmgFMZgmBZKLMx4E/WKYd7j8sH4GaBrKD9rUdsjkwGOLYU62mBliEouFZvmRKSDHB+sHxVDzZY3m5mNlQZoRZO4UzbHnIgVTDZXNX3+Mx3mhkMIgBBV0VZofnE5D5q/6Ad4FKYMUa/+DMk6KvI6eO+NPcKhYLspLLCZYQdFTu74Q+cnj3QY8mACkqj51HgVcMOrxgnlok5po5oYIfDRCZwcrPJSjb9QB/yrJPA6vcxnlQlXLdoPImeL9A4RVpTuqnPFVxemGBXgQtocV36XSVwpPzngvDL6ny5XbfarNiJ/AC1wisUkLYab9y3s4YRdbRdDDhxB1RYNX4CH4EziRkY2y7x56MkkyQ/zZGJJhHov5jzHJOZSId8+SqXj68Fjvk9Uk3nOkc02x3ZB893TbhnfGSMzPeiQDrUv+XH/jDUxufxjQ6PTRtjzOYA8Kv8tqZN7E3sxABe0Pf5R9DXcMwSLqvLXCrOKCthXQ7biQqqjFnNoO7gGUuM8mwAJkx2S2VgzX3LybCibS6zAY0yzrjv5dBb6h08Lw8wk4tRthf3C2CWOVy284zcxpICc012+RIPuEvjeVPvIcqPL11OpWkSqetLlNs12fnRPOUWJ2kgMxjNHi2WaBAKhgHpETkZ2TjUQwEyn5VlhaYTk3uru2E7cPp0Sz1Ew/ULv5CEivX1FSyv5cCGnaSNFXbU3QyNzrAHy5pLES4XsMODVj6MjVCjzFUOeIzM2LEkZrPxKg/aFObeK2KZxhLEsnOUk1/Unw/t5tQtBZDN9UM7I1Qpm+l+ipa+7rFj5RzUSoJ1Q+Cgzq3PX3mLRL3A8Yt0s0De/XoOtqtY3m7KWLuqZrXUSio+vhh2TqCzU4+zMbuAV4Wue32mvvMwzbacgwrTRrZd243/ZOmhW4M0Y65BX+O31dF2cTDzeLAS3WISt2F41fBr0N6rxbD8NE0mmgHG4sr+i9XXyQySClF93LgdkI+BBJmx5avpXFsw/QO0jCDcnyfa03Wz7aBWUanr5Je95ag8GWBnnBkVSP9GoH8Dff6BYBs35hu5SaGQL/ve+mzi5SEcswgM5CdBVrR+hO1lWJfDdiJMWN6bxTve+FLhm8+/8JL5szdBwyHz08tchjoKjSNy0VqkfVuLtG9zaHY7wvHfylR5GnUHEFlpDZehXVtbR8zWblHGPoFeqAvR5/Yhbd0Yo6++3eg9z4IgCIIgCIIgCIJw+ZDgWRAEQRCEusG9fLIsURDqAQ+0lFlnQegl1LLt973yQfOnIAiCIAiCIAiCIAg+fR9/U+557hXkngUhhMhFa5H2bS3Svs1BxkDhrIjsCJ1A+qR9SFs3htzzLAiCIAiCIAiCIAh1UDV4ju1frJ4YqB/5jVd0HOX8jb/NPnDu7yKtme/EN4JHOWzJkHBe//H75rH/1a5Bgb1kg1uOtJDyrQVwDfa63XH/uv02EITeI7YFh9Nd3w5UbsWivlNLz33dcmUt+jsVNkEQHJCRZm9v2IpzdhboYmf0iG2EGjPtvxeRs8jDBZYh3yabV8dsMF+L3vamdfKTpBunDx+Y/uO+fHj2niyuWjng86yG63Au/YS/WjF24nfFL60f6GtA3s8SswgOf0vAWJxUIbO6TTvdlgnBs764iRXzJ3P6cIHy43Yjf+yRGSn5MeUoq/YwhoM8pPZutRRXsT+X3YA9R/lFaxBKVBrIUjp4Xv79xTzlnpjNxWlCNVTyNTBo4GvL5o82gYFjFHtPW7j+2OdZXd8J7Y/naQHG/OlWdN0Jm+ELQk/Aeriwm6N9owOR7m44O7B/94A2/L39WI+GbkVaFNZztgmbVrf2af1wIzbYF1fjdkcQKpEH9wjdyMWWy9xda6utvb5sgdgpFXaxMzLzrED5I/32LKi9nFVQkKJsf4kKEtB2HYn+SaMxi+BA4Iz9n50dQaw4GrIjiE0XiBZPOv7AynDw/LSgLm77jvmbwdM17123W9GnKX3VvGVjUerPsqpDUI4pC8fWfsaM3PYq2ZehQfNW/cbYSMJ5sUm7DchhUObp4Pg0+Rqs4D5a52+1C/7N4yx3sv+bIzR3Eg2C2HxeMTznXbdQHWSN1/ilM1DIJLuMlMk+xWY27Swmss7T0XG38brLjE/R2qrN2CLJY78flY1lvgLZWaEO+ibp3uaksgcg3a+1I/npvCbh9Gje/J1ka6o4mNzHMLy+vRKESjDwWufFtwF2kMbnkQ2wdsG3N86uBAmdM27PotVIfllzTf7MRaxsG/Ds5Jbn/Afr7sripa+9lk1ee4q2neK/+XM7u+zKVwm2/N+6aLPRwWv3ZGwVcoHjkVyiHf1xrNOzK40zQjfvEuUfo7a+PkV9HBpna8sP9Ijbxn6nXrlohfzsRee0AdLszjJNTL9Gry3OUn5lQukK6rTGfeyXjbeJ1SmtG6p9+tJ0sKfbJJWx7ci4enj6GbMX5vuhY56uTd03QT4TtfkasTeuKbNBlfIX6tN4naJ6snx7vpv7vYumx2U0J2YRIopUOFyn/duedwc/smKiETKFwPkeTZp27iTh4Hl4ssrFoQJDVJrWjuzp4xKlX9TCkbo+GXZuFVDgDUovase6uEeUjTnT8fOWkz+KlL68LGadStPtblB25q8n11YZu800LTnFwTWz4bh2QOs3qnxPINo5YDnRmbrBW0NUGNPv51cKLEWnVMosuQzV9p1lk6llGWHjpWY8n6wT7Ra4JMucWwmwROlDM7vJ5bPm+35ZpcD2uK/IwpnAYDl0NOMFzXoQH7o1SDNKL6ATbBOeJATF6vMym6CciCGaHZjR+o7BnvUsZngFoQZYEXVgZ8zsiijMGg1E2W/l9LB8+SspZo6GAg6lJnhOfODsGdurgVna4u/HV2SlaQMOJRwG9TtIQOdo3YyVrSfBTibUvbjHY5iZYTlRyeIqNpn1FMesDcihHTYnqZTUVjFwXdFvuZVcF4LwtcdmosaIQmvlbJudPJqnZRNIXSTspEF81m2GSqMIikPjbJ3ys8PjhvoO1SkXrZGfZcrqazX9k7q+xPo6T9ubH6WPLq5T7s62C5hcWfYzDjYTbIxKDBv/tS/LXsyx1oXhLA0qvzesn6eP8zRobciJ/n7omG9rlvoP9ErJmG5nicwq09NnGVpSx/gVkD+VKLDXb4Kb2LHY7CpLt/LdsFJsghYIfczv+Qp6Y0b97DGL4PHsmA4GMpVjXV/am5g8Vu3XTasLG3xgGCvxFX/KHMtViDK1glaVzSpwwGIDXBjQNKXVh6D8vJXk+m3p8rJ8Llb85WscmGIJ9c4sDXV41lBl2PbYaHozcNpAwpAs8bVb4yIEYcfRZvCI5k2SJZqBHOkruOyof2tBblyvgHArHKCUd7LGWKUoO25UcZiP2IyoW3Y/Qjd5cB0y55WZ5/OB2QU1WMaCWqzMgA5kqYBgAY7ETp5mR7m9ccuFydhrEmzC8Bx/n88xxjIAZ5SdBaXzRhaWL92SQeFs5Chnkr7KXuyUqMTB6wxNaP3nl5LFZyUnX9beYEYhTOCceO/ZMz0jcUj8Pz1m4bxq3DJllZPV5uw67ORVOx57djKh7iM3sKTOXLuaJaxik924DQY9XyGhrcrx2g5BWdwh7XIC11464prbenNwFK23iZgfMzYz5jxeHE6PD9S/pSO2zbeGjJxMcCh1QMfPQuNsnfLjZJSpVy5aID+N9E9UFkFxgo2JwfrnlmuPcOhdoGKCfqauz3CgatrRzAJXHjtlW5OjtG2DF1nv8Aa67QIW/h2zais1nOax2Xw/4TZIVyeMxWZ8d8eUn4Z+xnvruwGr7ynKDOgjF5vzxCxCDNj/Q5Mw8oGMmre0wu+4/VQSLphobT/1B88VATBgYzBgg5MEMFO0SLTkLWfGYE020AmeF4Yiyk4V95ZpMMOlg2WtQ84vLKG+Wjb932ZCQQOC6chIcpvJvZnngA2Rkifd51WX6kIp1Ww1QKLHZGy5P/RstpEZdRQDzz19LHBPrVAvcP6vqPaNlitpvXAzdnAG8K+baeMXlm3bjH1QzzEARUkn66BFfaZlYf5RG4MO4QLDjr1dEuk5p7jNSMsTVr1sUREOMsYUK6f88uU6TvictFM+lg0oB3LezRDhpWdwO7IsrSx4RdCjSKq7p7f6+QW/Wb9NdiS0VTle20Hn48F4lxO49nQ/19wtxS0EZ54vNkXauqUTBLhlJ34/tJbrynG2gTHdUq9cdFh+3MwtEsXKrw3YGF3CkXoxTSUjI+oe6GcJ+un7vm6Ja/mxEtuaPJVMG7iABLrtAhYE2OoNj9M6yNPfD6V2vOQhxunpB/Q1fhvNUMO/9ZNkPci5YxYhzghlB8omPdFu/irdO2alIeR7utTxCVJQd/BcvI8ZumWaMBkzlXE29y0nw87AJg8PXvYa9zsceku9g+flsHpyMcpu435GZGzCZbsI7vCNFR4cXbZVZxaxrCe3G2Vg6ZEs3Tg7MFKRPBVI31sShhXtERl5WaDSgMnYZgajWZ/FEg3C4LMkRffgecuChcZ4uqWW1rj25ReC5pHbWM5ljo3mKVdlSWpYz/2+vEJDuznvlghBaAzII24JicmjcnSszGFZ8U0a4UBxyZ8p41fSsu3gOfHBVbYwi/q7diyL6QNeGBfVvZNmJYY63q7xLa5bG4cmnZhQd/+eVX0Lxl9qwCZrEtsqBq6LAwDTHhdL58PXHvMF9jA3d/Hx/Z0ruDXviQ2Sfb8HL8hzaJxtZEwH9cpFO+UH45XR15UJt3Jtnmuj6lrNxqikmbdiqi9L6SPcSsYMZ4lYTkL66e4hxssEGqFjMVuzeaAnC2K6vcDjrQbJHWd/IJ8qwI6uL9anpk4DWLZ+aGfTe9+/7amYpUtAQgkPWdNtxC/IlrEjFQzP6bIdDqDf8caXCt98/oWXzJ+9CToDmbRe5jLUsXEwUCPr18FZnQ4jctFapH1bS3PbFzZgizJtfbIx26DpY7oZu4Wn/cgY2B0guMHKNDWDj1V5uL2rgyvl6kFk52ygr7cySQ/KFGpxGeSuW5C2bozRV99u9J5nQbhI4MmfBybrJ7PJgnB5QeDMNkCtXBGEzoB7Ut2Mu78sURAEQbgwyMxzjyCZIyGEyEVrkfZtLdK+zUHGQOGsiOwInUD6pH1IWzcGZp5V8Py+Vz5oDgmCIAiCIAiCIAiC4NP38Tdl5rlXkMyREELkorVI+7YWad/mIGOgcFZEdoROIH3SPqStG0PueRYEQRAEQRAEQRCEOqgaPMf2ZlUPXDGPEeeXv11HcdV7zL73WHuNvzVBeTk8tj3hvP4j/d0jyZOvQYGnV063eQNtXKf/m7gGe93uuH/dfhsIQu8R2y7D6a5vByq3a1DfqaXnvm5VbFOgv1NhEwTBARlp9lYhrThnZ4EudkaP8GRyjJn234vIWeThAsuQb5PNq2M2mK8FW4NGctR8knTj9OED03/clw/P3pPFVSsHfJ7VcB3OpZ/wVwNb/MR9eKE+oLe1Yha0rdUNaePGKLIulWtAs3Q7srlBfUrQE5+E4FkLxcSK+ZM5fbhA+XG74T32jYuU/JhylFVPMYaDPKT2ebUUV7Hvm9l0/UmO8ou24iUqDWQpHTwv//4i9vnS38OeXqhc8jUwqOy1ZfNHm8DAMYp93Cxc/2tE2+r6Tmh/PE8L6PynW9F1q43rq3eKIFxYWA8XdnO0b3Qg0t0NZwf27x7Qhm8UWY+GbkVaFNZztgmbVrf2af1wIzYQFVfjdkcQKknRZFu3qRKEerjYcpm7a221tdeXLUg4pcJuSb99VqD8kX57FkbGiArKkU9Rtr9EBQm2upa4zxGOWeDbYM9npRux+EeoyVPWJfM2YoTmmrztY+r62baTCwfPfNG0yAJwx/zN4AfU3oSKNKWvmrdsLEr9WVWZ04fHlIVjaz9jsPm1u7C+DA2at+o3xkYSzsuBtQvIYVD0pvmJ12AF99G63gC+LfBvHmdZIfzf5I5VewprUhlT2+E577qF6iCztMYvna1DJtll7kwmSM1S2gyfncVE1nk6Oq4z0Pq4PjZFa6s2w4Qkj/1+VDbKEPKrRtZJSKBvku55xi3dr7Uj2UCZhNOjefN3kq2p4mCaAcq3V4JQCdtsN8Pn2wDr7OPzyAZYu+DbG2dXgoTOGbdn0Wokv6y5Jn/mIla2DXh2cstz/oN1d2Xx0tdeyyavPUXbTvHf/LmqV6itAvi/1c72aAbBa/dkbBVygeORXKId/XGsYkak68H2kET5x6itr09RH4fG2dryAz3itrHfqVcuWiE/e9E57aTO7M4yTUy/Rq8tzlJ+ZULpCuq0xn3sl423idUprRuqffrSdLCn2ySVse3IuHp4+hmzF+b7oWOerk3dN0E+E7X5GrE3rimzQZXyF+rTeJ2ierJ8e76b+72LpschuD/iPkc4Zjk9PqB5jnMUfVkugXIXCS2bYbtt9BSlPFmCnw25UPJv5QdyFdD15DGFf+faMuVvDZXJIOyAtZnmutx3tG2J/WbFNVeO4dF1hvUkiXDwPDxZZT9cXPQQlaa1I3v6uETpF7Wjm7o+GXZuFbiwDUovase6uEeUjTnT8fOWkz/yKxMviwxQafpem/fwZWf+enJtlTBspmnJBQG4Zu4Y2duxNjsHLCc6i409MQtj+v38SoGl6JRKmSWdyUOG786yydSyjLBpUjOeT9aJdgtcEgpoZyuXKH1o8lhcPmu+75ctHK67GdOT29JH5wVGaehoxguatXEaujVIM0ovoBNsE54kBMXq8zKboIyst2c3DCTr2b70l9AAWBF1YGfM7IwAZo0GzCwBv1QCh+XLX0kxc1Q+mEcEz4kPnD1jezUwS1v8/fiKrDRtYJBH4kn9DhLQOVo3Y2XrSbCTCXUv7vEYZmZYTlSyuIpNZj3FMWsDcmiHzUkqJbVVDFxX9FtuJdeFIHztsVU1Y0ShtXK2zU4ezdOyCaQuEnbSIL6CaIZKo9oprhxn65SfHR431HeoTrlojfwsU1Zfq+mf1PUl1td52t78KH10cZ1yd7Zd8teVZT/jYDPBxqjEsPFfVYB1rHVhOEuDyu8N6+fp4zwNWhtyor8fOubbmqX+Az2bF9PtLJFZZXr6LENL6hi/AvKnEgX2+s0qytix2IpQlm7lu2Gl2AQtEPqY3/MVXOgZ9Tp9jnjMYjmg4wtYd99uV4xbCbIUpO4xZYTmWP6wqiU86QJY1qf1d6zNQNLCymzx/ix/zmMoH6/09ysJ6kkVGnxgGCvxlQU1K60rhOUqRJlaQSuE7UqBK2ADXBjQNKXVh6D8vJXk+m3p8rJ8Lu6s5WscmGIJ9c4sDXV41lBlVvbYaMaWF8BAomOW+NqjjI0QgB1Hm8EjmjdJlmgGcqSv4LKj/q0FuXG9AsKtcHh2TAd3sibwSlF23KwRGOYjNiPqlt2P0E0eXIfMeWXm+XwgA6gGy9gAg5UZ0IEsFZTRZUdiJ0+zo9zeuOXCZOw1CTZheE4bwTGWATij7CwonTeysHzplgwKZyNHOZP0VfZip0QlDl5naELrP7+ULD4rOfmy9gYzCmEC58R7z57pGYlD4v/pMQvnVeOWnZFAwghy38ZkMOzkVTsee3Yyoe4jNzjYhc6q4xjLqthkN26DQc9XSGircry2Q1AWdki7lMC1l4645rbeHBxF620iopmqNLfSxQOzbaB0xLb51pCRkwkOpRA4hMbZOuXHyShTr1y0QH4a6Z+KWceQjYnB+ueWa49w6F2gYoJ+pq7PcKBq2tHMAlceO2Vbk6O0bYMXWe/wBro9kOGzAf4dM4OaGk7z2Gy+n3AbpKsTxmIzvrtjyk+zAaL13YDV9xRlBvSRi0q9Pkfc9ll8G3hRsNcMWQqMWwmyFKTuMaUeIvmyKxxp+CatH2KSDXGh+Tzo75eToCdVqD94rgiAATfcgA1OEsBM0SLRkrecGYM12UAneF4Yiig7VdxbpsEMlw6WtQ45v7CE+up6R2ehQkEDgunISHKbyb2Z54CDKiVPus+rLtWFU6ZmqwESPSZjy/2hZ7ONzKijGHju6WOBe2qFetErLNC+/q0K8eU07AzgXzfTxi8s27YZ+6CeI5iOjKp10KI+07Iw/6iNQYdwgWEHyC6J9JxT3Gak5QmrXraoCAcZY4qVU375ch0nfE7aKR/LBpQDOe9miPDSM7htD5xBWfCKoEeRVHdPb/XzC36zfpvsSGircry2g86HHdIuJXDt6X6uuVuKWwjOPF9sirR1SycI4NDG74fWcl05zjYwplvqlYsOy4+buUWiWPm1ARujSzhSL6apZGRE3QP9LEE/fd/XPUun/FiJbU2eAxz9DRW84F/o9qGZ4VaBg3rD47ROWOvvh1I7XvIQ4/T0A/oav41mqOHfXsQAsX7CPgf6ttzOp1TCJiQDFxOd+KgYtxJkCUSy4sldXWOK+V7DILl0QIVVtq1m4izJ34+DugX0pAp1B8+YAs+zqZ8wGQOVHTD3LSfDzsAmDw9epgHr5g+9pd7B83JFJhejTATuLcDsU7hsF8HGZGOFB0eXbdWZRSzrye1GGVh65CUShAaB8YnkqUD63pIwWPpBRl4WqDSg1UYZNJs9WyzRIAw+S1J0X4S3LFhojKdb6iEarn35haB55DaWc5ljo3nKVVmSGtZzvy+v0NBuzrslQhAaA/KIW0Ji8qiSNlbmsKz4JjsGk7Tkz5TxK2nZdvCc+OAqW5hF/V07lsX0AS+Mi+reSbMSQx1v1/gW162NQ+NeJNTdv2dV34LxlxqwyZrEtoqB6+IAwLTHxdL58LXHfIE9zJ1cfHx/5wpuzXtig2Tf78EL8hwaZxsZ00G9ctFO+cF4ZfR1ZcKtXJvn2qi6VrMx8JPtPc+gL0vpI7O0dDhLxHIS0k+1wtGey9wOGDoWszWbBzp4iOn2ggsUkNxx9gfyqYKi6PpifWrqNIBl64d2Nv2y+rfhmAWz83h4mN9eF8WChQiNW+p2o+lShSxh9pasbQjKnX6FxxTdSrAtlaszqoPfPVjRsq/+Dvr7lQT1pArveONLhW8+/8JL5s/eBI2BrEMvcxnq2DgYqDGD2cFZnQ4jctFapH1bS3PbFzZgizJtfbIx26DpY7rZ5CeENoqMgd0BghusTFOzLViVh9u7OrhSrh5Eds4G+norc7Yn+QqXQ+66hWa2NbY9O77R23726KtvN3rPsyBcJPDkzwOTsZXZZEG4vCBwZhugVq4IQmfAPaluxt3MDAqCIAgXC5l57hEkSyeEELloLdK+rUXatznIGCicFZEdoRNIn7QPaevGwMyzCp7f98oHzSFBEARBEARBEARBEHz6Pv6mzDz3CpI5EkKIXLQWad/WIu3bHGQMFM6KyI7QCaRP2oe0dWPIPc+CIAiCIAiCIAiCUAdVg+fY3qzqgSvmMd788rfrwNPVoj1xo8faa/ytCcrL4dH+Cef1H+lvHvtf7RoUeHolHp1u/jwL0SPTvWvFeSuupbGyGn397rr9svyyx/3HtlfUUaiL04cP9LYRQhdQRe6dvvq6nWQ/KrfuUVtzVOiZILQCyOh5to867/cvFtBNpfOs79W2G+kuWx31kbv+IEV6cOa9SM8DX9/D3pIg39+J234Dxotz+nXNIkkmIhk+X/8UV6194POstqDO8KsD42XchxeqAxsRyayTh2DMYsBnXSLD3UqiHaiQWd3+yba5PSQEz/riJlbMn8zpwwXKj9sN77EfVqTkx5SjrHqKMRzdIbXPq6W4in3f7AbVOcovWgEqUWkgS+ngefn3F/OUe6K/h33S0FDJ18Cgga8tmz/OCBtp7M8Wv1a+lk2ibfWbdlP/BssaiqvxtlGb9t+19TnRWxrweTf6vTpuisI1zikVdkM7uQmdIC73bCOuWR05of3xPC3ACX26Fek29ua8b6zLww1nPyo2z2ddGbpVayt7QRA6yvCc3popSPfa6tT1KtsMPS24/UzbyjP+3SPzvgeAwxz5O8b2j/qBHHyqA5ofyNNWh53lZDwZPmf/jIwRFVQ9U5TtL1FBAtquIxyHhGMWBZI/o7OdsRcXBNgBF0/hhZgqZgcs3M5qy1kTL3WQcPDMAwMubvuO+ZvBQBINgGlKXzVv2ViU+rNqD8vTh8eURdBoP2NGbnuV7MvQoHmrfmNsJOG82MTaBuQwKHrT/MRrsIL7aL3mxtbVQDA7z9ek6MvyuXAdKZoM7AvaSFmFCbb9Ni0d5dUm4CrTYrJSxT1szr1lsi8TRNMXe1P15hJaxQBlsseuqBkOGLfZnWWaQJtyu09NT6nPYMxi2S3JBLaeCrkfoTm177YGG9grEhzsZAfWBOGP5s3fglAD2IJVfnm2AqjVC9Ym2NUNKOsSNSxribYC9meN1pxdqe/7agaLr8X+rnW0YtfS4RUVIVuJ67P2FC973VXtqmuLGrYa7WTPYT7vJG6Wka/fXpPuX9ieZTV24/NE+fHGHQvayf3tZqP8dvHHNbS1f14+tshO+MqEbht/psv9TmUbdy18/RuH67Tk230eB/bvEuUfm+tGMDowQ3M3cnSw11l9cOzF9TaS4dfoNa9/wjoe6h/d16rf+9KunqmM1w5OBnFOI5ex/jffDx1jybF6NXU/SlRFcrtG7I1rgjLl419/2AeL6unZRbZl7vfK7cMFo5GYRbXDcZaDwfPFJr1NkQpsB/b9/e77JumeN4migUwhcO6OPaTDwfPwZJWLQwWGqDStHeDTxyVKv6gFKXV9Mhw4KqDAG5Re1MFgcY8oG3OK4+ctJ3/kZ6fjZTGzVZpuRYMe0LEyDowyXtX2Cq5SFgZpMx0XDq7D8WGO1k2mys3AUZ5mj1jZYlktAWAVw4Gdqbez/WpwjTJWMGqp60u0fnWetje1rGHwxWdzw9ySY7qcWhnAbS2Z3RYSlHsP6Al/HjlP0GseXCv2P9WD/9CtQZpRZVGObcmThESVICSQP2R5U/q/TYO3tliyTqmUWTI2AQnjZTPz0wjLzq5UrI6owjIZO8+O1QFWGLG+LLCM21UZsdmLtpNsK609PXk0T8vK0a/Trtay1VzXrPkMbUK7Be6dzoOEth2nT1Tib4TmuO5YNTY3nCw/0bij/wZwqnWb8Xnvz9Lg9CRRbCZrhkqjdszP8+f+eVM0uchO+J1t1XanzzJGlvll+yLQxl3NQKZicsAlVBnVRpikYGd6huIr+TqF01vT5pEMf5Q+6vVPrKzT8VD/YNLF+K9qIuZYy/1wlgaV34tkjV2ttUTpQz2HefqY5cOu6jzR3w8d81d/LvUfsFQxsDW7OdpX5bJEZpVpUKY8VKLAXr8JbmLHYj6rtYtYhTlBCwQ96SW/q56Yhfv2ungpVXl2TAcBO4BEUpRwOFZt7a/c7TQNPjAMTqw/ZY7lKkSZYDDpobJZBR4YbYCLTEOa0upDUH7eSnL9tnR5WT4XK/7yNXa6sTRiZ5aGmpaxH4zqNjynjcNYISGbm1wWBk1dFwcAWAq/fA0ZO89gMhgwtLJxQO0CB2S1vKD80pOjnEnUqFUMOyUqqUF1Qmc0+RXqm0h24PbYDG53KWIvEpZ78xmy0HvsWJgEhwY6gcF2ifXbTxphthrHs1RA1hoOyE6eZkcRaPMAbWdiBKEGuXG9Sgoylb0D25qikT6208Z++Lcq1c+8SwSnXuThPpboTaZy5RJzJ+scsXR/zsxedIJkWxldt3Vu6rSrtWz1MJ/XzlR10TLHkRtYQmiuy84sO5LlJxp3PIZvciBR4HPAb9FyE1uBdmWCQw475kdyBVkoJzWcZntorsveslbHeNhVHJpAMYjn26m25XayM7EdpFL+k6nQ8Zr9k/KWa7ONIpYVBBdXrb/Mn4/rX01dn+FA1fS/mQWuPKYnadLWz2T7pL79rMRBvA1YYAvVm7BMleHqBD/XJMbdsZjPGslv5LulKDOgj1xsGolZhKrAlw/ZAcioeUus+2hrlVx0t/52lvqD54oAGLAxGIgG+yCYXVokWvKWaiLTQNaJCZ4XhiLKThX3lmkww6WDZa1jzS8sjbhaNv3fAAhgXaYNDrq6DihJNGBiuTZoqOz1e/r6+IXlq/OPcP3xsqgjDNDImLdUQQUJXlB+6fEGT29Awa0Bun3tbFICkB8EbKrsfuz2AqH5hOWeZZ0dZJWF9vQUwXTkSLBdMQ54fJkj9zn+ZQfknjkvsuPkZfoFoRp5N5sJxxy2le2wGp8iObW41U5W7hKJZhuRMCLjNNX6fuX4wawgsNIgqFLjXidoxFY2ULaarYYNKNgZ7G5a5ujZm8qVBcnyEwbBzwEVVgu0bBIlCIz9Z5/YGcNaFFe1866+AztoqHs87DQIJAdmzYo7besxBmBVIlYY4XkXbqXZRahPgJCO1+qf1ItpKhk/R90D/cxMFKgj2i5oPN/XLXEtP1biYDVPJeNLu4AEgb8LWBBgqzeJMuXjEnrQ++kH9DV+G81QY+zucZ81GIegbwMxi1AHI5RlOxCb9EQb+ysQ79gVvyzf06UmTpCenbqDZyyfybOTMGEyZioDa+5bTuaUHmwuE5nZJ/U9VrZDb6l38Lw8wEwuRtle3DOJ7E64bBMZnlNL5dS5R/OUU0vMubMekfvNod2cXmbaSNkg8bK2jvHzztLgI1maahm5jcHGZOhtmytDptsQWfuDuzdNe0FOyuQDGa4Vm/VdoNIAm3o7qAjtgftrY4UDCzfToh0mLH3L7UazL2TkHn3uMulOzwThbOQGSrQQkzE4PdH4VCBzr9pwluatrVh0+e8E2Mnc09+Pxofa35/nX4vJNQcTSxycVYwJnaARW1lv2Rq2uoSEtNX1xRINwhFXn3cW/37u6NYRbcOmHn5bWH6qgNm/g5XIMYzbPrxq+DVoa3Ye0/2kV9/gOxxwziMYSmzj7gSB5MyRrjtm7dGmEyssD9Ov0e4u66tdaaYYoZsN3BbRXjx/w/QPqNDxYP9g+W+0Kguz1Okjk+RjO0Lct3NP0rRhvrdxqNNK0T3L/DKBRuhYbAzdxDN1GNia8byR2wUdUDNBmfKuLyarpk4DWLZ+aPU/Grt7lUZiFqE+YAdc3IMXZOtJQhLRxkgdDqDf8caXCt98/oWXzJ+9CToDmbRe5jLUUWgckYvWIu3bWpravk/XaOr4ZpNXKcCx3KJM0oMiE4CTu5Wp8jTnJiNjoHBWRHbORqt0vN22o1OIPrcPaevGGH317UbveRYEQRAEQRAEQRCEy4cEz4IgCELvM1xtv+GzgofcNb5MMXkLNkEQeoFW6bjYDkHoPGrZ9vte+aD5UxAEQRAEQRAEQRAEn76Pvyn3PPcKcs+CEELkorVI+7YWad/mIGOgcFZEdoROIH3SPqStG0PueRYEQRAEQRAEQRCEOqgaPMf2WFVPFbWPZvePo5z3mH3vsfYa7Gdsv1deDo94Tziv/0h/90jy5GtQYE/p6fNtoB1tS+FdK85bcS2NldXo63fX7Zfllz3ub41RUUehLk4fPqi+3YfQRqrIvdNXX7dr2w9/S45of2hBaB/xce88sIwHxi3IeCfsf6d+N2qHcHsIXUiZD4NXx3wWvhY9FrROfpJ0I/I3eBx7eHbPo7hqtynj86yG63Au/YRfHdjip3m27DJR5tcEYxYDPhObVoUi6w1aB21aY6u+JJz+n41G9SoheNZCgX33LKcPFyg/bjesx75xkZIfU46yaj8uOLpDNLujPlAUV7Hvm9l0/UmO8otWgEpUGshSOnhe/v1F7POlv4c9vVCp5GtgIJzXls0fZ4QbH/uzxa+Vr2WTaFv95j6tH25oI9NIWUNxNd42p8cHlLtr63OiHwLB593o9+q4KQrXOKdU2O2GHUIFEJd7thHXrI6c0P54nhZg8J5uRbr9aJBm72vNDtuPIm3t5mjf6Mjgra3IDgiCIAhtw/dhtF922QIxz994VqD8kX57FkbGiArKgU9Rtr9EBQlou5a4XxOOWRTs018Zxd7QQiJPWW/M2zPTkgeCJhMOnrkitMgCcMf8zeAJf9GFpSl91bxlY1Hqz7KqI7g9piyCRvsZg82v3ZMB+zI0aN6q3xgbSTgvB9YuIIdBmaeD49Pka7CC+2hdbwB/RhDMzvM1KfqyfC5cR/hpqo2UVZhg22/T0lGe8rfMhvMmK1Xcwyb2WyaLy4HD9KRqWwEgOWMye24WkvvezVjqWUgkWWZ3lmkCbcrtPjWtZylhzPxZ/fOuUhDqoELuR2juJNKRVMZYhATDF7YffI5N0QshGZVFXrWzYmtUdLMC1m74tsRbvQBHxx4PzNDgvPacPIIZQnaJj7HdcTMR1tb4sxP8qsh0u9+foi3rhMe+06LAJPS7TFTfhDZC25aVs8dQLrK9sNPcHrDVqi1CbRbA/62usNf+eBOSJb//1/ilj6Pt3Nij5Arn4c/deBRqs4R2bYc8nJkRunmXKP8YPRVqK24Zfww2OlZbfjx9wnfqlYtWyM9edE47qaP9jdfotUUOklYmjB/i2yCr65X+ij5m2qcvTQd7uk1SGduOjKtHDbsQlI1IPqfuR5MKUZt7tqyWfQr2abxOUT09+eY+c7/XFXp8Trg/4n5NOGZR7XCcpZMn54tNugUl01YmICtKfz3d9Ps3KEsoG/W/XvHAx64tq1jInrtQbheVPJWfC8e8MQX2wuidLYdXpGP2mJVbJqRXdRIOnocnadIIQSW4iCEqTWsH+PRxidIvajc2dX3SOcWVQIE3KL2ond7iHlE29rj9+HnLyR/5M4nxssgAlabvVbnms3JAx7FGHqLZgZmE36lSFkK0mab9237NTun4MEfrJlPlZuAoT7NHrGwui2uFR8As5IHNcttZSGR6B8wKAH4hAEtdX6L1q/O0bQKsPPcDPpsb5pYc0+XUygBua8nstpCg3HtAT/jzJRc0GwN37YDWb5R/J24/gDaSkImbVeyOcFlZJm1H9+8e0MQi0ZJ6bxxSHnyzyg7AlqwT7RZY+jCIs+wpm1y5cgjyvOBWPGSJzMqsoF3CBztkZiIiW3P6LKOuQ5V9NE/LxlHW4PftqowlSh/qXPzp4zwN2tUXJ60Y58K/G6/vCc0caecGCV47bp2oRNgplTJL5m8k3ZfN7Jlve/XfuUUuw3a5lNRmMfz+8MfIzqECJTvemBUyyf1/wPYK147VMUNUUGPPNs2vFLhmYNmNR5DRDVO3qM3C7dp6eTgfNiEaXyk4Q6VR+DJFKhyuO5k6UWNDnfKzM0gz6jtUp1y0Rn6sXbH6G/kbH6WPLnKQdGfbJYJdWbYxB1hFGPBXuMVoctP0o5qIOdbyM5ylQeX31m8XQsf81VtL/Qd6hi/BllW3T7pPy+U/dizms1r5hi2doAVCH/eA31XLrzHomIX79vol8E4aHut8RmiOP8cKFj1ORHbR2bxEGYvGFOsXYpJVlUPC4uq68i+TbFFw3KuTBh8Yxj92ZUHNSutKYrkKUaaW8YawXSmws2INPQxomtLqQ1B+3kpy/bZ0eVk+Fyv+8jV2urE0YmeWhkw28/wMRnUbntMNP1YwmYxyksvCoKnruqKXwi+rZU2ewWQw4Ghl44DaBQ6YXfeC8ktPjnImUaNmIXdKVOqbpBmaMNkjb3bEI5KdEf7PZpriS+iF5hOWe/MZAt89dixiM8jQCW3IaNFLGlXYD401kks8LLtsqCAY3MogJjeuV0dFKx34M5vd9pfUXbWzB3H7rHhWYsc3Y+R1hLJu1iFgl/DeO1dmAP/yu+E0FWwGvPw2o2fHdHDVjospyo7ruYrU9Rl2Fsx3/Kx5s0j4XVVfo7/4begwZlNGbnCAOGqvB3qaopE+Huu8cpbI9gJvjExqs3JcG/KVuTGyszi5wjivHOha/Q/mzWSBv2LOHuO6vchtbuoWtVm4XVsuD+cEq/JAbGXdlQl2ieHLjNBNDmKtTOmZ5zrlx8koU69ctEB+ohWHae756lSsTqzpr7D+ueXabGOoQMUG7ELlMT1Jk7ZtwHKmvp1gy6raJ0Ol/HvHlHxbnzWS70hHIlt4Uanm1/jEbV+P0+hYV5VIbtL9kYaFZcwfUzzgMyJhbvzLoC16M2Hcq5P6g+egA8vGYCDLqlcFzC6prL83o8zGgIwzEz4vKhRlp4p7yzSY4dLBslgGCoebXybTUCsjlASMq8uOIEOorgPBeuTI24GhobI2E8IvLPOYf4Trj5dFHSEcI2PR/Z7qvDsJwnEpYQWwy5i8AQVLe3X71rj/FfKDgE2V3Y/dXiA0n7Dcs6xz0KKy0J6eIpiOHAm2KzaxEbQf3I/e0h8YRkFoBMibngnkl7+kzgviIKexpAyc5UMzK8T/f3yo3jBhuxSiuKoTv+p3H82bo4ayIDKSa2+M854H0DSSfhf1xXhqf5tfaqaMA4B75m89Y/qbtKZ0VB/zb01Kps4224n8AIyn3eCQ6uWYjLFDf9hA/8eJZljhkFNF3dhHCLZri+XhXBRp6xYHDhwowfGN3w+t7X80LmBGEqs7kupZhXrlosPyU+kj1vZXUi+mqWTkSd0D/awRu1B+rMTBTJ5Kpg1U0Ix/E2xZVftkKJf/r/HbaFYRY3dv+6xhvwZ9G4hZepCo/40sJZAoS06W/TG0NnXLGOQS9sSbmAnaovcm6VV91B08F+8jO79MEypyx4sDP3PfcjKn9GBzmRsryl5jbfqht9Q7eF6u8uRilN3GvQWYZQ6XbSLDc+pGf3Xu0Tzl1BJRNkaPyP3m0G5OLzNtpGyQeFlbx/h5Z2nwUXgZ+2Vk5LZe/hZrcyiKacP4El7ISZl8wElcsVnfBSoNsMLYQUVoD9xfGyvsOrssoM6+Y+lbbjfKDJKS+7D9OGXnfcmbvXC6Iwh1opKfdoZmsUSDGJCTbLIlJncLznEI2iXzWTnpfqJZO2u7x46Xc2BB/Pc3DnVIH7uHK3hLw3kJ/268vvqllm2vRn8P3Rqkmet/iR3HSEcLZO/3S6a+NsN1cQBg2qv6eNoeYnbKXPcHGuj/OOxQ7lWrGxzyynZtvTw0hm/Lr+DWmic2SPZtOl4YjzFpYP+2t7aF65lMvXLRTvnx/A34GGb14zzXRtW1qr+C25W82cu+LKWPcBsJM5xlGaG67ULoGHTNzUZv4pk6TIItC9un6PpC8j+AZeuH1q+yY/dlIxyz9BpqhYzVdytLCYRlCascbAwXyR2AHZl6iFRMJerWiLpk7Gv0AM8d8H1G1sWwLUoY9+rkHW98qfDN5194yfzZm6BhkG3oZS5DHYXGEbloLdK+rUXatznIGNhtICDZokzSA0a7CJGds4FAditzTxK7Z0Rsf/uQtm6M0VffbvSeZ0EQBEEQBEEQBEG4fEjwLAiCIAiC0DbwQDq5JauXwb2xMussCL2JWrb9vlc+aP4UBEEQBEEQBEEQBMGn7+Nvyj3PvYLcsyCEELloLdK+rUXatznIGCicFZEdoRNIn7QPaevGkHueBUEQBEEQBEEQBKEOqgbP8X0u8XRI+5jv+P6XxVV/k/Cyx+7HtiYoL4fHhSec13+kv3nsf7VrUGBPWG//11bjb9nhrgXXYI5VXqO+/orrFoSex9ddYwdi23boF7atim23oV6B8s4mCEJ3AjlOtvV2/OtF/LoV6YHbv71ezvKdbuEs/drLslAb34+K+4iGNvt11UjS6dOHD0z/cV8+PHtPFletHPB5VltQZ4yhgbEz7sML9QG9rRWzWMrKCkzYzlv/D75gM6k+HjdOQvCsO3pixfzJnD5coPy43WQa+8ZFSn5MOcqqDasRKA/R7I76QFFcxZ5cZmPqJznKL1qDUKLSQJbSwfPy7y/mKfdEfw/7HqPSydfAQHCvLZs/2gAb9I1+71o2db3URvzeZtz+AyOKq/G2EYTLAnS3NK11QtmB+6y5fZN0z+jJyck+rd9ZV/tw4kErVn9OnqzT/N0lmuwL2wRBuJj08gOjvLo9LcT28qyLs3znQnN5Hx6GwDnyo/il9mUum2TZPKD5gTxtda29P6XCbkm/fcaye6TfnoWRMaKCqmeKsv0lKkhA27XE/fnq/on4/gES7HyJ9Wed2/Feh/f0r0U4eOZK0SILwB3zNwOHNqpMmtJXzVs2FqX+LKs6HORjysIJtp8xI7e9ALIvQ4PmrfqNsZGE83Jg7QJyGBS9aX7iNVjBfbReddPuZlLcwwbhWyZbOkE0PanaoHSUV5t9q+N+tpSDbWyc7rep0Bgqc7Qazexb4xTLXJs2b6Ss0GrgXAxS+tjMKI+yrt6Iu4rF1QWiG1qHIoq0tkh0U+l8ijID+qgmR2ljHwShYdgeT7F9sDMFLsvtrxyysweNlA2B77ssOsu0sjs8ZtnZRv88V7yEcBux2f7YNeC6p/VxZT/ddcK2mix+1brx39eW1XiIsv5vRN9BWfu7CJri34m1zUWz18Fr9+rLMlUuC2gj2+Z42XGrJ3n2gDYOdcLUMTxH+3eJ8o9NTyMYHZihuRs5OtjrhGYE2Iv6Vcv1AgdGyzQx/Rq9tjhL+ZUJJd9hH8SXd6sHOGYSBn1pV89UxmuHkO75M52h1VluFp91yhybum+CfCbSxzVib1wT+35I/sr1tfyYX0+Wb+tvsX10v3fR9DgE90fcnw/HLIqKsr1Lkv2KZE3LgpJJ384bUG5iJW8SaMlyZS0Byqvj3Mb+77rxxdObrXMktUKEg+fhSZpMdExx8UNUmtaZ0tPHJUq/qI1f6vpklewpFHiD0ovaQS7uEWVjj/GPn7ec/FGk9OVlkdUpTd+rcs2tgDv4KGsyptGM+fFhTmVNcHx/PE8L6EQYpM007d9Obh2hPpbJtPmTdTpQs/2sRmO6vdXsJfeLzdY2UlZoNWwoacn0h78ChYETRTMV+nv6cMMlpcDI7SWiRW0cC2Pt1neh18gfpmlJ2YJtGry1xdYBAzrRtjrG9rt/ww3CjZRtFCRi7ZhxctKJGchTKmWMbvJr+86ymf3ienPggmNzw359lyh9WM/c8AjNPZpXK7Hm+h7Qwm6O9s1vzBzZgJoDj4Ft/duYdbxP0XfUb0Zt48bTC0H42mOr58ZgFSuxbX7C7bDcLQFjqxjIlCVMETS6KRYq3p+lwTHWiL5JHiE2TLDWWZxfYfondX2J1q/O0/bmR+mji+uUu7PtJnkqfBCVDDDyzi9dDisPzHjWl+UQ7FiPjcNZGlR+b1j3Th/nadCu6jzR3w8d81d/LvUf6Nk+HnMjfcwSmVWmp88yxs7xKyB/lfqKoNg7FlsRytKt/C32tQ4naEGN/z3gd9Xpz6uY5RL6/hX2C7J2a9CNlXpW3hsbvDgQE6TbdxBD3aPs4yS5CpNnzVHyzLpGuwXl7zc+ZtVPgw8M44u5sqBmpXWFMaNElKnlxEKArhQoa5QZ5ymwM5JWH4Ly81aS67ely8vyuVjxl6+xUz06S/mdWRqqNgvQNLiD3ewZZsEP6PiZZwQZDAJQIBg0dV3s9GMp/PI1m7ETGmUeAylQgwyyfSP8n80uxZfGNFJWaDXzNGNnGLACZQf9oVEDvu0rh56tjhJskd7DmGb3/NkrQWic3LheMYUgL3uH7febx3TADt+Esg9XaOgW222TtG2kbKOM3MhRflSfpzMzzyka6Su4GSf/di037j7j+l61Y3aKsuMNrvF6VnJjoP0NOzPj7PTwHJ2UO5lXo9kcO55eGALXjiWJOTPZgOBoXr+LEY1baR63epxDEygG8Xw7JTOsY3YmtoM00j8VPohKAkwYXQ+NYaxbbrk22xoqUDFB91LXZzig0Oexs8CVx/SEjl2llXoxp68Z+ugSF7Bp6g2lhtNUsLN9CbdBhvTVHXO+MN7Pe+M3/66S+/IVZBePev152M7L6PsH9eNOlqVMk+7PRbPyNQjLVRg3RtsVzucds2pQf/BcEQADNgYDUaMEwbT5ItGSn1HnSpGtaPC8qHCUnSruLdNghksHy47QnMos6IxD7up6W7I8I2M666ZANnFnkDJ9cPAj5wfXjc737+HE0o35R/71C43gMqFoc8gJZGLPrgCI3zLQSFmhlcBwHdCGdRSeFmjZGbXyINmgMvTltgU6pt/BAAvCecir7DSAk86y9V4MuvMuQ65eZixppGwIF/RhQNfvIrx7//fvenrSNnjcUmO0vobg8sKyhBduT7JUrZsFjhTGZvMbeNnZOedIwT6XL+ncifwA9TwRl0S/AASuPd3P7eWW4rId1O8uJwgkB2bdagLcUoVgEqsSkWjFyqMD7/kx0aqPi0OFD8JvcStjtfqkXkxTyciIugf6WZLueb6vmQWuPFbiYDVPJRt0IGjGv9BHl7hAgK3e6NunTIIaM4chyvX1a/w2mqHm61S+sPmzBwn78+jbyphFfH/DSsHJOeRXxXN1EJarKIj2x6EKqoxZzaDu4BnLZ/Jepl1lyM19y8mc0oNNHh68jDPudzj0lnoHz8vO9uRilI3H/QKYZQ6X7RDDc2r5gbqO0VkafITkAJYikLs+e91C85ingmnzPOVwCwAUZMVmcheoNMBKYhSrkbJCa8HSttyueRYAljOa2zeUUTRORQwe5CnmKMd1a2g3F79XThAaJDdQogUlT1jWWGm/8bIzQ42UrQAzjNbuLFYO4P5zGIZuDUYrNNoG9C8aowtsOStnBri+T9K0YcpsHJrkVY26AdzXNvU4S0vj+cgP4BeWbcfsgrXT9jsP09zGHAAYP+Bi6Tzko/LaY/XlIDEcnlweEEhiCT/aAzNz6PeJFfbxpl+j3V3WOztLrxihmx1JLtUD/FLjj0IfzOrHCh9ETQBpmYAtObh7k2uF2xC9Gcm+LKWPTLKO9YtYTkK6F7uPFGPqDT5T4NjIbSx5Ncc28awepm/S08cFHVAzSO5YmVXyqQLs6PpC+jqAZeuH1q+y9vGyEY5ZBAayxnobiou0nQ/rs7odokKuMBETyagbh4LEx+jqZRvnHW98qfDN5194yfzZm6DhkPnpZS5DHTEwbGXu1WWUGinby1wGuegk0r6tpWXtiweMHN/0HkBZhUbKdinNbsdutK8XQRfRbrj3U8kSVuVhJVQbVsqdh8tg41pRx1bpyGXxbS6D3HUL0taNMfrq243e8ywIgiAIgiA0Cu5JHbzlrcAp23VAEARB6H5k5rlHkMyREELkorVI+7YWad/mIGOgcFZEdoROIH3SPqStGwMzzyp4ft8rHzSHBEEQBEEQBEEQBEHw6fv4mzLz3CtI5kgIIXLRWqR9W4u0b3OQMVA4KyI7QieQPmkf0taNIfc8C4IgCIIgCIIgCEIdVA2esYUGtpOwRFtqxDf6Lq76f5c9dp+w93HoeyiHR/vjX/u593v+I/3NY//1dwJl8dRKW7Z8n8gW4m8xErwW/7hCX3/8mCD0Pr6u6BfrfmzbDv2y2xZU2hrfjpiXswuCcBbsGNQAePJ2k7bKwVNze3Ms8Nu1SA8abq+zfKdbOINMnek7vUN8bIj7lgr4VG3066qRpLOnDx+Y/uO+fHj2niyuWjng86y2oM4YcwPjZtyHF6oDffVk1spmzZjl4rex0tWY/MAvq2a7qumDbpuzjYH4bpXfdeM0X1/AdjRj7E0InnWlsO+egy8G+3Nhav/kSY7yi/aCTumYcpRVm1ejIYdodkd9oCiuYn8us+l67HslKg1kKf1wgfLjdiN87EeHBuHfX8xT7onZXJx/GRU9DZbl37xGtK2OndD+eN5tut9SuD02+r1r2dT1Oj0+oJy3sb+/nUBxNd42gnBZwH6eVidOHs3TPPbs65uke/bYyT6t31nX+7gGbc0IzbmybBPuzNN2l2/xInQ7KZrcvIx7krYar12fFtwesnVzlu9caC6vHMIZj/wofqm9scsmWTYPaH4gT1tdm2g6pcJuSb99xrJ7pN+ehZExooKqZ4qy/SUqSEDbhXDsssP+h5XZTexNH45Z6OlWFLNAtu8nh5kXgxzlDk3d6qGaPnDbzA7Mu9ipqQzPtXxryXDwzIMXLcJBNX8zCArnx4x578tyE7IA4T03Tqk/y8KD4PaYsnCCr+IDDZxmF0D2ZWjQvFW/wedLXb/nVTJNafVdnNsG5DAo83RwfJpQFk51NPCkMu4XWkpxD5vNb5mM0gTRNBSIr/worzb+jmWkgAkI/DYVGkNli1ajmX2rwLHMtWnzRsoKbQTZ2b1sxR6VxdUFohtah6gvzbrlMZDRxw3o28KYBD1CAyATPT3ldF9npb3sNX/u7ILNrPvHArYiaEv874Qy8u7zKdpyToVOVtvjOnDAsSm+Zj7WBjsFnaq4bq/NtCMYXfvaqsnco4xLVtssv21XJLaX1XiIsv5vRN8pr3v8O7H2vGj2OnjtXn15fIq3l24jX07tuNWT8FiwcWgSphZ2evfvEuUfm56G8z0wQ3M3cnSwV6FNnWEv6lct1ws0u7NME9Ov0WuLs5RfmVDyHfZBfHn37ZDRex77bD1TGa8dQroXW7llvh86Bj00x6bumyCfifRxjdgb18S+H5K/cn0tP+bXk+Xb2ki2qe73Lpoel/PsmA6I+ztW33DM0o4grt3kFu3EZRkV9o5lwNOHchBDrd+Yo+xA3iWJMKY6mYMsqvNE8otX+bn8cSU2drlyJdqy8lkheyF5ro9w8Dw8SZNGCJI5oGP+odPHJUq/qIUjdX2yikOLBtig9KJ2kIt7RNmYA41KDFFpOuwU548ipU8si87bTMeNccvI0+xR1mRMoxnz48McrZvsk5sFhxDwde3LTNm5WSbT5k/W6UBlrFhVxnR7q9lL7heriI2UFdpD8X6ecuV7m7J+bNBMZHMwIz1W0AZtkWgppjdF2trN0c2y4FsQasGSR/vGHtBuge2BBQEbD+TKbrNdONzgQdQ/FlrRFLYlyiEw3znxkroanNOuklqi9KGeX42vqJqh0mjkmOQW+Zia2Wglp1TKLJnfR9J82cx+cZtx4IJjc8Pha6/OCM09mlcrseb6HtAC661qf37NHNmAmgOPAbPKRM3MUPQd9ZvV+qCbCV97rK/HMEZVYtscK3SWuyVgbBVliVHgT4AU78/SICZteEyY4VGiEee2VTi/wvRP6voSrV+dp+3Nj9JHF9cpd2fbBUwVPohKBhh555cuh5UH9/T4pyamjrVtGs7SoPJ7E+zG4zwN2lWdJ/r7oWP+6s+l/gO2VAyPuZE+ZonMKtPTZxlaUsf4FZC/Sn1FUOwdc74wYOlWNhI2dYIWCDamB/yuZyXKcx9X1jdOFLOYAK1n9nWHXSeaKF++XWHviCbL9MEBn49jJSQbRm7kKG9m5JF0sDKndB+TkjxOZFVb86ti7E4euxw7Bxx3ms8HZmMrWKqNvbU4xwPDBinTh+UqxP+aQ0kgeLxS4AYwBoIvr3CYprT6EHDDX1lQs93lM1KWXL8tHS6rsg97bKha7mhYOEh2ioBZcCQTPCPIYBCAAsGg5XdmaYiDASyFX77WWIZDiKhc/TDC/9mMV3xZfCNlhXYAvY+ysxY14Nu+Ypwuw6Bx8Lzgz+A9LdDBuF7pIgiNkLNy46+Asly1cunZcHcssuURYVuiHIFRHMOrbCDGjMVVO+6lKDuu11fEVitdmWCXUyem9RirirSYFI30FdyMk3+7lht3E669buBwmjHQ/oaamWGcnR6eo5PyBHPVPuhyAtdeOuI2NZMNCI7m9bsY0bhVtgKnFzk0gWIQHi+Uv2RlhvXEzsR2kEb6p8IHUUmACaPrlbNoSrfccu0RDr0LVEzQvdT1GQ7c9HnsrFnlMT2hk7Zy+GJOXzP00SUu+HfMisjUcJoKdibuWii1E9ZXd8z5wng/702Q8e8quU9RZkAfubDE7JRf3zhRzIIxBcHZEsct9QdnXQ23gVuabmnAVvsx0ZVRzE6znOOD4Zu0foj30H0jP8Pc1nYFA8qinCN57HJ41+VWBBiSx97a1B08ozFcFgrZMwgNjMFAllWvCpgNxuyRn4VnY0DWkakIrAHO7U3l7y3TYIZLB8vy59ywKqvVxpndkTHv/gW0xw4cHQT2kXLgumFUsNw8yoywSXkUv36hfipkEDJhAy1kNb1bBhopK7SBYOCLBNxg2SoUb+ApC3TU7RLW+RSEZrGD5JrGLR3bicYg9SwL5wwxSbbEu49//+4BbfjOMWTZ+x0M3CDdz46l95wMO2PUPnjcUmO0/v3grUUJ1w6ck6SWMyaAQOPqupt5xsvORjhnBm1avqyuWh90O4FrT/dze7mluAXMzV1eEEgOzLrVBNA7BJNYlTjDsnH6cIMOYnqxTYO3tpx/dRGo9JnZd3TP/wjXJ/Uie9ZGRtQ90M+SdM97Doi7n7b8WImD1TyVbECAoBn/Qh9d4gIBtnrDfaAnpvT3Q6mdSn39Gr919URMoHxh82cPguS+S3qofkVwFo5ZYmVV25i3PcDIbcy6I+A01G2ri7R1azC6Z5xf0ViJ5NABFVbZNt7RsSXasGBXeT1ZL0tY1TF2+WO7jSUN5xl76595NpkGHf2zuGD5tblvOZlTerDJTetlnLHm/NBb6o2p+Tw3v71/QGfrUzS5GGXwca8wZpmDZVmBN1Z4QHLZg1A2rwXE2mOWBvEAJBguLGcw12GvW2ge82SW81oZhFO3YjO5C1QaYBNlFLiRskLrgUH1DZcGhk07FRYsg8vtRtlAUroFMMj39sAsdIKQ3cYxdj7NGDS0m4vfDpRgS/z7oIfYQUAQEBH/HSxbA3F5x6vdsxPQv2iMLrDl9LPzGr72J2naMGXstavZU9sOi/E5AQvG5qnHWVoaz0d+AL+QoIjV3dpp+52H6ep90NWE5SdWXw4Sw+HJ5QGBJJbwoz0wa4R+n1jR9w/v7nqz9IoRulmekOoa4JcavYU+mCWtFT4IAk78rV4TdHD3JtcKy3q91Yh9WUofmaWprF/EchLSPbVCy57LLAkOHdNBjjm2yUENvtw36enjgg6oGSR3rMwq+VQBdnR9IX0d4GNYlq1/1x+ve5OwzQrHLHHb3mttAxtnLViV8dLTBwWShiYwtmDFhE0kYXXEwUq0xF1N3Fr5XSzRoPIZLXWMXVfZZpjPy2OyeP/gVf/Y+443vlT45vMvvGT+7E3QKMgq9DKXoY4YGLYy9+pKSDRStpe5DHLRSaR9W4u0b3Nodjt2o329CLKCdsMqOTXrjlV5WL3QxhVzZ+Ey6GAr6tgqHbksvo3Y/vYhbd0Yo6++fZ57ngVBEARBEIR60DMsZqajZx4gJAiCcLmQmeceQTJHQgiRi9Yi7dtapH2bg4yBwlkR2RE6gfRJ+5C2bgzMPKvg+X2vfNAcEgRBEARBEARBEATBp+/jb8rMc68gmSMhhMhFa5H2bS3Svs1BxkDhrIjsCJ1A+qR9SFs3htzzLAiCIAiCIAiCIAh1UDV4dvtdGqJtOLzH6jPFVf/vssfuE/Y+Dn0P5fBYcPxrP/d+z3+kv3vMeUJZPLXSli3fJ7JBgnX0z+89cr2Rshp9/cHr5pc97m934re/UD+nDx/U/ch5oZ3AHvh2QIMniCbpudPpBH0RhNZjx6sEWDbr2yKxxnm6AOhiZ3SLbYPSdftvb6FsHNutqdWfN7LSQD3hD1X4E11AmU3uqF12Otg6+UnSjcjfYP1+ePZ+Kq5a28DnWQ3X4Vz6mSBHcR9eqE7cP3F9EYxZ0La2rLRxNfy4J9ZWFTKr279jdsaQEDzri8O+ew42TNgjC1P7J09ylF+0in1Kx2qTcLyHYzxEs95G4MVV7G1mNqCOfa9EpYEspR8uUH7cblKN/ehMQL2Yp9wT/T3sp4yGOg2W5d+8Rm7D7f3xvNt0v2GCdeRr2bTn36f1ww3dqY2UNRRX422jNhL3NuhWWw/weTf6vTpuhg2oUI1TKuxGO8EJ3QLsirepvoVlfuiWv0cs24ad+WgT/U2992tQXwRBEC4ApSOidfZp7t3+Ob1VVY/g22Ttl122IMHzN54VKM/9fFZGxogKKihIUba/RAUJtrqOcBwSjlmS4ybBB4GzayfbVqMhOwIfcoFosfP+Xzh4flpQF7d9x/zNwHGdHzPbKvRlOVw2G1WzsSj1Z7Vz+/CYsggar+IDDTbBd5Xsy9Cgeat+g8+Xun7PG0jSlFbfxbltQA6Doje+DpcdobmTaONxbKh9VsJ1TNHkZuXG5o2UVRgl8tu0dJSnvN22wmRKi3vYxH7LZF8miKZ14CAAJGfKM1NQJnvsiso8w7jN7izTBNqU231qWmf8Ycxi2a0enN3oZvSgsx2zD6pPkfxym+0zz47pgEPsCdNPNsMY0hdBODuwHWu05myCN+sTmlmwsE2xn4Xk0M4wqlfV2cKQPesQrk5TtOU5/35d3My6X3/TZrE623aM2V606RT/zZ+rNquz7jXauu2gTqv8MtcUbBPb5179f351iiZW8jQLh/A3+HhZgj88LkVtNHU/SgbXL1+dYIRu3iXKP0YNfD2K+jhWV3P9teWH2wLyY79Tr1zUW64R9qJz2kkd7W+8Rq8tzlJ+ZcL4IVNsW+Jl421i5UfrhmqfvjQd7Ok2SWVsOzKuHp5++jOdtn1Dx2rK0RqxN66JfT9g+4J9Gq9TVE/PtnKfud/rBj0+B43ELIlxk+BRpMLhOu37+933TdK9R4M0e9+3b5ApBM73aNK0cycJB8/Dk3Vc3AEds+KcPi5R+kUtSKnrk+HAUQEF3qD0og4Gi3tE2VjmAA0zRKXpcPCZP/JFLqEsDMxmmpaaltXVdVQo4zVEswMzCW1TpSwMEl9XTDi4DseHOZWJRqYlmjHnAfYoazIwNqslAKxiOLBZbpvFQ6Z3IMpYwailri9xgDZP22bGMs/9gM/mhrklx3Q5tTKA21oyu22CdWLoaIb7J20OAOgx24QnZXr8rET5O7ZPo8xuWF8E4TwsO5uwf/eANpTTy86wsynlNpjHMezPmySHbOsXbg26VRNuBiJA0J6Zz9oL6mRXTC1R+tCsAkFddnO0b+oyczSk6oIEr63/iUpcn1Ips2T+RtJ92cye+bZX/51b5DJsl0t11b1GW3eI/CH7GKqu2zR4a4uv0m8/vs7+DRcc2/r/3O173C6wX+z4/Xn1kUd4XPJX7S31H/BRpgH56hR2AiM+QzdDpVHokXGUzfWfKJ+oTvnZGaQZ9R2qUy5aIz/LZPyzR/O0zIFu5G98lD66uE45HrtscOXKPlmnA6wiDPgr3GI0uWkCAhVgHWtdGM7SoPJ7w/p5+jhPg3ZV54n+fuhYohw53c4SmVWmp88yRrb5ZernE7ONJrhJtpfWtmIV5gQtEPq4l/yuRmIWixcnCBpMlgxkKicJ+9KsC5Zj1db+yt1Oc44Hhg1Spg/LVYj/NYeSQPB4pUBZo8wwBgUegCI3mo3DlepT8bl+WzpcVmW19thQmYCpOaCO5u3wnDYOY4WKrLEmuSwMWn5nloau6KXwy2pZk2cwGQw4Wtl4gL1hVRFZLVG2iBzlTKJGrWLYKVGpb5Jm2IGwWc9Q30SyM8L/2Qxudylir1Pc44F0Bf2EdscMDA+wcCTUe+6Pa/pz1X/QH5dosjqQpC+CcB7mXRI39SIP1Uam3GxByAZfjWYYgnJ4J+ucqXR/Ts1AhAnYM/1Xe4HzctWOxynKjhuXBUksM27BZmLsQl1GbmBJnT6mZwlTNNLHY51XzhLZXuCNkfXWvVZbd4DcuF5ph/Eke4dl4834ShncgmKvM17/JELjkk4Wpm3dWTadI1m3fHUGzLaB2EqhK7hdB3o0Qjc5iLUypWee65QfJ6NMvXLRAvmJZhJ95z5MxaxjTX+F9c8t12b5ogKPk2H9TF2f4UDVtKOZBa48liBH0G0XsECO1RtKDaepYGeRMSYHcHXyxumwvYxsa6TvKcoM6CMXm0ZiFh/fBgoK2P9DkzDygYyat7TC75B4RRKuS5a+1x08w/C4LBScXigJjMFAZMiDYBZ2kWjJW1qNwZrsAFQRWAOcO8pOwfEezHDpYFn+fPWKzmrFZnYbJ1xHKEk082AHhobKXr+ng2l+Ydn2/CNcf7ws6ggDNDLmLVVQwYUoWwQPxnYZkzeg4NYAm/XUMwEJQH6QYFFl47cXCK0l6iO0O2Zg2B5gaY7RC2S5yWTskQhzToXSLThAYX0RhPMRzXIhyUnG4YlmXHiMK7fBO9HYBBtf4SStsMNr3iKAUGNXkLA9aztlwSuuWYHg4Ko3S8gvNVPm6a2erf9NWlNjvD7m35qUTJ11r9XWHSC/WzDOW5EKKywb7+X240DBzgarVyO+SHBcQpCRp5Kpe9yRrFe+OkGRtm5x4MCBEgL7+P3Q2m+L/CHMSOK5MGzbG5WfeuWiw/JT6SPW9ldSL7JnbXRD3QP9LEE/2aOeM21mZ4Erj5XCcgTddgELAmz1hn1pHRDq73u3Unm4ZA3kdvoBfY3fVrWXvUYDMUs4ThDijFB2YJaG/FtQ0MZYNWInEu/YFb8s39OleNkOUf/M8/CcWiKkMlKj7M5i+bW5bzmZU3qwucwGLMpe436HQ2+pd/H+LAtUlLW1mezJxSi7jXuFkd0JluVG3ljhAc1lOMOzj3URqiM66xFFWeXdnF4W3kjZIPGyto7x887S4KPwkpDLyMhtDDamn22bK0Om2xDZ7YO7N017QU6iYEsBJ1HNfqLsApUG2NTbQUXoGrAMLrdb1s9J+iII54IdxD0tU9Zeq2WYh9ZOYMmjb4Mhh+yUmrGpwsZzYLnEAWU9chq0Z+az9hLXrY1DM5+GuvizhPxSy7ZXo7+Hbg3SzPW/xA5hNMYXuE1rzYbWV/cabd0hcgMlWlB1tbIRbz+8GvJBEsYltJGbRdzEs1BQtn75ahe+73UFt+ZhaboKkj07rl4Yj5EEtX/bW9sQUDQiP/XKRTvlx/M30JfGuZ/n2qi6VvVXsPzX3j/M9GUpfWQSNMNZtk8U1M/onmV+mUAjdCxRjpxuL+iAmkn3k2uvK/y78yrAjq4vNDYPVLWXvUcjMUs4ThDKQULJtZNtK2NHKrBt2uEA+h1vfKnwzedfeMn82ZugM5BJ62UuQx2FxhG5aC3Svq2lte0Lp3CLMkkPeewhZAxsEk/XaOr4prun9TIgsnM2EMhuZe5JkveMXAa56xakrRtj9NW3z3PPsyAIgiAIgiAIgiBcDiR4FgRBEC4heAid3BYjNMDw3KWadRbODu7tlllnQehN1LLt973yQfOnIAiCIAiCIAiCIAg+fR9/U+557hXkngUhhMhFa5H2bS3Svs1BxkDhrIjsCJ1A+qR9SFs3htzzLAiCIAiCIAiCIAh1UDV4xpYU2JrCEm1R4T1Wnymu+n+XPXY/tjVBeTk84h3/2s+93/Mf6e8eSZ5QFntJ27LT7dtA29+yI3gt/nGFvv74MUG4REA/vC0GYltrBPXcsxlVdUsQQrAsPdRyBVm7mDJj9SE+7vYGUf/0OtbWTa3+vNnKin2jev0V+EMd3polSJlN7qhd5mtpuF0bJMmGnD58wL+q3p1LnourdntNPs9quA7nsmMJchT34YXqWHtcJu/BmMWPE6SNq+HHU7G2qpBZ3f6dHssTgmd9cRMr5k/Ahgl7l2Fq/+RJjvKLVrFP6ZhylFX7cSFQHqLZHfWBoriKfd/Mpuux75WoNJCl9MMFyo/bjfSxH50JqBexz5f+Hvb0QkOdBsvyb14j2lbHTmh/PE8LZ93nuRG4PTb6vWvZ1PVSG/HftcdPYg+MKK7G20YQLhPKeby2bP5i2Cgu7OZo3+iK1XN6uhXpOfbpvG/ciSq6JQhBnhUof2TeX1h4rKR11pOEfS8vMj3RP/VR4nqus09z7/bP9dRDx3ybrP2yyxYknFJht6TfnlOeR8aICiooSFG2v0QFCba6jnAcEo5ZkuMmwQeBs2sn21ajITuC2HSBaLHz/l84eH5aUBe3fcf8zcBxnR8zzyXty3K4jAGdYWNR6s+qjb9PHx5T9mSf1q/iAw02v3aV7MvQoHmrfoPPhycSRgNJmtLquzi3DchhUPSm+eGyIzR3Ej0xNZVxv9BSinvYbH7LZEkmiKb15uelozzlb5lN5P3sp1Eiv02FxlAZ19Uo020zT7GMlWnzRsoK7aBIBVriYHje/M30TdK9Ta03IN2f028SnmibqFuCEAQOzSzlVybMjBSzV7/9mJqOVkXYsioBpI6tsX0pG9yRIXdyiUHefM62v/z8OOauCQlgdVx/Z8rNatiVWRO0vDNLQ+2WeXfdsKV2tgvXY6/P1t+7bnWNSKLbMnYmDXXkMva4rW+sf0Lf6zLQbzyu2Hq4PvT72M6SoKyRoZ/n9ptYydMsHMLf8PteEx6XovaYum+CMyaSQX513Wz0CN28S5R/jBqEZKWsrub6Y3Wyfe+139pTT37wHb+9q+lFveUaocyGIJia3VmmienX6DVPnsM+iN8mVn60/qj26UvTwZ5uk1TGtiPj6jFFWzY492c6bfuGjtWUozUemw2x70d2LyLUp/E6RfWEjTTHuc/c7zWrHzpEIzFLYtwkeLBveLhO+7e9fS/gG3oTJxrIFALn7kgih4Pn4ck6Lu6AjllxTh+XKP2iFqTU9ckq235AgTcovaid5eIeUTaWOUDDDFFpOrx1SP7IF7mEsjAwm2laaktWlwfCo6zJlETZp+PDnMou47ibBYdB4uuKCYdwJpbJtPmTdTpQs/2sXGMmW4XEDfeLzdY2UlZoNSM0WUUvMbAOHc142UQzIF87oPUb0JsE3RKERFI0ubhOuTvbztlxNuHRPC0rJzXZJuQHZuJl2Y5HKyWyRP7KLKCcI/N9zEApZ4rHPchw3XKbp8FpXXb7zjIVnmI7rW2av8rOhZdoaj24bruia4nSh3l1ND7rMkOl0SjIzS3yMb7GUmy1WZo2rLO8w2VUO9h2jvdPfJWa970uI3/IPoaq/zYN3tri+vttxX3cv+GCYytDP3f7Hvcn7Bc7fn9efeQRlkG/PZb6D/goAxm8Neh+y81wdRF2AiMsK8ZRNtd/onyiUypllkw5K/fqFK791LiwM0gz6jtUp041qnv1UW5DUteXaP3qPG1vfpQ+mmRvrA8CuzAQzbDpctBxExAoG3Ks5X44S4PK703QxcdsK6y+mFUpoWOJchSwZafPMka2+eVsZIRKFNjrN8FN7JjzhcGykWuW6cMJWkDyvKf8rkZiFouOmwSPZ8d0MJCpHNv60qwLlmPV1t20cvccDwwbpEwflqsQ/2sOJaGyWQXKumVnMKBpSqsPARuHK9Wn4nP9tnS4rMpq7bGhapuDwQOhcuoBsk9QCs8IMhhEoEAwaHnMHFzRS+GXL92ypuZRmcUb4f9sVjauXI2UFToHZiLUwBpLLkGXMPAusa5jMA7rliA0QmQT7MBcj/0wZZ+xvI3rVVb4XrZiFRHL6DTL5eNTKt6f5SDYjEVXoxmJ2nI775LKbiVGJ4BDcyfLtQQpyo7ra4mt/rgywe6xdQbhD+BfJLkwxuFzfo3O8thnZltcO6QoM4B/fap8r8vIxWSA6/8mtxW3xIRqkys0dIvbyPRx5LdUIySDOlmYtnLzYs7IK+P6RcsIZri6Ccy2gbCsjNBNDmLhC6njauY5RSN9BTfj6d8uGGu/q57PWK9ONaR79VFpQ5Kp8EH6JmmGJkybeCsXHKxrbrk2yxcVqAhddHWPdDF1fYYDVdOOZha48liCHLEty7uAJbJlqeE0Fewssn+LlYer0/CcG7PdMecL431ky+Av59QkW0j3LyKNxCw+1k4KDqxIPjQJIx/IqHlLK/wOyVkk4bpk6XvdwTMMj8tCqaw6lJmNwUBkyINgNniRaMlbWo2B2TkhFYE1wLmj7FRxb5kGM1w6WDbJ+W4tI2PekgK0xw6UAgoVZeJx3TAqWOahs3J6Kfz8o/j1C/VTIYOQCSRNVPvux24ZaKSs0An07HJhzGbgNUiERU4F2xjlTIZ1SxDORSM2gZ1l2i2YgbtIhfKZZ4DZot0F2ljxHMedaCxT9+0bp8o58nCO9bvuAQ7NCjvu6g8kybUbg2Atfo9r+VimneN5N/uFV3hmJs5Zv9d+8jEZ4HH/vbgdbd7NBqtXI75IUAbRHnkqGbmJO5K2X3SAqnyjrqFIW7c4cOBAKUlWIn+I63q4wQEe23blI+pydd3alqBTFdRbrkVU+szsO9627WFXLsRJvcietVmure6Bfsby5SWS0Oca3LJozuWWuJYfK4XlCIG/C1h04goUV3VAqL/v3WLl4ZI1kNvpB/Q1fhvNUGO87vEAEfWuM2YJx01CnBHKDszSkH8LCtrYrTpk7syYtmb5ni7Fy3aI+meeh+fUEiGVkRrNUw7Lr819y8mwc7y5zAZMz7qq77KyHXpLvZGhz3tZW32/S4omF3HDuD6Ge4WR3QmW5UbeYCcmynCGsnktINYeszT4CAM9d+wjctdnr1toHvNUMG1uZFA5eTaTu0AldsDsQNFIWaEDPN1SsyxutolfWIKIZXC53WjGgkS3hPMAnU8abBuxCX2TtORmzXjsCzr5cATylHezg5BbdmLNWDa0m9O3FXGQPW9/d9GFRV2Er29oFzvb5esmXlFCyzJyG0s37ef8qrX82vRPw9/rELmBEi2oawzbJrwa8kESZDDWHpt4xgrKsgzePegqO+j7Xldwax6WpqsgOSQrSILav4dodgBOMQKKyEcs8MhdfTY9QacqqLdcM4BfanTBszcVPogKvPT1QH4O7t7kq0QS2VuN2Jel9JFJ0LCdoD2KydfGodbF6J5lfplAI3QsUY6cLVvQATWT7ifXXlf4d+dVgB1dX6xPTZ0GsGz90Mqv1YnepZGYJRg36dMIHkgouXaybWXsSAW2TTscQL/jjS8Vvvn8Cy+ZP3sTdAYyab3MZagjBoatzL26nIVGyvYyl0EuOom0b2vpqvaF44sZMnVrEIIAzD5UOopYCYXVFN1kexpvR79+cJ6750EtSbRFVp6u0dTxzdhKmV7nMti4VtRRfJDzcRnkrluQtm6M0VffPs89z4IgCIJwScD9ilhexo5GNGvko29DmDhcp5sX3mHGU5PtDKedITQfCYIgCMIlRmaeewTJHAkhRC5ai7Rva5H2bQ4yBgpnRWRH6ATSJ+1D2roxMPOsguf3vfJBc0gQBEEQBEEQBEEQBJ++j78pM8+9gmSOhBAiF61F2re1SPs2BxkDhbMisiN0AumT9iFt3Rhyz7MgCIIgCIIgCIIg1EHV4BlPDcXWMRb8jQyF3ZDdUlz1/y577H5sa4LycnjEu37Iiv7c+z3/kf7ukeQJZbGXtC3b7u0tcJ3+bwavxb/ueNsJQu9Sh24HdcS3O7794Je1Bb6edXjLAuGC8fRB+20wntLcji0ULxys9w8vq/6ybWvQX8ETnH2frFNEvqB9ndWvabwNgrRdvzBeVW7TFpfnIr8/6zXxeVZNu/B4uXauuoXbuFtk6eIR91WcD9NIzHIR8X0u9WpA59E2QT+trC3rOOfpwwcBvWs/CcGzrtDEivkTcMNh7zJM7Z88yVF+0SrjKR1TjrLqSZxwdIfU3q2W4ir2fTObrse+V6LSQJbSDxcoP2430sd+dCagXsQ+X/p72NMLQncaLMu/eY1oWx07of3xPC20y4hCmEax55sl4VqebkXX7TazF4TeJqyv0O0SzXg6spWo28yzYzq4uk77pvzJbTzfmPVsM+2ObdOGJKSEuinudeO+ypeUZwXKH5n3Qk1S17tl66McrRv/TL067dcMz3XH9mG+PD/l9+Zt46Qo21+iAsY1f99noQvg2GVn3vn5J2rrwkZilotL7q6tC7/OrfOIM4eoNG3OhxdixNFqbXRKhd2Sed9ZwsEzKz0tsgDcMX8zp8cHND9mNuZgZc5BgPCejUWpP6s2/j59eEzZk31av4oPNNj82hn7vgwNmrfqN/h8GAwio5emtPouzm0Dcj7HmN40P1x2hOa8vTZTGfcLLYY7/jjLnb2uN51XJFxLtxj2CwGypGv80pkoZJNdlttkrpAxjTJVRtGQeZ6OjrsstMuWTdHaqs20Isljvx+VjWXTZTbz3AT1Fc7FQJqOTf8O7ebUtj5h3WaelSi/Y7cHMllJth0H40Rbpq8mSLbREeoESeCVPM2aATpmSzz7srZq7QaXczMKNit+Pvvh/2Y0W+afs0scrKDthMNjr9O2B45N0RSOq1mYUF1g17mMPa7KweGcpfzKhGmHbmmDwHX4s0r8cuNIRZ3McVfWq3/FsYiY7FQ5TzRb6PeDvR6vH7zvtBevTaADTob45erlXfsq+4HuWHS94Xr68lZ2DOO/kiH/s9a3S8H1G87Jv+Pk+Tdp7doy5W8N8TXg99mniZVlYjJl6oFjpp1SGaL8Y/WOMhyGq0C6rH6hOlccc23MeDq95ZJWvpz5NikiZLP8Y/Xbzh4ACX1aNtv4WRlrJGbpHWxMWMt+Td0PBLxPt2h2YDueDOybpHs2hgrYXCQjZne47dVv+HIf2QEri/qajK7Z4yE77n1HX3N99iEcPA9P1uGMHtAxX+zp4xKlX9TCkbo+6QLHSnBRG5ReRJaG/9ojysYyqGgIZCGi4NMnf+Q3fkJZNMJmmpbaEqimaPJ6cm0rr8V09LUDWr9R5XsC0c4BywkyUds0yINPYUy/n18psBSdUimz5DJV23eWqaCMF8sIGy81G/lknWgXmVqWObcSYInShyYPzOWz5vt+2cJh+Qyn0BzK9JWDFyTn0M6VK0XiZZG0c9lOb+VK/lbJ9aHN8gpCTYbn2GZg1ozliwfShVuDbgbBl6Nlymr5xF7Hi0RL6r1xZs9jP/Cbu8ZO8WvmCM41Bnp/hVaaNpwD0inCtjM+kzJDJW+WIAed3pykUlJddriMmpnZp3UVDPAYurhOuTvbysHsljbAdRwYm4P+32D7dPoso2RAXdujeVreM7WuqFP4+9XrxudSY1zt81iUE8mOp/6OP6OVp0Ezk+OPjc0HCajICb0CWbEyvzOoVxbdJpYh9nfMbJy19TEZGoOuJROrp5npCh2ztLdd+MpNv+lz+vL8AZpjOcHYpYODqKyTqcd8TVYmTu5pnxvBg5rJZIazNGj83pGxQSohOFDJZ1u/Ex2YBY6F27gRf8gjZifhk22poPhMtrMXQEKf+1i1V0zG4tQVs1wwkAyKdH5ZJQiq2S9r85b6D/hoHOXb9aftXzo+UufWgXDI5qauL9H61XnaZh0hX8btWMQ6Y+OE48Mc5a7qOLW4t6wC/aAdd99hnhZo+U62rj46xwPDBinThyl04n/NoSRUtF9gBTUGgi+zcJgm22xKqa8sKIc6aUlS1MjhsioLtsdKaw1PBwlfCxvWTXTaEl97WNkEw9Uog0c0b5IsNmuXopG+gsse+bcW5Mb1Cgi3wgEZQqcIKcqOmzUCw3zEZsrcsvsRusmDu57h5JfLRAnnI6Cvd6KZYqzOiAaZyrKxzC36dUeveMndvekMXLo/Z4y4IDSIN1D6cuRWWTHWrkQric5hP2IrKbT9Ojg+5IGenc5r3jmNnHeMBNtZOsp7DtQEO8raOdH+AP6F05JQF2fXU5QZwL8+Vb7XdtjpchMC2v6khtNUsM4dO42OYJ3Kv0816jbC/63pz2K3vVVeh08koxgbbT/Y8VLLc+soW7btrbijq55v543l1tZDhgYzpi5wXPW7RFw9h+dcUip0zNK+dmnknFHZ1ItcltshdX2GAy8jE8GZ2REOQ41Tz+1EcPQ5uJ7hQFV/x8wCB44F21jdAmX7ppY/VIazBd7qyrPYzl4gJnO+jMWpFbNcRHJ2IkO9TCKFpaDSfungNW11n2W+XEPivp+Nj5CIMkeSbK4hPBaxzqhEFuxrjmbGudwzjjdXtP6Fz8lj990D/g4H8Jv1T27WHTyjoi7bikwXhIYvD/ctV/0pzMCq7JNnXFmJyQY6FYE1wLntMhUWvb1lbQiCZflzVvwFWkrO9reR0LUgmI6WwnCbefeEC43ChshkM31FC4Jgy2aUWJkLu3pYQH/o2Wx+ecvu4aBoo7BP64dyH+25Cekrbvnw2ha6rQaZKrrtZpVtVpCdAW20ge5X5ygIQiM4+6AH43rk6Fz2oy9NOf8efn7duz6gAq95NwuFV4dnKBJsJ5zkuAMV11duhTPW5azfawV5PcsHzJK+4qp2ftV1PaoV7pV/v1S9brB9SLar4yw7bmln5XX4OH9M+RQ2edFl7ER+nJ1p8gMtvQTWEgUh0EVLVJbbafoBfS1wzHpXoDvbJZrtxowzqcAKgaiRh4T7R0fGyHwvCqRxK6SWFRu8VB77w1Abe8lnYNs4yZ7FODw2bYwZQg70v8pvz2A7e4GYP69iISSIGotZegYkY4L2C/bcs19IGpu3juGbPE6WrxpEoGve1bC5SWORWjK/uUHLAxka4bj1YK/gEsFJ50Rwf7C5YPrSHKxB/TPPWO5ms1uj/BNYfm3uW04GkTxH916mHevhD72l3sX7yHRF9w/oNepY/oIbx/UxPKgMGZtgWe64DW5sfzlBFKi2mYRrwVKD3G6UIaFHHXaMLjQwUpE8FUjfWxKGB6dHZORlgUoDelhQiSCb8V0s0SAGWZa66L6fIZodkPtoz0tdun24rm5tCJeFU4BlUeaYWxro9yv6quy+GUGoCpacsgNIk7SEpYVG5uw4U4tz2Y8+/k1/hppfcB5ico5Xh5YsRyTYzthYhlflKqqG67LCfgUHht3SBiGbk+6naJnyHgfCLpioJPT9qnVTiQo7c4i25mCEnc7QeSxq+SI7nvo73epTQIY4KDTthudbwNbHZGjRutSYCY3aeOMwIG/G7xwIHLNhW1e0i5FnAF9w6iHCfXbU93TdbDsgCNPXyS97O195MmDYzDgzKpD+DQRj5jtcvwOswFIBWvzYB4Jt7Ou018ZBe4ZAwySuYzZriPLjSzT53rPZzl4gJJMs1fXHLOY8FxE/trlib8Otx35tHgSSMpht3qf0pj0fXnzOJzoITra5aM81Kvn9oF6mbfvSKmmnJmXwfmWZBk2cmnhOTOpwT7lJ3Tp4xxtfKnzz+RdeMn/2JmgoZBp6mctQx8aBQ4usHwZQZEyRderRDGACIhetRdq3tUj7NofG2/Hi2U6RldZwGdq1tXWE/mxRZlMmTRpB9Ll9SFs3NsaNvvr2ee55FoRuR9/LoLN+MpssCIJQH2I7BUEQhF4HieLGxzgJnoWeJroPkV/esjdBEAQhGbGdgtAMsDxVZp0FoTsZ0c8eaHCMU8u23/fKB82fgiAIgiAIgiAIgiD49H38TbnnuVeQexaEECIXrUXat7VI+zYHGQOFsyKyI3QC6ZP2IW3dGHLPsyAIgiAIgiAIgiDUQdXgObbHKoO/kaEo39C9uOr/jaeW+X/7W3iUl8OjxfGv/dz7Pf/x+25/w4Sy2APRlm3T9hZqm4GyfRd1XeNtAxopKyRRpAdqCzIrN8KFxddXT48j++LbHV/nRV+EZsH2t0NbIflgbPDH2AtDbHucsu0hq32mxr3os8px8TJjx7jux7fV+nVW29wkPeQxpb1blCb5IXz8oT16nv7k86yadmF9WjtX3cJtfGFtT8fxfZJaMYuvK+K/VCNuU7y2QrvGxgnd/p2W3YTgWV/chNmsWsHGCXuXYWr/5EmO8otWGU/p2G0sjYFxiGZ31AeK4ir22jMPHYl9r0SlgSylHy5QftxudI19wUxAvZin3BP9PewvjYY6DZbl38QeiOrYCe2P52mh1UaU22LoVvmW32izCVo2fzkaKSsk8xSb0QN5+MZF5/T4ILa5vdofkvVko9/T7U1tJ6DzpWldTtmP++JsC70DHsp14fZHhTMzWqIZo78nJ/tqv03lzFT7TPkH2MfTfqbH9vYGPV2MG+MuAjla9/rxBPs5d9I2D8/Rvev17tDaQp5xHx6Z9+fqzxRl+0tUQADRx37yUcH4zUKnCcch4ZglOW4SfBA4u3aybTUaSjYgdsKWUsZv7CDh4JmVHhe3fcf8zcDhnTcbTesNpfVG6jAWpX69sfTpw2PK8mC5fhUfaEZue5XEZtrmrfoNPh+ch8jopSmtvotz24CczzE2TwfHpwll8aS0KJjChu+txQTrj+bN3xqtUNuxujdWVkgG7bisNmhfewrl0RlflTldtbOYfMxl/qzSoWyUzdIOHI5N0ZQ7rs8ltI/SUT7abN9kxIt72ER/y/TJBNH0JNuUUyrsDlL6eEofH+XB6YakTYRaeDrO8nXoz7DEstgl2rJ2wM3MIMAzx5xt4GM4H46VzZTGsuWBc0yxfdK/h3NEjpNdreVmf9jJmuLfwHfWnpb/XuiaOsfp4zwNPvITmEho6nG+2mcY8w/uLsW2A4F/0BVBz7nRMuecPe7P5L7z+hcvJRd8zI1xWi70d/zvXQTKZBftEKsn8MblVfYD3bGontGsqFc2OK6bY9AflYTxP2v9mF9w+o9z8u8szlJ+BQmh36zwWdZiZRnnr+Bl6oFjpp1SGaL8Y/WOMhyGq0C6rH6hOlccc23MuP6Yoi0b5PPV+KtBQsksXx7t5zEZNXZR9VtVn+zi00jMkhg3CR5FKhyu077/tOu+SbpXkZCDTNe/F3OrCQfPw5N1XNwBHbMynD4uUfpFLUip65NVZgShoBuUXoRTzH/tEWVjmQM0zBCVpsOzivkjX+QSysIwbKZpqWWDMX4XmfPK3x06mmGFSpsDoJGyQnVGaO7RvJqtLM82LVNWZar2sSfpItGSeq8HHSQpZgdsNstmCAE7eGY2c/vOMhWsYy20gVM6PoxmLaKVInmaPdJ9Ge8rdkBoSR+XzK3QALlFlpnNSfoe83cFOwc8Hhk7MDBLW2wH4iul0rRhHf6dQT2bGtvOgiV0zJRF0tg4uP45lvoP+Gh95Adm1HeUjfN+L/GaOkSJne50gn9Q7TM4koOZXgiUQ6QoO67HHTX2bx7Q+o0qfbfD8qlsoJUbf4w7pVLG2Dx+decYxfZ61AROeGGSwOqGk13iAJLboczWx2buxmDhk4mN4caZDh2ztHfM5ys3+q/PmaLJxXXK3dlm/+4DZT5LVBa+ygbaQSWa9LGTExMQIGhgm6W0ZDhLg8bvHRkbpJIKrgtsJ6IZOhXEBY6F2xgJGrtKc4nSh8YycVtkzXdPnqwT7ZbNcnMAvHBr0HxvmwZvbamgODrG9bczrUw1n6y3aCRmsei4SfB4dkwHAxkt8z59acqZt0THqq39Vc2d5hwPDBukTB9mhoj/NYeSUNmnAiuozRgg05CmKHxEYF19Kj7Xb0uHy6os2B4rrTU8rQBGascMGtfYHKkM4ykV9/T7K2rJOj5Hxq2Bsub0QuO4rB6TG9crIPzVB9HnyBBawzXvEjfp/kg9hXaAmagoc4i+0oMMB9RuVjneVzM2GYaVKzuSuRXqAeOTeZvE1fKZgkPi/9HyNRMQjM6yDTfydtUfrywj/J+dZbEDO5JDkX1JvZjzHIDqRGMc434P50u4pg6R7ucgudwBfFbkMa/6Z9B1zMbE4c+6LjA8G6nrMzSIwANjv5qFqtJ3TvZSlBnAvz4pGukruFnJ2O1zXUPZsm1v9V9MVzwds7YeK49cEoUDxPi6vErcGD4855JXoWOW9o35jZwzbhOI2wHyQlY2gjOzIxyGFrR/yO1Ee/yOg+sZDlT1d8wscOBYsI0RpLi+QbLHXPMwt5edFYeM6qNx7mRN/3orPd0xXX+r27V8st6gkZjFp45x6bIBv+7wOJ6wAc9KkSyu8DuV6J6hUpdMoNQdPEP4l6G8QA0OUEI2hAORAgXBbLDKPnnGlZWYjFJVBtYA57bLVFhMOeBUhiBYlj9nxV/A7FSZEW06yArawQJLsVWGkQe623YAwZJ1DCpc10bKmtMLzcfJLGR1RwxX58GgEyWMoNsYbJFZdzMIKvGEvsIAr7P0iqcFWg4GMYJQHRe0+QOyF4TqMWZABTLzbjYIryr2GeMRErbOnuMggqFoZguzS5W/p4Oq+tDBVd3X1Abg/B+4GT1wSg8WJ2jj8WnVz9RM2q2FWJCAmdkJZ6MvOhzsDORp6z73uPJvztp3bCPNjB2+498+d+HYifw49awLDij8QEsFdPodE83KIfizRGVZ36Yf0NcCx8xfiu4c8+M2gVRghUDUyEXCPeMjY2S+FwXSkQ9pZoEDx/4w1MZlyWfbxph4KtgVNE/Ww8k+F9xgtpUD/a/y2xUT2DOxYL3XaSBmCcdNQhzYzVkaMkv/FWhjrFqxEyp3Zkxbs85Ml+JlO0T9M8/Dc2pphs5O5SmH5dfmvuVksHxpmQ0oN4zJiql70Lyl3sX7yHQt04T9XDnWWP6CG8b1MdxIjuxOsCw38sYKRfdQ8svekyH0FujjqYcYOusjdX2J1g9tRhbL5yRR0XmwPJGcDlvdjtuXWXffJPoQDxxSx2FMzW0fglAvaqbHjg+buLfecPWANsrkcOQ2lnrqY+pVbYk0nFG1ighlF6jEgRJmXf1zLBwNmt9jB+GOHbsWooC6Dhq6pnaAxDCWINvruTKkloiqJaTVPoPuY+bAW+6rHhLT6qR3G0EScHll0K2WabTv9Bj3bexgRz5TgfT9kxcP2HoOCk1/D+3m1C11MZu+aDUBiVJyZTcOtdbEyhq/cyBwzI4JXTHmwyYY5z7yWeaJ9nTdbDvE7hm2gUJ5MsDOODMqkP4NBG7mO1y/g7s3aUQFc/FjHwi2cXzsdW2MAM/K6GKJBpF04OOYlFJLsVmnl8bzRh6hz0s0+V4+hmXZ5lxuHL8ENBKzBOMmfRrBA8kf1062rZ7EJ0kdtk07HEC/440vFb75/AsvmT97E3QGsmq9zGWoo9A4IhetRdq3tVzE9oXTiZkcOE9wkLEqSgePnUPGQOGsiOycF8zWblFGdglpCNHn9iFt3Rijr759nnueBUEQBEHwGbmxTgdmJmfoVjQLKQiCIAjCxUeCZ0EQBEFoFv7zLjp8f7IgCJ0GD8kUOyAIvYRatv2+Vz5o/hQEQRAEQRAEQRAEwafv42/KPc+9gtyzIIQQuWgt0r6tRdq3OcgYKJwVkR2hE0iftA9p68aQe54FQRAEQRAEQRAEoQ6qBs/uUfUG/I0MRfmG7sVV/2+zD1zsb/u9sv0fp/G3/7n3e/7j990jyRPKYi/pirKtJ9ge/rXwy15jUtsJ9VKkBy3YggxPw/VlXGgDvm67bTniuh0+LrojtIaW2wEeF/QWikVa6/RWU80gtj1O2faQ1T5D/b3POr3dSHfRmjGuFUT+jH2d1TY3SR+cfrUL67+Ww8cf2qPn6U8+z6ppF9antXPVLdzG4vuclbiv4towGLP4uiL+SzXiNsVrK7RrbJzQ7d9p2U0InvXFTayYPwEbJ7Un4wk2Us9RfjFybo8pR1m1HxcGxiGa3VEfKE4fLqh9HtX3sMeca4QSlQaylPY/P8GeiCagXsQ+X/qhK9jTCw0VO5dfdpNoWx3bp/XDjfYIaEJ7nB4fUO6uvUa9XUly2wl18xQbzAsXH+h2iWaMfuyP52lLGUG2BzvzRo/5tan3Q4TOl6bNMejO/Up3RRC6nuG5jm9X1TTgzIxGOoxxF3vKKmem2mfKP9igtBnX8cLY3t6gp4u5UGNcjta9fjzBfs6dtM3dol/PuA+PzPtz9WeKsv0lKsCX7WM/+aggPmOXkBiHBGIW8f3rA4GzayfbVqOhZANi0wWiRRNbdZBw8MxKj4vbvmP+ZhAUzo+Z5wWyMufMRuowFqX+rHF0jymLAPYqPtCU2JDkXjRGbThL84fHWnjwG3y+1PV7ntFLU1p9F+e2ATk2h5+ng+PThLIdepJhX5qv0GMgo9qgdJRXG+Or7InN9iWUFeqFna5ry6pddRJlystQmewvMs+r/HJZKzhquox23MoyW70w+3MRgXMxkKZjk7kd2s3RTRjBZ8d0QMs0EeuzUyrsDlL62PQ3Ns6/Ic8sFRoFA67Rez+jzTbDHtuyDq9flu2JnbFJtDnT+ri1MQqc1yWJcT7+zd/wZ8ZKtGV/w9ohf9bCnY9tGH9XHe+iGdrTx3kafOSPuRiDzb7WVT7DmH9wd4kmzbgORm6f9EhSwfSzL1uqz6JxKFp55/UrXkoG6hjjLgRlMut0zNYT+DrGfqA7FtUzmhX1yjrdDRyDLir98j+LxhH0zZQ73rz2LDifAufk31mcpfwKEkK/6fUnfp9tSawsE9N5Uw8cM+2UyhDlH6t3lOEwXAXSZfUL1bnimGtjxvWHb/N8GS1fKaLx5dF+HpNRY59Uv7Hd1Me5nq6Onm5ccBqJWRLjJsGjSIXDddq/7fl22LGiIiEHmUbgfC82hnSKcPA8PFnHxR3QMSvD6eMSpU1wnLo+WTuI3dHCU9wjysYyB2iYISpNhwPh/JEvcoGyyigM0ezATHsaFp07VtBGYpFoSXX8KR0fRhlZzKotwNAEywr1M0Jzj+bVjP7c8CmVMksuQ7V9Z5kKxnHNH6ZpCcehdKMFyqr387S8BwXk15j+jlqh4AYjoe2s5FVyLqYjz0qUv2MzjzabC9gBIdPfkrkVzkB8pmCGSqOQLQQrdsXSEqUP9RxRrOwYpE8dTbY5PN7gWCwLjiTxSkHL79MtPSb9efWJZueA0kb+twdm1cqL02cZbbvwcjYLZQf1LG4XjRlIiKcTxthqn8GRHMz0ato4RdlxG+ywf7J5QOs3Rqi4OkH0yPTrkzRt2AByh8wslR2L6hvjuoc8j7EIiswLumRl1MkssY5xO5T5Q2EdC4OyswNmXDDOdOiYJfZZbBzJ06BZwdS89uQrNz6FPmeKJhfXKcfj2L3rH/D6M152/+4BbaAdVKJJHzs5MQEBfEWz6gp2ZND4vSNjg1RSwTWSz9EMnQriAsfCbRy2ecRtoXwlvJ6sE+2WzXJzALxwa9B8b5sGb22poDg6xvW3M63MMmXVMdRzAv6uem91o5doJGax6LhJ8MDESWhCMTbpeKza2l/V3GnO8cCwQcr0YWaI+F9zqB6upinNSlzgQCdtDunMV/Wp+Fy/LZ1QdnhOKz8HqaHMWbNRWbc9bSRO2EAsqGwisuxRViSVGVQKFC4rnI0UjfRxH5tB27+1IDeuV0Ao7mS1QXMKOML/2YxodynhpeNOlOCyOqL01wUIyObaQWaeZmyWty9Dgyb5Jgj1ElsNdGWCnTuWrTd5wFZjEUDgo61ExUop9aaKzXHjks8I3WTHEQ56cW85mnmwXA2sqhpOU8HOFF3zwgl3jd1Dup/bqdwBfFZkh7r6Z9B11DUOf9Z1geHZSF2foUEEHghm1CwUkukcTFwz/To6S3lrv5wMpCgzgH99kuWteyhbtu3vZ+7LrCfr1tZDH10SxelYMk5/vDEidMwS6Vt8HLGTNen+2DrAc9DIOaOyqRe5LLcD5IWsbARnZkc4DDVJOG4nQkKNg+sZDlT1d8wscOBYsI0RpARsHg1ze9lZccioPhrH+lP8/3O2r90xXX+r2769sz4Z+r63aCRm8UHcZN4KGvh1dkWyDyZUzNtowmWGSl0ygVJ38Azhd9lwNThACdkQDkQKFAKDqcs4PS3QMjIMrMRkAx21rAOzhP5UPM4dzQzCAVGGIFgWQhwFo8hutwunHOh89SZ+Lb7jVFlWOBvcxiabiUHbv7WgKpAdm8Aou7VAaCNYuuQ9lwA6At1AgsklvZzziQFeZ+kVsB9dGEwI3Q0cu5z3HAo1y/PeeCIGziaoGK/Um8ZtDhzkg701KqxETrPD+107thVXtSOmru9RrXCis6i6uRk9cEoPFidog9ut2mdqJu3WQixIwMzshPUrLjwc7Azkaes+y5Lyb3RgPO9mF/EKz1LFOeMY143sRH6ceh4M23o/0NK361iiWTmrjyAqq5c0fy1wzPylcH4q/NOdbglWotluzDiT8gcRiBq5SLhnfGSMzPeiQBq3OmhZMrPAgWN/GGrjsuSzbWOMvQW7Ku/Jujfb5+GCG8y2cqD/VX5rV9cwsWC912kgZgnHTUIc2M1ZGvJvTUIbY9WKvU3PTbiwzkyX4mU7RP0zz8NzammGzk6xa7s4SSlz33I1UteX1AND1PfM0h5/qXfxPjJd0b2O+n4QLH/BDeP6GG4kR3YnXBbLncgdwz2US224hypWrytYmoVBMX4t9rrDZYVGwezR1MNvY+PDimbauEB65qYmGDhWbHZ2gUrs1FTMkAhtoEy3D9eVvsZ0xNoXlI7ZDzam5rgg1Evc/uJVOW5sHGqXMVZ2D/NFAA5PgzZHJYmW6eDuzUpbf/WANsy57BiBoN0tg8XvhjLx3QKWlmIJsqkDVvJgiahaQlrtM7S5WjZvP9P176Yl6ecFy2uXVwbdapmR21g6HNW31rM2zjXGdR3QMdxCpethfbOYji3aIBmJ0kgHgvpoxoWBwDE7JqD8+qEd5zvka8HPMM697k+E+2xJ9nTdbDuoFYnqOvllA4XyZICdcWZUIP0bCNzMd7h+yr6oYC5+7APBNk6weQjwrIwulmgQSQc+jmfEqKXYrNNL43kjj9DnJZp8Lx/DsmxzLmvHLgONxCzBuEmfRvBA8se1k22rJ35ywsO2aYcD6He88aXCN59/4SXzZ2+CzkBWrZe5DHUUGkfkorVI+7aWdrcvHNoFWtLBHp6jgdUqPRDcyRgonBWRnfOC2dotynTiwbYXGNHn9iFtXR/f9tw76Fvom/Qd//63nOeeZ0EQBEHoHdR9q/b+aH/ZmCAIgiAIl5J/71v+d/pnxX9Hf/UfvEX/wc3fk+BZEARBEDRYWmzvH0xYNiYIglA3eJCszDoLwkUFM85f/H/+v+lvrx/Tv/y3f6KOqWXbH/rV/0j9IQiCIAiCIAiCIAiXnf/l576HJn/+f3WBM7gU9zxjFgHL8HqZy1BHoXFELlqLtG9rkfZtDjIGCmdFZEfoBNIn7UPaujp93/Utaqm2jwqesy/9oPmzNzk+PqZMJmP+6k0uQx2FxhG5aC3Svq1F2rc5yBgonBWRHaETSJ+0D2nr6vzxn/zv9EN//63YzLPc8ywIgiAIgiAIgiAIHt/6576F5n/4XeYvjQTPgiAIgiAIgiAIguDxZzhS/ut/+Tvol+f+j/TCX/xWdUyCZ0EQBEEQBEEQBEEo4zu//c/QD7/0XfTbr76b/retvyzBsyAIgiAIgiAIgiCEwAz0t3/rt9Dx8TH9/wFxkLzPY036EQAAAABJRU5ErkJggg==;" parent="1" vertex="1">
          <mxGeometry x="-13.5" y="-110" width="975" height="235" as="geometry" />
        </mxCell>
        <mxCell id="CcBtixM1-_sj4fkXDXMc-3" value="&lt;h2 data-sider-select-id=&quot;2a231832-55a8-4b9f-a4dc-4dda2f7818b6&quot;&gt;&lt;u data-sider-select-id=&quot;9a07c2c4-2812-40c4-89b0-c600b4c502cb&quot;&gt;1RA FN; Atomicidad y eliminacion de grupos repetidos&lt;/u&gt;&lt;/h2&gt;" style="text;html=1;align=center;verticalAlign=middle;whiteSpace=wrap;rounded=0;" parent="1" vertex="1">
          <mxGeometry x="200" y="140" width="320" height="30" as="geometry" />
        </mxCell>
        <mxCell id="CcBtixM1-_sj4fkXDXMc-4" value="empresa" style="rounded=0;whiteSpace=wrap;html=1;" parent="1" vertex="1">
          <mxGeometry x="20" y="370" width="120" height="60" as="geometry" />
        </mxCell>
        <mxCell id="CcBtixM1-_sj4fkXDXMc-6" value="registroLog" style="rounded=0;whiteSpace=wrap;html=1;" parent="1" vertex="1">
          <mxGeometry x="350" y="370" width="120" height="60" as="geometry" />
        </mxCell>
        <mxCell id="XuFYJwnRNd0uSfrwbkME-1" value="&lt;b data-sider-select-id=&quot;c574e57d-faaf-4fee-bc15-e69e675b7f27&quot;&gt;&lt;u data-sider-select-id=&quot;9acb7e67-7c1f-4172-b30b-a49021d0227c&quot;&gt;idEmpresa&lt;/u&gt;&lt;/b&gt;" style="ellipse;whiteSpace=wrap;html=1;" parent="1" vertex="1">
          <mxGeometry x="-40" y="310" width="70" height="40" as="geometry" />
        </mxCell>
        <mxCell id="XuFYJwnRNd0uSfrwbkME-2" value="nombre" style="ellipse;whiteSpace=wrap;html=1;" parent="1" vertex="1">
          <mxGeometry x="40" y="300" width="70" height="40" as="geometry" />
        </mxCell>
        <mxCell id="XuFYJwnRNd0uSfrwbkME-3" value="tiene" style="rhombus;whiteSpace=wrap;html=1;" parent="1" vertex="1">
          <mxGeometry x="200" y="360" width="80" height="80" as="geometry" />
        </mxCell>
        <mxCell id="XuFYJwnRNd0uSfrwbkME-4" value="1" style="text;html=1;align=center;verticalAlign=middle;resizable=0;points=[];autosize=1;strokeColor=none;fillColor=none;" parent="1" vertex="1">
          <mxGeometry x="205" y="348" width="30" height="30" as="geometry" />
        </mxCell>
        <mxCell id="XuFYJwnRNd0uSfrwbkME-5" value="n" style="text;html=1;align=center;verticalAlign=middle;resizable=0;points=[];autosize=1;strokeColor=none;fillColor=none;" parent="1" vertex="1">
          <mxGeometry x="245" y="348" width="30" height="30" as="geometry" />
        </mxCell>
        <mxCell id="XuFYJwnRNd0uSfrwbkME-6" value="&lt;b data-sider-select-id=&quot;c574e57d-faaf-4fee-bc15-e69e675b7f27&quot;&gt;&lt;u data-sider-select-id=&quot;9acb7e67-7c1f-4172-b30b-a49021d0227c&quot;&gt;idLog&lt;/u&gt;&lt;/b&gt;" style="ellipse;whiteSpace=wrap;html=1;" parent="1" vertex="1">
          <mxGeometry x="191.5" y="280" width="70" height="40" as="geometry" />
        </mxCell>
        <mxCell id="XuFYJwnRNd0uSfrwbkME-8" value="idEmpresa" style="ellipse;whiteSpace=wrap;html=1;" parent="1" vertex="1">
          <mxGeometry x="230" y="240" width="70" height="40" as="geometry" />
        </mxCell>
        <mxCell id="XuFYJwnRNd0uSfrwbkME-9" value="&lt;div&gt;legajo&lt;/div&gt;Operador" style="ellipse;whiteSpace=wrap;html=1;" parent="1" vertex="1">
          <mxGeometry x="275" y="200" width="70" height="40" as="geometry" />
        </mxCell>
        <mxCell id="XuFYJwnRNd0uSfrwbkME-10" value="fecha" style="ellipse;whiteSpace=wrap;html=1;" parent="1" vertex="1">
          <mxGeometry x="335" y="180" width="70" height="40" as="geometry" />
        </mxCell>
        <mxCell id="XuFYJwnRNd0uSfrwbkME-11" value="urlBAckend" style="ellipse;whiteSpace=wrap;html=1;" parent="1" vertex="1">
          <mxGeometry x="410" y="180" width="70" height="40" as="geometry" />
        </mxCell>
        <mxCell id="XuFYJwnRNd0uSfrwbkME-12" value="codigoResp" style="ellipse;whiteSpace=wrap;html=1;" parent="1" vertex="1">
          <mxGeometry x="485" y="180" width="70" height="40" as="geometry" />
        </mxCell>
        <mxCell id="XuFYJwnRNd0uSfrwbkME-13" value="mensaje" style="ellipse;whiteSpace=wrap;html=1;" parent="1" vertex="1">
          <mxGeometry x="555" y="190" width="70" height="40" as="geometry" />
        </mxCell>
        <mxCell id="XuFYJwnRNd0uSfrwbkME-14" value="accion" style="ellipse;shape=doubleEllipse;margin=3;whiteSpace=wrap;html=1;align=center;" parent="1" vertex="1">
          <mxGeometry x="596.5" y="220" width="100" height="40" as="geometry" />
        </mxCell>
        <mxCell id="XuFYJwnRNd0uSfrwbkME-15" value="Ambiente" style="ellipse;shape=doubleEllipse;margin=3;whiteSpace=wrap;html=1;align=center;" parent="1" vertex="1">
          <mxGeometry x="606.5" y="260" width="100" height="40" as="geometry" />
        </mxCell>
        <mxCell id="XuFYJwnRNd0uSfrwbkME-16" value="" style="endArrow=none;html=1;rounded=0;entryX=1;entryY=1;entryDx=0;entryDy=0;exitX=0.25;exitY=0;exitDx=0;exitDy=0;" parent="1" source="CcBtixM1-_sj4fkXDXMc-4" target="XuFYJwnRNd0uSfrwbkME-1" edge="1">
          <mxGeometry width="50" height="50" relative="1" as="geometry">
            <mxPoint x="460" y="400" as="sourcePoint" />
            <mxPoint x="510" y="350" as="targetPoint" />
          </mxGeometry>
        </mxCell>
        <mxCell id="XuFYJwnRNd0uSfrwbkME-17" value="" style="endArrow=none;html=1;rounded=0;entryX=0.5;entryY=1;entryDx=0;entryDy=0;exitX=0.5;exitY=0;exitDx=0;exitDy=0;" parent="1" source="CcBtixM1-_sj4fkXDXMc-4" target="XuFYJwnRNd0uSfrwbkME-2" edge="1">
          <mxGeometry width="50" height="50" relative="1" as="geometry">
            <mxPoint x="460" y="400" as="sourcePoint" />
            <mxPoint x="510" y="350" as="targetPoint" />
          </mxGeometry>
        </mxCell>
        <mxCell id="XuFYJwnRNd0uSfrwbkME-18" value="" style="endArrow=none;html=1;rounded=0;exitX=1;exitY=0.5;exitDx=0;exitDy=0;entryX=0;entryY=0.5;entryDx=0;entryDy=0;" parent="1" source="CcBtixM1-_sj4fkXDXMc-4" target="XuFYJwnRNd0uSfrwbkME-3" edge="1">
          <mxGeometry width="50" height="50" relative="1" as="geometry">
            <mxPoint x="460" y="400" as="sourcePoint" />
            <mxPoint x="510" y="350" as="targetPoint" />
          </mxGeometry>
        </mxCell>
        <mxCell id="XuFYJwnRNd0uSfrwbkME-19" value="" style="endArrow=none;html=1;rounded=0;exitX=1;exitY=0.5;exitDx=0;exitDy=0;entryX=0;entryY=0.5;entryDx=0;entryDy=0;" parent="1" source="XuFYJwnRNd0uSfrwbkME-3" target="CcBtixM1-_sj4fkXDXMc-6" edge="1">
          <mxGeometry width="50" height="50" relative="1" as="geometry">
            <mxPoint x="150" y="410" as="sourcePoint" />
            <mxPoint x="210" y="410" as="targetPoint" />
          </mxGeometry>
        </mxCell>
        <mxCell id="d4X8Zn0UxBZlShr9IBql-1" value="" style="endArrow=none;html=1;rounded=0;entryX=0.5;entryY=1;entryDx=0;entryDy=0;exitX=0;exitY=0;exitDx=0;exitDy=0;" parent="1" source="CcBtixM1-_sj4fkXDXMc-6" target="XuFYJwnRNd0uSfrwbkME-6" edge="1">
          <mxGeometry width="50" height="50" relative="1" as="geometry">
            <mxPoint x="370" y="440" as="sourcePoint" />
            <mxPoint x="420" y="390" as="targetPoint" />
          </mxGeometry>
        </mxCell>
        <mxCell id="d4X8Zn0UxBZlShr9IBql-2" value="" style="endArrow=none;html=1;rounded=0;exitX=0.133;exitY=0.017;exitDx=0;exitDy=0;exitPerimeter=0;" parent="1" source="CcBtixM1-_sj4fkXDXMc-6" target="XuFYJwnRNd0uSfrwbkME-8" edge="1">
          <mxGeometry width="50" height="50" relative="1" as="geometry">
            <mxPoint x="360" y="380" as="sourcePoint" />
            <mxPoint x="310" y="360" as="targetPoint" />
          </mxGeometry>
        </mxCell>
        <mxCell id="d4X8Zn0UxBZlShr9IBql-3" value="" style="endArrow=none;html=1;rounded=0;exitX=0.25;exitY=0;exitDx=0;exitDy=0;entryX=0.5;entryY=1;entryDx=0;entryDy=0;" parent="1" source="CcBtixM1-_sj4fkXDXMc-6" target="XuFYJwnRNd0uSfrwbkME-9" edge="1">
          <mxGeometry width="50" height="50" relative="1" as="geometry">
            <mxPoint x="376" y="381" as="sourcePoint" />
            <mxPoint x="335" y="309" as="targetPoint" />
          </mxGeometry>
        </mxCell>
        <mxCell id="d4X8Zn0UxBZlShr9IBql-4" value="" style="endArrow=none;html=1;rounded=0;entryX=0.5;entryY=1;entryDx=0;entryDy=0;" parent="1" target="XuFYJwnRNd0uSfrwbkME-10" edge="1">
          <mxGeometry width="50" height="50" relative="1" as="geometry">
            <mxPoint x="400" y="370" as="sourcePoint" />
            <mxPoint x="380" y="280" as="targetPoint" />
          </mxGeometry>
        </mxCell>
        <mxCell id="d4X8Zn0UxBZlShr9IBql-5" value="" style="endArrow=none;html=1;rounded=0;entryX=0.5;entryY=1;entryDx=0;entryDy=0;" parent="1" target="XuFYJwnRNd0uSfrwbkME-11" edge="1">
          <mxGeometry width="50" height="50" relative="1" as="geometry">
            <mxPoint x="420" y="370" as="sourcePoint" />
            <mxPoint x="450" y="280" as="targetPoint" />
          </mxGeometry>
        </mxCell>
        <mxCell id="d4X8Zn0UxBZlShr9IBql-6" value="" style="endArrow=none;html=1;rounded=0;entryX=0;entryY=1;entryDx=0;entryDy=0;exitX=0.75;exitY=0;exitDx=0;exitDy=0;" parent="1" source="CcBtixM1-_sj4fkXDXMc-6" target="XuFYJwnRNd0uSfrwbkME-12" edge="1">
          <mxGeometry width="50" height="50" relative="1" as="geometry">
            <mxPoint x="430" y="380" as="sourcePoint" />
            <mxPoint x="520" y="290" as="targetPoint" />
          </mxGeometry>
        </mxCell>
        <mxCell id="d4X8Zn0UxBZlShr9IBql-7" value="" style="endArrow=none;html=1;rounded=0;entryX=0;entryY=0.5;entryDx=0;entryDy=0;" parent="1" target="XuFYJwnRNd0uSfrwbkME-13" edge="1">
          <mxGeometry width="50" height="50" relative="1" as="geometry">
            <mxPoint x="470" y="370" as="sourcePoint" />
            <mxPoint x="550" y="314" as="targetPoint" />
          </mxGeometry>
        </mxCell>
        <mxCell id="d4X8Zn0UxBZlShr9IBql-8" value="" style="endArrow=none;html=1;rounded=0;entryX=0;entryY=0.5;entryDx=0;entryDy=0;exitX=1;exitY=0.25;exitDx=0;exitDy=0;" parent="1" source="CcBtixM1-_sj4fkXDXMc-6" target="XuFYJwnRNd0uSfrwbkME-14" edge="1">
          <mxGeometry width="50" height="50" relative="1" as="geometry">
            <mxPoint x="460" y="390" as="sourcePoint" />
            <mxPoint x="560" y="324" as="targetPoint" />
          </mxGeometry>
        </mxCell>
        <mxCell id="d4X8Zn0UxBZlShr9IBql-9" value="" style="endArrow=none;html=1;rounded=0;entryX=0;entryY=0.5;entryDx=0;entryDy=0;exitX=1;exitY=0.5;exitDx=0;exitDy=0;" parent="1" source="CcBtixM1-_sj4fkXDXMc-6" target="XuFYJwnRNd0uSfrwbkME-15" edge="1">
          <mxGeometry width="50" height="50" relative="1" as="geometry">
            <mxPoint x="480" y="395" as="sourcePoint" />
            <mxPoint x="550" y="390" as="targetPoint" />
          </mxGeometry>
        </mxCell>
        <mxCell id="d4X8Zn0UxBZlShr9IBql-17" value="nombre" style="ellipse;whiteSpace=wrap;html=1;" parent="1" vertex="1">
          <mxGeometry x="665" y="310" width="70" height="40" as="geometry" />
        </mxCell>
        <mxCell id="d4X8Zn0UxBZlShr9IBql-18" value="apellido" style="ellipse;whiteSpace=wrap;html=1;" parent="1" vertex="1">
          <mxGeometry x="695" y="360" width="70" height="40" as="geometry" />
        </mxCell>
        <mxCell id="d4X8Zn0UxBZlShr9IBql-19" value="cuil" style="ellipse;whiteSpace=wrap;html=1;" parent="1" vertex="1">
          <mxGeometry x="695" y="450" width="70" height="40" as="geometry" />
        </mxCell>
        <mxCell id="d4X8Zn0UxBZlShr9IBql-20" value="rol" style="ellipse;shape=doubleEllipse;margin=3;whiteSpace=wrap;html=1;align=center;" parent="1" vertex="1">
          <mxGeometry x="695" y="400" width="85" height="40" as="geometry" />
        </mxCell>
        <mxCell id="d4X8Zn0UxBZlShr9IBql-22" value="" style="endArrow=none;html=1;rounded=0;exitX=0;exitY=0.5;exitDx=0;exitDy=0;entryX=1.017;entryY=0.633;entryDx=0;entryDy=0;entryPerimeter=0;" parent="1" source="d4X8Zn0UxBZlShr9IBql-17" edge="1" target="CcBtixM1-_sj4fkXDXMc-6">
          <mxGeometry width="50" height="50" relative="1" as="geometry">
            <mxPoint x="310" y="600" as="sourcePoint" />
            <mxPoint x="350" y="610" as="targetPoint" />
          </mxGeometry>
        </mxCell>
        <mxCell id="d4X8Zn0UxBZlShr9IBql-23" value="" style="endArrow=none;html=1;rounded=0;exitX=0;exitY=0.5;exitDx=0;exitDy=0;entryX=1;entryY=0.75;entryDx=0;entryDy=0;" parent="1" source="d4X8Zn0UxBZlShr9IBql-18" target="CcBtixM1-_sj4fkXDXMc-6" edge="1">
          <mxGeometry width="50" height="50" relative="1" as="geometry">
            <mxPoint x="500" y="740" as="sourcePoint" />
            <mxPoint x="550" y="690" as="targetPoint" />
          </mxGeometry>
        </mxCell>
        <mxCell id="d4X8Zn0UxBZlShr9IBql-24" value="" style="endArrow=none;html=1;rounded=0;exitX=0;exitY=0.5;exitDx=0;exitDy=0;entryX=1;entryY=1;entryDx=0;entryDy=0;" parent="1" source="d4X8Zn0UxBZlShr9IBql-19" target="CcBtixM1-_sj4fkXDXMc-6" edge="1">
          <mxGeometry width="50" height="50" relative="1" as="geometry">
            <mxPoint x="500" y="740" as="sourcePoint" />
            <mxPoint x="550" y="690" as="targetPoint" />
          </mxGeometry>
        </mxCell>
        <mxCell id="d4X8Zn0UxBZlShr9IBql-25" value="" style="endArrow=none;html=1;rounded=0;entryX=1.008;entryY=0.883;entryDx=0;entryDy=0;exitX=0;exitY=0.5;exitDx=0;exitDy=0;entryPerimeter=0;" parent="1" source="d4X8Zn0UxBZlShr9IBql-20" target="CcBtixM1-_sj4fkXDXMc-6" edge="1">
          <mxGeometry width="50" height="50" relative="1" as="geometry">
            <mxPoint x="500" y="740" as="sourcePoint" />
            <mxPoint x="550" y="690" as="targetPoint" />
          </mxGeometry>
        </mxCell>
        <mxCell id="d4X8Zn0UxBZlShr9IBql-27" value="&lt;h2 data-sider-select-id=&quot;2a231832-55a8-4b9f-a4dc-4dda2f7818b6&quot;&gt;&lt;u data-sider-select-id=&quot;f96491d8-6c9a-4306-a485-d0ae00740c4d&quot;&gt;2DA FN; eliminar dependencias parciales, cada atributo no clave debe depender por competo de la PK&lt;/u&gt;&lt;/h2&gt;" style="text;html=1;align=center;verticalAlign=middle;whiteSpace=wrap;rounded=0;" parent="1" vertex="1">
          <mxGeometry x="90" y="540" width="465" height="60" as="geometry" />
        </mxCell>
        <mxCell id="d4X8Zn0UxBZlShr9IBql-29" value="empresa" style="rounded=0;whiteSpace=wrap;html=1;" parent="1" vertex="1">
          <mxGeometry x="33.5" y="810" width="120" height="60" as="geometry" />
        </mxCell>
        <mxCell id="d4X8Zn0UxBZlShr9IBql-30" value="operador" style="rounded=0;whiteSpace=wrap;html=1;" parent="1" vertex="1">
          <mxGeometry x="363.5" y="1040" width="120" height="60" as="geometry" />
        </mxCell>
        <mxCell id="d4X8Zn0UxBZlShr9IBql-31" value="registroLog" style="rounded=0;whiteSpace=wrap;html=1;" parent="1" vertex="1">
          <mxGeometry x="363.5" y="810" width="120" height="60" as="geometry" />
        </mxCell>
        <mxCell id="d4X8Zn0UxBZlShr9IBql-32" value="&lt;b data-sider-select-id=&quot;c574e57d-faaf-4fee-bc15-e69e675b7f27&quot;&gt;&lt;u data-sider-select-id=&quot;9acb7e67-7c1f-4172-b30b-a49021d0227c&quot;&gt;idEmpresa&lt;/u&gt;&lt;/b&gt;" style="ellipse;whiteSpace=wrap;html=1;" parent="1" vertex="1">
          <mxGeometry x="-26.5" y="750" width="70" height="40" as="geometry" />
        </mxCell>
        <mxCell id="d4X8Zn0UxBZlShr9IBql-33" value="nombre" style="ellipse;whiteSpace=wrap;html=1;" parent="1" vertex="1">
          <mxGeometry x="53.5" y="740" width="70" height="40" as="geometry" />
        </mxCell>
        <mxCell id="d4X8Zn0UxBZlShr9IBql-34" value="tiene" style="rhombus;whiteSpace=wrap;html=1;" parent="1" vertex="1">
          <mxGeometry x="213.5" y="800" width="80" height="80" as="geometry" />
        </mxCell>
        <mxCell id="d4X8Zn0UxBZlShr9IBql-35" value="1" style="text;html=1;align=center;verticalAlign=middle;resizable=0;points=[];autosize=1;strokeColor=none;fillColor=none;" parent="1" vertex="1">
          <mxGeometry x="218.5" y="788" width="30" height="30" as="geometry" />
        </mxCell>
        <mxCell id="d4X8Zn0UxBZlShr9IBql-36" value="n" style="text;html=1;align=center;verticalAlign=middle;resizable=0;points=[];autosize=1;strokeColor=none;fillColor=none;" parent="1" vertex="1">
          <mxGeometry x="258.5" y="788" width="30" height="30" as="geometry" />
        </mxCell>
        <mxCell id="d4X8Zn0UxBZlShr9IBql-38" value="&lt;b data-sider-select-id=&quot;83c872b1-220a-4de9-be7c-35626a2f6cce&quot;&gt;&lt;u data-sider-select-id=&quot;2904e18d-4e3e-4595-817a-1ae5ec54d2e2&quot;&gt;idEmpresa&lt;/u&gt;&lt;/b&gt;" style="ellipse;whiteSpace=wrap;html=1;" parent="1" vertex="1">
          <mxGeometry x="241.5" y="670" width="70" height="40" as="geometry" />
        </mxCell>
        <mxCell id="d4X8Zn0UxBZlShr9IBql-39" value="&lt;div data-sider-select-id=&quot;a2852ae8-7c8b-4ce4-90cd-51634fcc05c3&quot;&gt;&lt;b data-sider-select-id=&quot;da1f4362-715b-4b0b-95d8-42cb9d1ca2b4&quot;&gt;&lt;u data-sider-select-id=&quot;82121d84-e484-4e8b-a67e-cf4228113296&quot;&gt;legajo&lt;/u&gt;&lt;/b&gt;&lt;/div&gt;&lt;b&gt;&lt;u&gt;Operador&lt;/u&gt;&lt;/b&gt;" style="ellipse;whiteSpace=wrap;html=1;" parent="1" vertex="1">
          <mxGeometry x="307" y="640" width="70" height="40" as="geometry" />
        </mxCell>
        <mxCell id="d4X8Zn0UxBZlShr9IBql-40" value="&lt;span data-sider-select-id=&quot;cc9897be-02b7-4213-83fd-fda7af7a7fde&quot;&gt;&lt;u style=&quot;&quot; data-sider-select-id=&quot;bd489557-b1c0-4374-9bc8-3a562e0773dc&quot;&gt;&lt;b data-sider-select-id=&quot;58d69cf8-a224-43ea-bae7-133327f965d0&quot;&gt;fecha&lt;/b&gt;&lt;/u&gt;&lt;/span&gt;" style="ellipse;whiteSpace=wrap;html=1;" parent="1" vertex="1">
          <mxGeometry x="206.5" y="720" width="70" height="40" as="geometry" />
        </mxCell>
        <mxCell id="d4X8Zn0UxBZlShr9IBql-41" value="urlBAckend" style="ellipse;whiteSpace=wrap;html=1;" parent="1" vertex="1">
          <mxGeometry x="557" y="710" width="70" height="40" as="geometry" />
        </mxCell>
        <mxCell id="d4X8Zn0UxBZlShr9IBql-42" value="codigoResp" style="ellipse;whiteSpace=wrap;html=1;" parent="1" vertex="1">
          <mxGeometry x="377" y="630" width="70" height="40" as="geometry" />
        </mxCell>
        <mxCell id="d4X8Zn0UxBZlShr9IBql-46" value="" style="endArrow=none;html=1;rounded=0;entryX=1;entryY=1;entryDx=0;entryDy=0;exitX=0.25;exitY=0;exitDx=0;exitDy=0;" parent="1" source="d4X8Zn0UxBZlShr9IBql-29" target="d4X8Zn0UxBZlShr9IBql-32" edge="1">
          <mxGeometry width="50" height="50" relative="1" as="geometry">
            <mxPoint x="473.5" y="840" as="sourcePoint" />
            <mxPoint x="523.5" y="790" as="targetPoint" />
          </mxGeometry>
        </mxCell>
        <mxCell id="d4X8Zn0UxBZlShr9IBql-47" value="" style="endArrow=none;html=1;rounded=0;entryX=0.5;entryY=1;entryDx=0;entryDy=0;exitX=0.5;exitY=0;exitDx=0;exitDy=0;" parent="1" source="d4X8Zn0UxBZlShr9IBql-29" target="d4X8Zn0UxBZlShr9IBql-33" edge="1">
          <mxGeometry width="50" height="50" relative="1" as="geometry">
            <mxPoint x="473.5" y="840" as="sourcePoint" />
            <mxPoint x="523.5" y="790" as="targetPoint" />
          </mxGeometry>
        </mxCell>
        <mxCell id="d4X8Zn0UxBZlShr9IBql-48" value="" style="endArrow=none;html=1;rounded=0;exitX=1;exitY=0.5;exitDx=0;exitDy=0;entryX=0;entryY=0.5;entryDx=0;entryDy=0;" parent="1" source="d4X8Zn0UxBZlShr9IBql-29" target="d4X8Zn0UxBZlShr9IBql-34" edge="1">
          <mxGeometry width="50" height="50" relative="1" as="geometry">
            <mxPoint x="473.5" y="840" as="sourcePoint" />
            <mxPoint x="523.5" y="790" as="targetPoint" />
          </mxGeometry>
        </mxCell>
        <mxCell id="d4X8Zn0UxBZlShr9IBql-49" value="" style="endArrow=none;html=1;rounded=0;exitX=1;exitY=0.5;exitDx=0;exitDy=0;entryX=0;entryY=0.5;entryDx=0;entryDy=0;" parent="1" source="d4X8Zn0UxBZlShr9IBql-34" target="d4X8Zn0UxBZlShr9IBql-31" edge="1">
          <mxGeometry width="50" height="50" relative="1" as="geometry">
            <mxPoint x="163.5" y="850" as="sourcePoint" />
            <mxPoint x="223.5" y="850" as="targetPoint" />
          </mxGeometry>
        </mxCell>
        <mxCell id="d4X8Zn0UxBZlShr9IBql-51" value="" style="endArrow=none;html=1;rounded=0;exitX=0.133;exitY=0.017;exitDx=0;exitDy=0;exitPerimeter=0;" parent="1" source="d4X8Zn0UxBZlShr9IBql-31" target="d4X8Zn0UxBZlShr9IBql-38" edge="1">
          <mxGeometry width="50" height="50" relative="1" as="geometry">
            <mxPoint x="373.5" y="820" as="sourcePoint" />
            <mxPoint x="323.5" y="800" as="targetPoint" />
          </mxGeometry>
        </mxCell>
        <mxCell id="d4X8Zn0UxBZlShr9IBql-52" value="" style="endArrow=none;html=1;rounded=0;exitX=0.25;exitY=0;exitDx=0;exitDy=0;entryX=0.5;entryY=1;entryDx=0;entryDy=0;" parent="1" source="d4X8Zn0UxBZlShr9IBql-31" target="d4X8Zn0UxBZlShr9IBql-39" edge="1">
          <mxGeometry width="50" height="50" relative="1" as="geometry">
            <mxPoint x="389.5" y="821" as="sourcePoint" />
            <mxPoint x="348.5" y="749" as="targetPoint" />
          </mxGeometry>
        </mxCell>
        <mxCell id="d4X8Zn0UxBZlShr9IBql-53" value="" style="endArrow=none;html=1;rounded=0;entryX=1;entryY=1;entryDx=0;entryDy=0;exitX=0;exitY=0;exitDx=0;exitDy=0;" parent="1" source="d4X8Zn0UxBZlShr9IBql-31" target="d4X8Zn0UxBZlShr9IBql-40" edge="1">
          <mxGeometry width="50" height="50" relative="1" as="geometry">
            <mxPoint x="413.5" y="810" as="sourcePoint" />
            <mxPoint x="393.5" y="720" as="targetPoint" />
          </mxGeometry>
        </mxCell>
        <mxCell id="d4X8Zn0UxBZlShr9IBql-54" value="" style="endArrow=none;html=1;rounded=0;entryX=0;entryY=1;entryDx=0;entryDy=0;exitX=0.667;exitY=0;exitDx=0;exitDy=0;exitPerimeter=0;" parent="1" source="d4X8Zn0UxBZlShr9IBql-31" target="d4X8Zn0UxBZlShr9IBql-41" edge="1">
          <mxGeometry width="50" height="50" relative="1" as="geometry">
            <mxPoint x="433.5" y="810" as="sourcePoint" />
            <mxPoint x="463.5" y="720" as="targetPoint" />
          </mxGeometry>
        </mxCell>
        <mxCell id="d4X8Zn0UxBZlShr9IBql-55" value="" style="endArrow=none;html=1;rounded=0;entryX=0.5;entryY=1;entryDx=0;entryDy=0;exitX=0.342;exitY=-0.017;exitDx=0;exitDy=0;exitPerimeter=0;" parent="1" source="d4X8Zn0UxBZlShr9IBql-31" target="d4X8Zn0UxBZlShr9IBql-42" edge="1">
          <mxGeometry width="50" height="50" relative="1" as="geometry">
            <mxPoint x="403.5" y="800" as="sourcePoint" />
            <mxPoint x="533.5" y="730" as="targetPoint" />
          </mxGeometry>
        </mxCell>
        <mxCell id="d4X8Zn0UxBZlShr9IBql-57" value="" style="endArrow=none;html=1;rounded=0;entryX=0;entryY=1;entryDx=0;entryDy=0;exitX=0.575;exitY=0;exitDx=0;exitDy=0;exitPerimeter=0;" parent="1" source="d4X8Zn0UxBZlShr9IBql-31" target="d4X8Zn0UxBZlShr9IBql-110" edge="1">
          <mxGeometry width="50" height="50" relative="1" as="geometry">
            <mxPoint x="473.5" y="830" as="sourcePoint" />
            <mxPoint x="558.1446609406726" y="774.1421356237311" as="targetPoint" />
          </mxGeometry>
        </mxCell>
        <mxCell id="d4X8Zn0UxBZlShr9IBql-59" value="tiene" style="rhombus;whiteSpace=wrap;html=1;" parent="1" vertex="1">
          <mxGeometry x="383.5" y="930" width="80" height="80" as="geometry" />
        </mxCell>
        <mxCell id="d4X8Zn0UxBZlShr9IBql-60" value="" style="endArrow=none;html=1;rounded=0;exitX=0.5;exitY=0;exitDx=0;exitDy=0;entryX=0.5;entryY=1;entryDx=0;entryDy=0;" parent="1" source="d4X8Zn0UxBZlShr9IBql-59" edge="1" target="d4X8Zn0UxBZlShr9IBql-31">
          <mxGeometry width="50" height="50" relative="1" as="geometry">
            <mxPoint x="383.5" y="1020" as="sourcePoint" />
            <mxPoint x="373.5" y="870" as="targetPoint" />
            <Array as="points">
              <mxPoint x="424" y="930" />
            </Array>
          </mxGeometry>
        </mxCell>
        <mxCell id="d4X8Zn0UxBZlShr9IBql-61" value="" style="endArrow=none;html=1;rounded=0;entryX=0.5;entryY=0;entryDx=0;entryDy=0;exitX=0.5;exitY=1;exitDx=0;exitDy=0;" parent="1" source="d4X8Zn0UxBZlShr9IBql-59" target="d4X8Zn0UxBZlShr9IBql-30" edge="1">
          <mxGeometry width="50" height="50" relative="1" as="geometry">
            <mxPoint x="218.5" y="930" as="sourcePoint" />
            <mxPoint x="218.5" y="900" as="targetPoint" />
          </mxGeometry>
        </mxCell>
        <mxCell id="d4X8Zn0UxBZlShr9IBql-62" value="1" style="text;html=1;align=center;verticalAlign=middle;resizable=0;points=[];autosize=1;strokeColor=none;fillColor=none;" parent="1" vertex="1">
          <mxGeometry x="377" y="990" width="30" height="30" as="geometry" />
        </mxCell>
        <mxCell id="d4X8Zn0UxBZlShr9IBql-63" value="n" style="text;html=1;align=center;verticalAlign=middle;resizable=0;points=[];autosize=1;strokeColor=none;fillColor=none;" parent="1" vertex="1">
          <mxGeometry x="386.5" y="910" width="30" height="30" as="geometry" />
        </mxCell>
        <mxCell id="d4X8Zn0UxBZlShr9IBql-64" value="&lt;div&gt;&lt;b data-sider-select-id=&quot;55ede07a-b8c2-4d3f-b9f7-f1b9e4049e26&quot;&gt;&lt;u data-sider-select-id=&quot;37f6b830-5dad-4fb7-af10-05df07c0517d&quot;&gt;legajo&lt;/u&gt;&lt;/b&gt;&lt;/div&gt;&lt;b data-sider-select-id=&quot;55ede07a-b8c2-4d3f-b9f7-f1b9e4049e26&quot;&gt;&lt;u data-sider-select-id=&quot;37f6b830-5dad-4fb7-af10-05df07c0517d&quot;&gt;Operador&lt;/u&gt;&lt;/b&gt;" style="ellipse;whiteSpace=wrap;html=1;" parent="1" vertex="1">
          <mxGeometry x="293.5" y="1150" width="70" height="40" as="geometry" />
        </mxCell>
        <mxCell id="d4X8Zn0UxBZlShr9IBql-65" value="nombre" style="ellipse;whiteSpace=wrap;html=1;" parent="1" vertex="1">
          <mxGeometry x="383.5" y="1160" width="70" height="40" as="geometry" />
        </mxCell>
        <mxCell id="d4X8Zn0UxBZlShr9IBql-66" value="apellido" style="ellipse;whiteSpace=wrap;html=1;" parent="1" vertex="1">
          <mxGeometry x="463.5" y="1140" width="70" height="40" as="geometry" />
        </mxCell>
        <mxCell id="d4X8Zn0UxBZlShr9IBql-67" value="cuil" style="ellipse;whiteSpace=wrap;html=1;" parent="1" vertex="1">
          <mxGeometry x="542" y="1100" width="70" height="40" as="geometry" />
        </mxCell>
        <mxCell id="d4X8Zn0UxBZlShr9IBql-69" value="" style="endArrow=none;html=1;rounded=0;exitX=0.5;exitY=0;exitDx=0;exitDy=0;entryX=0.113;entryY=1.05;entryDx=0;entryDy=0;entryPerimeter=0;" parent="1" source="d4X8Zn0UxBZlShr9IBql-64" target="d4X8Zn0UxBZlShr9IBql-30" edge="1">
          <mxGeometry width="50" height="50" relative="1" as="geometry">
            <mxPoint x="298.5" y="990" as="sourcePoint" />
            <mxPoint x="367" y="1110" as="targetPoint" />
          </mxGeometry>
        </mxCell>
        <mxCell id="d4X8Zn0UxBZlShr9IBql-70" value="" style="endArrow=none;html=1;rounded=0;exitX=0.5;exitY=0;exitDx=0;exitDy=0;" parent="1" source="d4X8Zn0UxBZlShr9IBql-65" edge="1">
          <mxGeometry width="50" height="50" relative="1" as="geometry">
            <mxPoint x="108.5" y="1060" as="sourcePoint" />
            <mxPoint x="417" y="1100" as="targetPoint" />
          </mxGeometry>
        </mxCell>
        <mxCell id="d4X8Zn0UxBZlShr9IBql-71" value="" style="endArrow=none;html=1;rounded=0;exitX=0.421;exitY=-0.05;exitDx=0;exitDy=0;entryX=0.896;entryY=1.05;entryDx=0;entryDy=0;entryPerimeter=0;exitPerimeter=0;" parent="1" source="d4X8Zn0UxBZlShr9IBql-66" target="d4X8Zn0UxBZlShr9IBql-30" edge="1">
          <mxGeometry width="50" height="50" relative="1" as="geometry">
            <mxPoint x="298.5" y="1200" as="sourcePoint" />
            <mxPoint x="348.5" y="1150" as="targetPoint" />
          </mxGeometry>
        </mxCell>
        <mxCell id="d4X8Zn0UxBZlShr9IBql-72" value="" style="endArrow=none;html=1;rounded=0;exitX=0.014;exitY=0.35;exitDx=0;exitDy=0;entryX=1;entryY=0.75;entryDx=0;entryDy=0;exitPerimeter=0;" parent="1" source="d4X8Zn0UxBZlShr9IBql-67" target="d4X8Zn0UxBZlShr9IBql-30" edge="1">
          <mxGeometry width="50" height="50" relative="1" as="geometry">
            <mxPoint x="298.5" y="1200" as="sourcePoint" />
            <mxPoint x="348.5" y="1150" as="targetPoint" />
          </mxGeometry>
        </mxCell>
        <mxCell id="d4X8Zn0UxBZlShr9IBql-73" value="" style="endArrow=none;html=1;rounded=0;entryX=1;entryY=0.5;entryDx=0;entryDy=0;exitX=0;exitY=0.5;exitDx=0;exitDy=0;" parent="1" source="C0vVejIX-Fkrhw7eO1QV-78" target="d4X8Zn0UxBZlShr9IBql-30" edge="1">
          <mxGeometry width="50" height="50" relative="1" as="geometry">
            <mxPoint x="469.5" y="1140" as="sourcePoint" />
            <mxPoint x="348.5" y="1150" as="targetPoint" />
          </mxGeometry>
        </mxCell>
        <mxCell id="d4X8Zn0UxBZlShr9IBql-99" value="mensaje" style="ellipse;whiteSpace=wrap;html=1;" parent="1" vertex="1">
          <mxGeometry x="456.5" y="640" width="70" height="40" as="geometry" />
        </mxCell>
        <mxCell id="d4X8Zn0UxBZlShr9IBql-100" value="" style="endArrow=none;html=1;rounded=0;entryX=0.5;entryY=1;entryDx=0;entryDy=0;exitX=0.433;exitY=-0.017;exitDx=0;exitDy=0;exitPerimeter=0;" parent="1" source="d4X8Zn0UxBZlShr9IBql-31" target="d4X8Zn0UxBZlShr9IBql-99" edge="1">
          <mxGeometry width="50" height="50" relative="1" as="geometry">
            <mxPoint x="613.5" y="850" as="sourcePoint" />
            <mxPoint x="663.5" y="800" as="targetPoint" />
          </mxGeometry>
        </mxCell>
        <mxCell id="d4X8Zn0UxBZlShr9IBql-110" value="Accion" style="ellipse;whiteSpace=wrap;html=1;" parent="1" vertex="1">
          <mxGeometry x="507" y="670" width="70" height="40" as="geometry" />
        </mxCell>
        <mxCell id="C0vVejIX-Fkrhw7eO1QV-2" value="respuesta" style="rounded=0;whiteSpace=wrap;html=1;" vertex="1" parent="1">
          <mxGeometry x="750" y="1523" width="120" height="60" as="geometry" />
        </mxCell>
        <mxCell id="C0vVejIX-Fkrhw7eO1QV-3" value="ambiente" style="rounded=0;whiteSpace=wrap;html=1;" vertex="1" parent="1">
          <mxGeometry x="750" y="1640" width="120" height="60" as="geometry" />
        </mxCell>
        <mxCell id="C0vVejIX-Fkrhw7eO1QV-4" value="empresa" style="rounded=0;whiteSpace=wrap;html=1;" vertex="1" parent="1">
          <mxGeometry x="-80" y="1510" width="120" height="60" as="geometry" />
        </mxCell>
        <mxCell id="C0vVejIX-Fkrhw7eO1QV-5" value="operador" style="rounded=0;whiteSpace=wrap;html=1;" vertex="1" parent="1">
          <mxGeometry x="35" y="1730" width="120" height="60" as="geometry" />
        </mxCell>
        <mxCell id="C0vVejIX-Fkrhw7eO1QV-6" value="registroLog" style="rounded=0;whiteSpace=wrap;html=1;" vertex="1" parent="1">
          <mxGeometry x="250" y="1510" width="120" height="60" as="geometry" />
        </mxCell>
        <mxCell id="C0vVejIX-Fkrhw7eO1QV-7" value="&lt;b data-sider-select-id=&quot;c574e57d-faaf-4fee-bc15-e69e675b7f27&quot;&gt;&lt;u data-sider-select-id=&quot;9acb7e67-7c1f-4172-b30b-a49021d0227c&quot;&gt;idEmpresa&lt;/u&gt;&lt;/b&gt;" style="ellipse;whiteSpace=wrap;html=1;" vertex="1" parent="1">
          <mxGeometry x="-140" y="1450" width="70" height="40" as="geometry" />
        </mxCell>
        <mxCell id="C0vVejIX-Fkrhw7eO1QV-8" value="nombre" style="ellipse;whiteSpace=wrap;html=1;" vertex="1" parent="1">
          <mxGeometry x="-60" y="1440" width="70" height="40" as="geometry" />
        </mxCell>
        <mxCell id="C0vVejIX-Fkrhw7eO1QV-9" value="tiene" style="rhombus;whiteSpace=wrap;html=1;" vertex="1" parent="1">
          <mxGeometry x="100" y="1500" width="80" height="80" as="geometry" />
        </mxCell>
        <mxCell id="C0vVejIX-Fkrhw7eO1QV-10" value="1" style="text;html=1;align=center;verticalAlign=middle;resizable=0;points=[];autosize=1;strokeColor=none;fillColor=none;" vertex="1" parent="1">
          <mxGeometry x="105" y="1488" width="30" height="30" as="geometry" />
        </mxCell>
        <mxCell id="C0vVejIX-Fkrhw7eO1QV-11" value="n" style="text;html=1;align=center;verticalAlign=middle;resizable=0;points=[];autosize=1;strokeColor=none;fillColor=none;" vertex="1" parent="1">
          <mxGeometry x="145" y="1488" width="30" height="30" as="geometry" />
        </mxCell>
        <mxCell id="C0vVejIX-Fkrhw7eO1QV-12" value="&lt;b data-sider-select-id=&quot;83c872b1-220a-4de9-be7c-35626a2f6cce&quot;&gt;&lt;u data-sider-select-id=&quot;2904e18d-4e3e-4595-817a-1ae5ec54d2e2&quot;&gt;idEmpresa&lt;/u&gt;&lt;/b&gt;" style="ellipse;whiteSpace=wrap;html=1;" vertex="1" parent="1">
          <mxGeometry x="160" y="1390" width="70" height="40" as="geometry" />
        </mxCell>
        <mxCell id="C0vVejIX-Fkrhw7eO1QV-13" value="&lt;div data-sider-select-id=&quot;a2852ae8-7c8b-4ce4-90cd-51634fcc05c3&quot;&gt;&lt;b data-sider-select-id=&quot;da1f4362-715b-4b0b-95d8-42cb9d1ca2b4&quot;&gt;&lt;u data-sider-select-id=&quot;82121d84-e484-4e8b-a67e-cf4228113296&quot;&gt;legajo&lt;/u&gt;&lt;/b&gt;&lt;/div&gt;&lt;b&gt;&lt;u&gt;Operador&lt;/u&gt;&lt;/b&gt;" style="ellipse;whiteSpace=wrap;html=1;" vertex="1" parent="1">
          <mxGeometry x="210" y="1360" width="70" height="40" as="geometry" />
        </mxCell>
        <mxCell id="C0vVejIX-Fkrhw7eO1QV-14" value="&lt;span data-sider-select-id=&quot;cc9897be-02b7-4213-83fd-fda7af7a7fde&quot;&gt;&lt;u style=&quot;&quot; data-sider-select-id=&quot;bd489557-b1c0-4374-9bc8-3a562e0773dc&quot;&gt;&lt;b data-sider-select-id=&quot;58d69cf8-a224-43ea-bae7-133327f965d0&quot;&gt;fecha&lt;/b&gt;&lt;/u&gt;&lt;/span&gt;" style="ellipse;whiteSpace=wrap;html=1;" vertex="1" parent="1">
          <mxGeometry x="110" y="1420" width="70" height="40" as="geometry" />
        </mxCell>
        <mxCell id="C0vVejIX-Fkrhw7eO1QV-15" value="urlBAckend" style="ellipse;whiteSpace=wrap;html=1;" vertex="1" parent="1">
          <mxGeometry x="470" y="1380" width="70" height="40" as="geometry" />
        </mxCell>
        <mxCell id="C0vVejIX-Fkrhw7eO1QV-16" value="codigoResp" style="ellipse;whiteSpace=wrap;html=1;" vertex="1" parent="1">
          <mxGeometry x="280" y="1350" width="70" height="40" as="geometry" />
        </mxCell>
        <mxCell id="C0vVejIX-Fkrhw7eO1QV-17" value="" style="endArrow=none;html=1;rounded=0;entryX=1;entryY=1;entryDx=0;entryDy=0;exitX=0.25;exitY=0;exitDx=0;exitDy=0;" edge="1" parent="1" source="C0vVejIX-Fkrhw7eO1QV-4" target="C0vVejIX-Fkrhw7eO1QV-7">
          <mxGeometry width="50" height="50" relative="1" as="geometry">
            <mxPoint x="360" y="1540" as="sourcePoint" />
            <mxPoint x="410" y="1490" as="targetPoint" />
          </mxGeometry>
        </mxCell>
        <mxCell id="C0vVejIX-Fkrhw7eO1QV-18" value="" style="endArrow=none;html=1;rounded=0;entryX=0.5;entryY=1;entryDx=0;entryDy=0;exitX=0.5;exitY=0;exitDx=0;exitDy=0;" edge="1" parent="1" source="C0vVejIX-Fkrhw7eO1QV-4" target="C0vVejIX-Fkrhw7eO1QV-8">
          <mxGeometry width="50" height="50" relative="1" as="geometry">
            <mxPoint x="360" y="1540" as="sourcePoint" />
            <mxPoint x="410" y="1490" as="targetPoint" />
          </mxGeometry>
        </mxCell>
        <mxCell id="C0vVejIX-Fkrhw7eO1QV-19" value="" style="endArrow=none;html=1;rounded=0;exitX=1;exitY=0.5;exitDx=0;exitDy=0;entryX=0;entryY=0.5;entryDx=0;entryDy=0;" edge="1" parent="1" source="C0vVejIX-Fkrhw7eO1QV-4" target="C0vVejIX-Fkrhw7eO1QV-9">
          <mxGeometry width="50" height="50" relative="1" as="geometry">
            <mxPoint x="360" y="1540" as="sourcePoint" />
            <mxPoint x="410" y="1490" as="targetPoint" />
          </mxGeometry>
        </mxCell>
        <mxCell id="C0vVejIX-Fkrhw7eO1QV-20" value="" style="endArrow=none;html=1;rounded=0;exitX=1;exitY=0.5;exitDx=0;exitDy=0;entryX=0;entryY=0.5;entryDx=0;entryDy=0;" edge="1" parent="1" source="C0vVejIX-Fkrhw7eO1QV-9" target="C0vVejIX-Fkrhw7eO1QV-6">
          <mxGeometry width="50" height="50" relative="1" as="geometry">
            <mxPoint x="50" y="1550" as="sourcePoint" />
            <mxPoint x="110" y="1550" as="targetPoint" />
          </mxGeometry>
        </mxCell>
        <mxCell id="C0vVejIX-Fkrhw7eO1QV-21" value="" style="endArrow=none;html=1;rounded=0;exitX=0.133;exitY=0.017;exitDx=0;exitDy=0;exitPerimeter=0;" edge="1" parent="1" source="C0vVejIX-Fkrhw7eO1QV-6" target="C0vVejIX-Fkrhw7eO1QV-12">
          <mxGeometry width="50" height="50" relative="1" as="geometry">
            <mxPoint x="260" y="1520" as="sourcePoint" />
            <mxPoint x="210" y="1500" as="targetPoint" />
          </mxGeometry>
        </mxCell>
        <mxCell id="C0vVejIX-Fkrhw7eO1QV-22" value="" style="endArrow=none;html=1;rounded=0;exitX=0.25;exitY=0;exitDx=0;exitDy=0;entryX=0.5;entryY=1;entryDx=0;entryDy=0;" edge="1" parent="1" source="C0vVejIX-Fkrhw7eO1QV-6" target="C0vVejIX-Fkrhw7eO1QV-13">
          <mxGeometry width="50" height="50" relative="1" as="geometry">
            <mxPoint x="276" y="1521" as="sourcePoint" />
            <mxPoint x="235" y="1449" as="targetPoint" />
          </mxGeometry>
        </mxCell>
        <mxCell id="C0vVejIX-Fkrhw7eO1QV-23" value="" style="endArrow=none;html=1;rounded=0;entryX=1;entryY=1;entryDx=0;entryDy=0;exitX=0;exitY=0;exitDx=0;exitDy=0;" edge="1" parent="1" source="C0vVejIX-Fkrhw7eO1QV-6" target="C0vVejIX-Fkrhw7eO1QV-14">
          <mxGeometry width="50" height="50" relative="1" as="geometry">
            <mxPoint x="300" y="1510" as="sourcePoint" />
            <mxPoint x="280" y="1420" as="targetPoint" />
          </mxGeometry>
        </mxCell>
        <mxCell id="C0vVejIX-Fkrhw7eO1QV-24" value="" style="endArrow=none;html=1;rounded=0;entryX=0;entryY=1;entryDx=0;entryDy=0;exitX=0.667;exitY=0;exitDx=0;exitDy=0;exitPerimeter=0;" edge="1" parent="1" source="C0vVejIX-Fkrhw7eO1QV-6" target="C0vVejIX-Fkrhw7eO1QV-15">
          <mxGeometry width="50" height="50" relative="1" as="geometry">
            <mxPoint x="320" y="1510" as="sourcePoint" />
            <mxPoint x="350" y="1420" as="targetPoint" />
          </mxGeometry>
        </mxCell>
        <mxCell id="C0vVejIX-Fkrhw7eO1QV-25" value="" style="endArrow=none;html=1;rounded=0;entryX=0.5;entryY=1;entryDx=0;entryDy=0;exitX=0.342;exitY=-0.017;exitDx=0;exitDy=0;exitPerimeter=0;" edge="1" parent="1" source="C0vVejIX-Fkrhw7eO1QV-6" target="C0vVejIX-Fkrhw7eO1QV-16">
          <mxGeometry width="50" height="50" relative="1" as="geometry">
            <mxPoint x="290" y="1500" as="sourcePoint" />
            <mxPoint x="420" y="1430" as="targetPoint" />
          </mxGeometry>
        </mxCell>
        <mxCell id="C0vVejIX-Fkrhw7eO1QV-26" value="" style="endArrow=none;html=1;rounded=0;entryX=0;entryY=0.5;entryDx=0;entryDy=0;exitX=1;exitY=0.75;exitDx=0;exitDy=0;" edge="1" parent="1" source="C0vVejIX-Fkrhw7eO1QV-2" target="C0vVejIX-Fkrhw7eO1QV-49">
          <mxGeometry width="50" height="50" relative="1" as="geometry">
            <mxPoint x="370" y="1510" as="sourcePoint" />
            <mxPoint x="430" y="1430" as="targetPoint" />
          </mxGeometry>
        </mxCell>
        <mxCell id="C0vVejIX-Fkrhw7eO1QV-27" value="" style="endArrow=none;html=1;rounded=0;entryX=0;entryY=1;entryDx=0;entryDy=0;exitX=0.575;exitY=0;exitDx=0;exitDy=0;exitPerimeter=0;" edge="1" parent="1" source="C0vVejIX-Fkrhw7eO1QV-6" target="C0vVejIX-Fkrhw7eO1QV-73">
          <mxGeometry width="50" height="50" relative="1" as="geometry">
            <mxPoint x="360" y="1530" as="sourcePoint" />
            <mxPoint x="444.64466094067257" y="1474.142135623731" as="targetPoint" />
          </mxGeometry>
        </mxCell>
        <mxCell id="C0vVejIX-Fkrhw7eO1QV-28" value="tiene" style="rhombus;whiteSpace=wrap;html=1;" vertex="1" parent="1">
          <mxGeometry x="55" y="1620" width="80" height="80" as="geometry" />
        </mxCell>
        <mxCell id="C0vVejIX-Fkrhw7eO1QV-29" value="" style="endArrow=none;html=1;rounded=0;exitX=0.5;exitY=0;exitDx=0;exitDy=0;" edge="1" parent="1" source="C0vVejIX-Fkrhw7eO1QV-28">
          <mxGeometry width="50" height="50" relative="1" as="geometry">
            <mxPoint x="270" y="1720" as="sourcePoint" />
            <mxPoint x="260" y="1570" as="targetPoint" />
            <Array as="points">
              <mxPoint x="259" y="1620" />
            </Array>
          </mxGeometry>
        </mxCell>
        <mxCell id="C0vVejIX-Fkrhw7eO1QV-30" value="" style="endArrow=none;html=1;rounded=0;entryX=0.5;entryY=0;entryDx=0;entryDy=0;exitX=0.5;exitY=1;exitDx=0;exitDy=0;" edge="1" parent="1" source="C0vVejIX-Fkrhw7eO1QV-28" target="C0vVejIX-Fkrhw7eO1QV-5">
          <mxGeometry width="50" height="50" relative="1" as="geometry">
            <mxPoint x="105" y="1630" as="sourcePoint" />
            <mxPoint x="105" y="1600" as="targetPoint" />
          </mxGeometry>
        </mxCell>
        <mxCell id="C0vVejIX-Fkrhw7eO1QV-31" value="1" style="text;html=1;align=center;verticalAlign=middle;resizable=0;points=[];autosize=1;strokeColor=none;fillColor=none;" vertex="1" parent="1">
          <mxGeometry x="95" y="1690" width="30" height="30" as="geometry" />
        </mxCell>
        <mxCell id="C0vVejIX-Fkrhw7eO1QV-32" value="n" style="text;html=1;align=center;verticalAlign=middle;resizable=0;points=[];autosize=1;strokeColor=none;fillColor=none;" vertex="1" parent="1">
          <mxGeometry x="90" y="1590" width="30" height="30" as="geometry" />
        </mxCell>
        <mxCell id="C0vVejIX-Fkrhw7eO1QV-33" value="&lt;div&gt;&lt;b data-sider-select-id=&quot;55ede07a-b8c2-4d3f-b9f7-f1b9e4049e26&quot;&gt;&lt;u data-sider-select-id=&quot;37f6b830-5dad-4fb7-af10-05df07c0517d&quot;&gt;legajo&lt;/u&gt;&lt;/b&gt;&lt;/div&gt;&lt;b data-sider-select-id=&quot;55ede07a-b8c2-4d3f-b9f7-f1b9e4049e26&quot;&gt;&lt;u data-sider-select-id=&quot;37f6b830-5dad-4fb7-af10-05df07c0517d&quot;&gt;Operador&lt;/u&gt;&lt;/b&gt;" style="ellipse;whiteSpace=wrap;html=1;" vertex="1" parent="1">
          <mxGeometry x="-86" y="1710" width="70" height="40" as="geometry" />
        </mxCell>
        <mxCell id="C0vVejIX-Fkrhw7eO1QV-34" value="nombre" style="ellipse;whiteSpace=wrap;html=1;" vertex="1" parent="1">
          <mxGeometry x="-99.5" y="1760" width="70" height="40" as="geometry" />
        </mxCell>
        <mxCell id="C0vVejIX-Fkrhw7eO1QV-35" value="apellido" style="ellipse;whiteSpace=wrap;html=1;" vertex="1" parent="1">
          <mxGeometry x="-99.5" y="1800" width="70" height="40" as="geometry" />
        </mxCell>
        <mxCell id="C0vVejIX-Fkrhw7eO1QV-36" value="cuil" style="ellipse;whiteSpace=wrap;html=1;" vertex="1" parent="1">
          <mxGeometry x="-70" y="1840" width="70" height="40" as="geometry" />
        </mxCell>
        <mxCell id="C0vVejIX-Fkrhw7eO1QV-38" value="" style="endArrow=none;html=1;rounded=0;exitX=1;exitY=0.5;exitDx=0;exitDy=0;entryX=-0.004;entryY=0.15;entryDx=0;entryDy=0;entryPerimeter=0;" edge="1" parent="1" source="C0vVejIX-Fkrhw7eO1QV-33" target="C0vVejIX-Fkrhw7eO1QV-5">
          <mxGeometry width="50" height="50" relative="1" as="geometry">
            <mxPoint x="185" y="1690" as="sourcePoint" />
            <mxPoint x="235" y="1640" as="targetPoint" />
          </mxGeometry>
        </mxCell>
        <mxCell id="C0vVejIX-Fkrhw7eO1QV-39" value="" style="endArrow=none;html=1;rounded=0;exitX=1;exitY=0.5;exitDx=0;exitDy=0;" edge="1" parent="1" source="C0vVejIX-Fkrhw7eO1QV-34">
          <mxGeometry width="50" height="50" relative="1" as="geometry">
            <mxPoint x="-5" y="1760" as="sourcePoint" />
            <mxPoint x="35" y="1770" as="targetPoint" />
          </mxGeometry>
        </mxCell>
        <mxCell id="C0vVejIX-Fkrhw7eO1QV-40" value="" style="endArrow=none;html=1;rounded=0;exitX=1;exitY=0;exitDx=0;exitDy=0;entryX=0.117;entryY=1.017;entryDx=0;entryDy=0;entryPerimeter=0;" edge="1" parent="1" source="C0vVejIX-Fkrhw7eO1QV-35" target="C0vVejIX-Fkrhw7eO1QV-5">
          <mxGeometry width="50" height="50" relative="1" as="geometry">
            <mxPoint x="185" y="1900" as="sourcePoint" />
            <mxPoint x="235" y="1850" as="targetPoint" />
          </mxGeometry>
        </mxCell>
        <mxCell id="C0vVejIX-Fkrhw7eO1QV-41" value="" style="endArrow=none;html=1;rounded=0;entryX=0.408;entryY=1;entryDx=0;entryDy=0;entryPerimeter=0;" edge="1" parent="1" source="C0vVejIX-Fkrhw7eO1QV-36" target="C0vVejIX-Fkrhw7eO1QV-5">
          <mxGeometry width="50" height="50" relative="1" as="geometry">
            <mxPoint x="185" y="1900" as="sourcePoint" />
            <mxPoint x="235" y="1850" as="targetPoint" />
          </mxGeometry>
        </mxCell>
        <mxCell id="C0vVejIX-Fkrhw7eO1QV-42" value="" style="endArrow=none;html=1;rounded=0;entryX=0.5;entryY=1;entryDx=0;entryDy=0;exitX=0.629;exitY=0;exitDx=0;exitDy=0;exitPerimeter=0;" edge="1" parent="1" source="C0vVejIX-Fkrhw7eO1QV-82" target="C0vVejIX-Fkrhw7eO1QV-5">
          <mxGeometry width="50" height="50" relative="1" as="geometry">
            <mxPoint x="62.5" y="1860" as="sourcePoint" />
            <mxPoint x="235" y="1850" as="targetPoint" />
          </mxGeometry>
        </mxCell>
        <mxCell id="C0vVejIX-Fkrhw7eO1QV-43" value="" style="endArrow=none;html=1;rounded=0;exitX=1;exitY=0.75;exitDx=0;exitDy=0;entryX=0;entryY=0.5;entryDx=0;entryDy=0;" edge="1" parent="1" source="C0vVejIX-Fkrhw7eO1QV-6" target="C0vVejIX-Fkrhw7eO1QV-44">
          <mxGeometry width="50" height="50" relative="1" as="geometry">
            <mxPoint x="450" y="1650" as="sourcePoint" />
            <mxPoint x="600" y="1555" as="targetPoint" />
          </mxGeometry>
        </mxCell>
        <mxCell id="C0vVejIX-Fkrhw7eO1QV-44" value="tiene" style="rhombus;whiteSpace=wrap;html=1;" vertex="1" parent="1">
          <mxGeometry x="617" y="1513" width="80" height="80" as="geometry" />
        </mxCell>
        <mxCell id="C0vVejIX-Fkrhw7eO1QV-45" value="" style="endArrow=none;html=1;rounded=0;entryX=0;entryY=0.5;entryDx=0;entryDy=0;exitX=1;exitY=0.5;exitDx=0;exitDy=0;" edge="1" parent="1" source="C0vVejIX-Fkrhw7eO1QV-44" target="C0vVejIX-Fkrhw7eO1QV-2">
          <mxGeometry width="50" height="50" relative="1" as="geometry">
            <mxPoint x="600" y="1470" as="sourcePoint" />
            <mxPoint x="650" y="1420" as="targetPoint" />
          </mxGeometry>
        </mxCell>
        <mxCell id="C0vVejIX-Fkrhw7eO1QV-46" value="&lt;b data-sider-select-id=&quot;f15bf11a-022c-4ba4-ab57-7cf8ca1079fd&quot;&gt;&lt;u data-sider-select-id=&quot;63a48bd9-07a0-486f-8acc-c62a28ec3417&quot;&gt;codigoResp&lt;/u&gt;&lt;/b&gt;" style="ellipse;whiteSpace=wrap;html=1;" vertex="1" parent="1">
          <mxGeometry x="910" y="1510" width="70" height="40" as="geometry" />
        </mxCell>
        <mxCell id="C0vVejIX-Fkrhw7eO1QV-47" value="" style="endArrow=none;html=1;rounded=0;" edge="1" parent="1">
          <mxGeometry width="50" height="50" relative="1" as="geometry">
            <mxPoint x="650" y="1420" as="sourcePoint" />
            <mxPoint x="650" y="1420" as="targetPoint" />
          </mxGeometry>
        </mxCell>
        <mxCell id="C0vVejIX-Fkrhw7eO1QV-48" value="" style="endArrow=none;html=1;rounded=0;exitX=1;exitY=0.5;exitDx=0;exitDy=0;entryX=0.014;entryY=0.675;entryDx=0;entryDy=0;entryPerimeter=0;" edge="1" parent="1" source="C0vVejIX-Fkrhw7eO1QV-2" target="C0vVejIX-Fkrhw7eO1QV-46">
          <mxGeometry width="50" height="50" relative="1" as="geometry">
            <mxPoint x="780" y="1520" as="sourcePoint" />
            <mxPoint x="650" y="1420" as="targetPoint" />
          </mxGeometry>
        </mxCell>
        <mxCell id="C0vVejIX-Fkrhw7eO1QV-49" value="mensaje" style="ellipse;whiteSpace=wrap;html=1;" vertex="1" parent="1">
          <mxGeometry x="910" y="1553" width="70" height="40" as="geometry" />
        </mxCell>
        <mxCell id="C0vVejIX-Fkrhw7eO1QV-50" value="1" style="text;html=1;align=center;verticalAlign=middle;resizable=0;points=[];autosize=1;strokeColor=none;fillColor=none;" vertex="1" parent="1">
          <mxGeometry x="665" y="1508" width="30" height="30" as="geometry" />
        </mxCell>
        <mxCell id="C0vVejIX-Fkrhw7eO1QV-51" value="n" style="text;html=1;align=center;verticalAlign=middle;resizable=0;points=[];autosize=1;strokeColor=none;fillColor=none;" vertex="1" parent="1">
          <mxGeometry x="610" y="1508" width="30" height="30" as="geometry" />
        </mxCell>
        <mxCell id="C0vVejIX-Fkrhw7eO1QV-52" value="" style="endArrow=none;html=1;rounded=0;exitX=0.9;exitY=0.983;exitDx=0;exitDy=0;entryX=0;entryY=0.5;entryDx=0;entryDy=0;exitPerimeter=0;" edge="1" parent="1" source="C0vVejIX-Fkrhw7eO1QV-6" target="C0vVejIX-Fkrhw7eO1QV-53">
          <mxGeometry width="50" height="50" relative="1" as="geometry">
            <mxPoint x="370" y="1671" as="sourcePoint" />
            <mxPoint x="600" y="1671" as="targetPoint" />
            <Array as="points">
              <mxPoint x="358" y="1669" />
            </Array>
          </mxGeometry>
        </mxCell>
        <mxCell id="C0vVejIX-Fkrhw7eO1QV-53" value="tiene" style="rhombus;whiteSpace=wrap;html=1;" vertex="1" parent="1">
          <mxGeometry x="617" y="1629" width="80" height="80" as="geometry" />
        </mxCell>
        <mxCell id="C0vVejIX-Fkrhw7eO1QV-54" value="" style="endArrow=none;html=1;rounded=0;entryX=0;entryY=0.5;entryDx=0;entryDy=0;exitX=1;exitY=0.5;exitDx=0;exitDy=0;" edge="1" parent="1" source="C0vVejIX-Fkrhw7eO1QV-53">
          <mxGeometry width="50" height="50" relative="1" as="geometry">
            <mxPoint x="600" y="1586" as="sourcePoint" />
            <mxPoint x="750" y="1669" as="targetPoint" />
          </mxGeometry>
        </mxCell>
        <mxCell id="C0vVejIX-Fkrhw7eO1QV-55" value="1" style="text;html=1;align=center;verticalAlign=middle;resizable=0;points=[];autosize=1;strokeColor=none;fillColor=none;" vertex="1" parent="1">
          <mxGeometry x="665" y="1624" width="30" height="30" as="geometry" />
        </mxCell>
        <mxCell id="C0vVejIX-Fkrhw7eO1QV-56" value="n" style="text;html=1;align=center;verticalAlign=middle;resizable=0;points=[];autosize=1;strokeColor=none;fillColor=none;" vertex="1" parent="1">
          <mxGeometry x="610" y="1624" width="30" height="30" as="geometry" />
        </mxCell>
        <mxCell id="C0vVejIX-Fkrhw7eO1QV-57" value="" style="endArrow=none;html=1;rounded=0;entryX=0;entryY=0.5;entryDx=0;entryDy=0;exitX=1;exitY=0.75;exitDx=0;exitDy=0;" edge="1" parent="1" target="C0vVejIX-Fkrhw7eO1QV-60">
          <mxGeometry width="50" height="50" relative="1" as="geometry">
            <mxPoint x="870" y="1682" as="sourcePoint" />
            <mxPoint x="430" y="1544" as="targetPoint" />
          </mxGeometry>
        </mxCell>
        <mxCell id="C0vVejIX-Fkrhw7eO1QV-58" value="&lt;b data-sider-select-id=&quot;f15bf11a-022c-4ba4-ab57-7cf8ca1079fd&quot;&gt;&lt;u data-sider-select-id=&quot;63a48bd9-07a0-486f-8acc-c62a28ec3417&quot;&gt;codigo&lt;/u&gt;&lt;/b&gt;&lt;div&gt;&lt;b data-sider-select-id=&quot;f15bf11a-022c-4ba4-ab57-7cf8ca1079fd&quot;&gt;&lt;u data-sider-select-id=&quot;63a48bd9-07a0-486f-8acc-c62a28ec3417&quot;&gt;Ambiente&lt;/u&gt;&lt;/b&gt;&lt;/div&gt;" style="ellipse;whiteSpace=wrap;html=1;" vertex="1" parent="1">
          <mxGeometry x="910" y="1624" width="70" height="40" as="geometry" />
        </mxCell>
        <mxCell id="C0vVejIX-Fkrhw7eO1QV-59" value="" style="endArrow=none;html=1;rounded=0;exitX=1;exitY=0.5;exitDx=0;exitDy=0;entryX=0.014;entryY=0.675;entryDx=0;entryDy=0;entryPerimeter=0;" edge="1" parent="1" target="C0vVejIX-Fkrhw7eO1QV-58">
          <mxGeometry width="50" height="50" relative="1" as="geometry">
            <mxPoint x="870" y="1667" as="sourcePoint" />
            <mxPoint x="650" y="1534" as="targetPoint" />
          </mxGeometry>
        </mxCell>
        <mxCell id="C0vVejIX-Fkrhw7eO1QV-60" value="nombre&lt;div&gt;Ambiente&lt;/div&gt;" style="ellipse;whiteSpace=wrap;html=1;" vertex="1" parent="1">
          <mxGeometry x="910" y="1680" width="70" height="40" as="geometry" />
        </mxCell>
        <mxCell id="C0vVejIX-Fkrhw7eO1QV-61" value="" style="endArrow=none;html=1;rounded=0;exitX=0.45;exitY=0.983;exitDx=0;exitDy=0;exitPerimeter=0;entryX=0;entryY=0.5;entryDx=0;entryDy=0;" edge="1" parent="1" source="C0vVejIX-Fkrhw7eO1QV-6" target="C0vVejIX-Fkrhw7eO1QV-65">
          <mxGeometry width="50" height="50" relative="1" as="geometry">
            <mxPoint x="305" y="1580" as="sourcePoint" />
            <mxPoint x="564" y="1780" as="targetPoint" />
            <Array as="points">
              <mxPoint x="304" y="1775" />
            </Array>
          </mxGeometry>
        </mxCell>
        <mxCell id="C0vVejIX-Fkrhw7eO1QV-62" value="idAmbiente" style="ellipse;whiteSpace=wrap;html=1;" vertex="1" parent="1">
          <mxGeometry x="350" y="1350" width="70" height="40" as="geometry" />
        </mxCell>
        <mxCell id="C0vVejIX-Fkrhw7eO1QV-63" value="" style="endArrow=none;html=1;rounded=0;entryX=0.5;entryY=1;entryDx=0;entryDy=0;exitX=0.433;exitY=-0.017;exitDx=0;exitDy=0;exitPerimeter=0;" edge="1" parent="1" source="C0vVejIX-Fkrhw7eO1QV-6" target="C0vVejIX-Fkrhw7eO1QV-62">
          <mxGeometry width="50" height="50" relative="1" as="geometry">
            <mxPoint x="500" y="1550" as="sourcePoint" />
            <mxPoint x="550" y="1500" as="targetPoint" />
          </mxGeometry>
        </mxCell>
        <mxCell id="C0vVejIX-Fkrhw7eO1QV-64" value="accion" style="rounded=0;whiteSpace=wrap;html=1;" vertex="1" parent="1">
          <mxGeometry x="757" y="1746" width="120" height="60" as="geometry" />
        </mxCell>
        <mxCell id="C0vVejIX-Fkrhw7eO1QV-65" value="tiene" style="rhombus;whiteSpace=wrap;html=1;" vertex="1" parent="1">
          <mxGeometry x="624" y="1735" width="80" height="80" as="geometry" />
        </mxCell>
        <mxCell id="C0vVejIX-Fkrhw7eO1QV-66" value="" style="endArrow=none;html=1;rounded=0;entryX=0;entryY=0.5;entryDx=0;entryDy=0;exitX=1;exitY=0.5;exitDx=0;exitDy=0;" edge="1" parent="1" source="C0vVejIX-Fkrhw7eO1QV-65">
          <mxGeometry width="50" height="50" relative="1" as="geometry">
            <mxPoint x="607" y="1692" as="sourcePoint" />
            <mxPoint x="757" y="1775" as="targetPoint" />
          </mxGeometry>
        </mxCell>
        <mxCell id="C0vVejIX-Fkrhw7eO1QV-67" value="1" style="text;html=1;align=center;verticalAlign=middle;resizable=0;points=[];autosize=1;strokeColor=none;fillColor=none;" vertex="1" parent="1">
          <mxGeometry x="672" y="1730" width="30" height="30" as="geometry" />
        </mxCell>
        <mxCell id="C0vVejIX-Fkrhw7eO1QV-68" value="n" style="text;html=1;align=center;verticalAlign=middle;resizable=0;points=[];autosize=1;strokeColor=none;fillColor=none;" vertex="1" parent="1">
          <mxGeometry x="617" y="1730" width="30" height="30" as="geometry" />
        </mxCell>
        <mxCell id="C0vVejIX-Fkrhw7eO1QV-69" value="" style="endArrow=none;html=1;rounded=0;entryX=0;entryY=0.5;entryDx=0;entryDy=0;exitX=1;exitY=0.75;exitDx=0;exitDy=0;" edge="1" parent="1" target="C0vVejIX-Fkrhw7eO1QV-72">
          <mxGeometry width="50" height="50" relative="1" as="geometry">
            <mxPoint x="877" y="1788" as="sourcePoint" />
            <mxPoint x="437" y="1650" as="targetPoint" />
          </mxGeometry>
        </mxCell>
        <mxCell id="C0vVejIX-Fkrhw7eO1QV-70" value="&lt;b data-sider-select-id=&quot;f15bf11a-022c-4ba4-ab57-7cf8ca1079fd&quot;&gt;&lt;u data-sider-select-id=&quot;63a48bd9-07a0-486f-8acc-c62a28ec3417&quot;&gt;codigo&lt;/u&gt;&lt;/b&gt;&lt;div&gt;&lt;b data-sider-select-id=&quot;f15bf11a-022c-4ba4-ab57-7cf8ca1079fd&quot;&gt;&lt;u data-sider-select-id=&quot;63a48bd9-07a0-486f-8acc-c62a28ec3417&quot;&gt;Accion&lt;/u&gt;&lt;/b&gt;&lt;/div&gt;" style="ellipse;whiteSpace=wrap;html=1;" vertex="1" parent="1">
          <mxGeometry x="917" y="1730" width="70" height="40" as="geometry" />
        </mxCell>
        <mxCell id="C0vVejIX-Fkrhw7eO1QV-71" value="" style="endArrow=none;html=1;rounded=0;exitX=1;exitY=0.5;exitDx=0;exitDy=0;entryX=0.014;entryY=0.675;entryDx=0;entryDy=0;entryPerimeter=0;" edge="1" parent="1" target="C0vVejIX-Fkrhw7eO1QV-70">
          <mxGeometry width="50" height="50" relative="1" as="geometry">
            <mxPoint x="877" y="1773" as="sourcePoint" />
            <mxPoint x="657" y="1640" as="targetPoint" />
          </mxGeometry>
        </mxCell>
        <mxCell id="C0vVejIX-Fkrhw7eO1QV-72" value="nombre&lt;div data-sider-select-id=&quot;3985eba7-79c9-4ea3-b346-85463a425f72&quot;&gt;Accion&lt;/div&gt;" style="ellipse;whiteSpace=wrap;html=1;" vertex="1" parent="1">
          <mxGeometry x="917" y="1786" width="70" height="40" as="geometry" />
        </mxCell>
        <mxCell id="C0vVejIX-Fkrhw7eO1QV-73" value="idAccion" style="ellipse;whiteSpace=wrap;html=1;" vertex="1" parent="1">
          <mxGeometry x="420" y="1350" width="70" height="40" as="geometry" />
        </mxCell>
        <mxCell id="C0vVejIX-Fkrhw7eO1QV-76" value="ambiente" style="ellipse;whiteSpace=wrap;html=1;" vertex="1" parent="1">
          <mxGeometry x="576.5" y="760" width="70" height="40" as="geometry" />
        </mxCell>
        <mxCell id="C0vVejIX-Fkrhw7eO1QV-77" value="" style="endArrow=none;html=1;rounded=0;entryX=0;entryY=1;entryDx=0;entryDy=0;exitX=1;exitY=0;exitDx=0;exitDy=0;" edge="1" parent="1" source="d4X8Zn0UxBZlShr9IBql-31" target="C0vVejIX-Fkrhw7eO1QV-76">
          <mxGeometry width="50" height="50" relative="1" as="geometry">
            <mxPoint x="454" y="820" as="sourcePoint" />
            <mxPoint x="577" y="684" as="targetPoint" />
          </mxGeometry>
        </mxCell>
        <mxCell id="C0vVejIX-Fkrhw7eO1QV-78" value="rol" style="ellipse;whiteSpace=wrap;html=1;" vertex="1" parent="1">
          <mxGeometry x="541" y="1030" width="70" height="40" as="geometry" />
        </mxCell>
        <mxCell id="C0vVejIX-Fkrhw7eO1QV-81" value="&lt;h2 data-sider-select-id=&quot;2a231832-55a8-4b9f-a4dc-4dda2f7818b6&quot;&gt;&lt;u data-sider-select-id=&quot;f96491d8-6c9a-4306-a485-d0ae00740c4d&quot;&gt;3RA FN; eliminar dependencias transitivas, cada atributo no clave debe depender por competo de la PK, si un atributo no clave depende de otro atributo no clave en lugar de depender de la PK, esa relaciÃ³n debe eliminarse&lt;/u&gt;&lt;/h2&gt;" style="text;html=1;align=center;verticalAlign=middle;whiteSpace=wrap;rounded=0;" vertex="1" parent="1">
          <mxGeometry x="27.63" y="1250" width="728.75" height="60" as="geometry" />
        </mxCell>
        <mxCell id="C0vVejIX-Fkrhw7eO1QV-82" value="idRol" style="ellipse;whiteSpace=wrap;html=1;" vertex="1" parent="1">
          <mxGeometry x="-9.5" y="1860" width="70" height="40" as="geometry" />
        </mxCell>
        <mxCell id="C0vVejIX-Fkrhw7eO1QV-83" value="" style="endArrow=none;html=1;rounded=0;entryX=0.704;entryY=1.017;entryDx=0;entryDy=0;entryPerimeter=0;" edge="1" parent="1" target="C0vVejIX-Fkrhw7eO1QV-5">
          <mxGeometry width="50" height="50" relative="1" as="geometry">
            <mxPoint x="240.5" y="1840" as="sourcePoint" />
            <mxPoint x="110.5" y="1790" as="targetPoint" />
            <Array as="points">
              <mxPoint x="120.5" y="1840" />
            </Array>
          </mxGeometry>
        </mxCell>
        <mxCell id="C0vVejIX-Fkrhw7eO1QV-84" value="tiene" style="rhombus;whiteSpace=wrap;html=1;" vertex="1" parent="1">
          <mxGeometry x="232.51" y="1800" width="80" height="80" as="geometry" />
        </mxCell>
        <mxCell id="C0vVejIX-Fkrhw7eO1QV-86" value="rol" style="rounded=0;whiteSpace=wrap;html=1;" vertex="1" parent="1">
          <mxGeometry x="360.5" y="1810" width="120" height="60" as="geometry" />
        </mxCell>
        <mxCell id="C0vVejIX-Fkrhw7eO1QV-87" value="" style="endArrow=none;html=1;rounded=0;exitX=1;exitY=0.5;exitDx=0;exitDy=0;entryX=0;entryY=0.5;entryDx=0;entryDy=0;" edge="1" parent="1" source="C0vVejIX-Fkrhw7eO1QV-84" target="C0vVejIX-Fkrhw7eO1QV-86">
          <mxGeometry width="50" height="50" relative="1" as="geometry">
            <mxPoint x="400.5" y="1840" as="sourcePoint" />
            <mxPoint x="450.5" y="1790" as="targetPoint" />
          </mxGeometry>
        </mxCell>
        <mxCell id="C0vVejIX-Fkrhw7eO1QV-88" value="n" style="text;html=1;align=center;verticalAlign=middle;resizable=0;points=[];autosize=1;strokeColor=none;fillColor=none;" vertex="1" parent="1">
          <mxGeometry x="235.5" y="1788" width="30" height="30" as="geometry" />
        </mxCell>
        <mxCell id="C0vVejIX-Fkrhw7eO1QV-89" value="1" style="text;html=1;align=center;verticalAlign=middle;resizable=0;points=[];autosize=1;strokeColor=none;fillColor=none;" vertex="1" parent="1">
          <mxGeometry x="285.5" y="1788" width="30" height="30" as="geometry" />
        </mxCell>
        <mxCell id="C0vVejIX-Fkrhw7eO1QV-90" value="&lt;div&gt;&lt;b&gt;&lt;u&gt;id&lt;/u&gt;&lt;/b&gt;&lt;/div&gt;" style="ellipse;whiteSpace=wrap;html=1;" vertex="1" parent="1">
          <mxGeometry x="344" y="1890" width="70" height="40" as="geometry" />
        </mxCell>
        <mxCell id="C0vVejIX-Fkrhw7eO1QV-91" value="nombreRol" style="ellipse;whiteSpace=wrap;html=1;" vertex="1" parent="1">
          <mxGeometry x="422.5" y="1890" width="70" height="40" as="geometry" />
        </mxCell>
        <mxCell id="C0vVejIX-Fkrhw7eO1QV-92" value="" style="endArrow=none;html=1;rounded=0;entryX=0.25;entryY=1;entryDx=0;entryDy=0;exitX=0.5;exitY=0;exitDx=0;exitDy=0;" edge="1" parent="1" source="C0vVejIX-Fkrhw7eO1QV-90" target="C0vVejIX-Fkrhw7eO1QV-86">
          <mxGeometry width="50" height="50" relative="1" as="geometry">
            <mxPoint x="44.5" y="1870" as="sourcePoint" />
            <mxPoint x="105.5" y="1800" as="targetPoint" />
          </mxGeometry>
        </mxCell>
        <mxCell id="C0vVejIX-Fkrhw7eO1QV-93" value="" style="endArrow=none;html=1;rounded=0;entryX=0.75;entryY=1;entryDx=0;entryDy=0;exitX=0.5;exitY=0;exitDx=0;exitDy=0;" edge="1" parent="1" source="C0vVejIX-Fkrhw7eO1QV-91" target="C0vVejIX-Fkrhw7eO1QV-86">
          <mxGeometry width="50" height="50" relative="1" as="geometry">
            <mxPoint x="389.5" y="1900" as="sourcePoint" />
            <mxPoint x="400.5" y="1880" as="targetPoint" />
          </mxGeometry>
        </mxCell>
      </root>
    </mxGraphModel>
  </diagram>
</mxfile>
